<?xml version="1.0" encoding="utf-8"?>
<!-- Generator: Adobe Illustrator 26.2.1, SVG Export Plug-In . SVG Version: 6.00 Build 0)  -->
<svg version="1.1" id="Layer_1" xmlns="http://www.w3.org/2000/svg" xmlns:xlink="http://www.w3.org/1999/xlink" x="0px" y="0px"
	 viewBox="0 0 93.1 31.1" style="enable-background:new 0 0 93.1 31.1;" xml:space="preserve">
<style type="text/css">
	.st0{fill:#0D7236;}
</style>
<g>
	<path class="st0" d="M70.2,23.7c-0.6,0-1.1,0-1.6,0c-1.6-0.1-3.2-0.2-4.8-0.2c-1.4,0-2.7,0.2-4.1,0.3c-0.2,0-0.5,0.1-0.6,0
		c-1.6-0.6-2.3,0.3-2.9,1.5c-0.4,0.8-0.9,0.8-1.6,0.3c-2.1-1.4-2.6-0.9-4.4,0c-0.8,0.4-1.7,0.7-2.6,0.6c-0.3,0-0.7-0.1-0.4,0.5
		c0.1,0.2-0.3,0.9-0.4,0.9c-0.4,0-0.9-0.2-1.1-0.4c-1-1.6-2.7-2.1-4.4-2.1c-1.4,0-2.9,0.4-4.4,0.6c-1.2,0.2-2.4,0.3-3.5,0.6
		c-1.7,0.4-3.1,1.2-4.4,2.4c-0.9,0.8-2.1,1.4-3.1,2.2c-0.8,0.7-1.5,0.2-2-0.2c-0.4-0.4-0.6-1-0.9-1.5c-0.3-0.7-0.6-1.4-1.5-1.6
		c-0.6-0.1-1.1-0.5-1.7-0.8c-1-0.5-2.1-1.1-3.1-1.6c-0.1-0.1-0.3,0-0.5,0c0.1,0.1,0.1,0.4,0.2,0.4c1.3,0.8,2.4,1.9,4,2.3
		c0.4,0.1,1.2,0.6,1.1,0.9c-0.1,0.8-0.9,0.5-1.4,0.3c-2.1-0.6-3.9-1.7-5.6-2.9c-1.2-0.9-2.4-2-3.8-2.7c-1.6-0.8-3.3-1.2-5-1.7
		C4,21,2.3,20.3,1.2,18.9c-0.1-0.1-0.2-0.2-0.2-0.3c0-0.5,0-0.9,0-1.4c0.4,0.1,0.9,0.1,1.3,0.3c0.2,0.1,0.4,0.2,0.6,0.4
		c1.2,1.6,3,2,4.8,2.4c0.2,0,0.4-0.1,0.6-0.2C8,20.1,8,19.9,7.9,19.9c-1.5-1-3.1-2.1-4.6-3.1c-0.8-0.5-1.7-0.8-2.4-1.3
		c-0.4-0.3-0.6-0.8-0.8-1.2c0.5-0.1,1-0.2,1.4-0.2c0.2,0,0.5,0.2,0.7,0.3c2.6,1.7,5.2,3.5,7.8,5.2c1.7,1.2,3.5,2.3,5.2,3.4
		c0.2,0.1,0.5,0,0.7,0c-0.1-0.2-0.1-0.5-0.2-0.6c-3.7-2.8-7.3-5.5-11.1-8.2c-1-0.7-2.2-1.2-3.3-1.8c-0.3-0.2-0.6-0.5-0.9-0.8
		c0.3-0.3,0.5-0.7,0.9-0.8c2.1-0.8,4.3-1.4,6.4-2.2c2.6-1,5.2-2.2,7.8-3.2c0.9-0.4,2-0.5,2.9-0.9c1.4-0.6,2.8-1.2,4.4-1.4
		C23.9,3.1,25,2.9,26,2.7c2.2-0.4,4.3-0.1,6.4,0.6c1.8,0.6,3.5,1.7,5.3,2.4c1,0.4,2,0.5,3.1,0.6c0.4,0,0.9-0.4,1.1-0.7
		c1.2-1.4,2.5-2.5,4.3-3.1c1-0.3,1.9-1,2.9-1.3c1.4-0.4,2.9-0.7,4.4-1c1-0.2,2.1-0.3,3.1-0.2c2.1,0.2,4.2,0.6,6.3,0.8
		C63.8,1,64.7,1,65.6,1.1c2.9,0.1,5.8,0.3,8.8,0.3c0.7,0,1.5-0.2,2.2-0.4c1.3-0.4,1.7,0,1.6,1.2c-0.1,1.2,0.7,1.9,1.5,2.6
		c0.6,0.6,1.3,1.1,1.9,1.7c2.4,2.1,4.6,4.5,7.5,6.2c0.9,0.5,1.7,0.9,2.8,0.9c0.4,0,0.8,0.4,1.1,0.7c-0.3,0.3-0.6,0.6-1,0.8
		c-0.3,0.1-0.7,0.2-1,0.1c-1.4-0.5-2.3,0.4-3.3,1.1c-0.2,0.1-0.2,0.3-0.3,0.5c0.2,0.1,0.4,0.2,0.6,0.3c0.3,0,0.7,0,1,0
		c0.3,0,0.5,0.2,0.8,0.3c-0.1,0.3-0.2,0.8-0.4,0.9c-0.7,0.3-1.4,0.5-2.2,0.8c-0.1,0-0.2,0.1-0.4,0.2c0.1,0.1,0.3,0.2,0.4,0.2
		c0.2,0,0.4,0.1,0.6,0c0.7-0.3,1.2-0.1,1.2,0.6c0,0.4-0.4,1.1-0.8,1.2c-1.6,0.5-3.2,1.2-4.9,1.1c-0.4,0-0.8,0.3-1.2,0.3
		c-1.3,0.3-2.6,0.6-4,0.7C75.5,23.5,72.9,23.5,70.2,23.7 M49.5,18.6c0.4,0.7,0.9,1.1,1.7,0.7c0.8-0.4,1.5-1,2.4-1.2
		c2.7-0.7,5.5-1.2,8.3-1.3c0.9,0,1.9,0.2,2.7,0c2.2-0.6,4.4-0.2,6.5-0.3c0.6,0,1.3-0.1,1.9-0.2c1.9-0.2,3.7-0.4,5.6-0.6
		c0.8-0.1,1.6-0.1,2.4-0.2c0.6-0.1,1.3-0.2,1.9-0.4c1.2-0.2,2.3-0.4,3.5-0.7c0.8-0.2,0.9-1,0.3-1.6c-1.8-1.5-3.6-2.9-5.3-4.4
		c-1.7-1.5-3.2-3-4.8-4.5c-0.5-0.4-1-0.7-1.7-0.7c-1,0.1-2.1,0.1-3.1,0c-1.6-0.1-3.2-0.2-4.8-0.4c-1.3-0.1-2.7-0.1-4-0.4
		c-2.4-0.6-4.9-0.8-7.3-0.9c-0.8,0-1.6,0.1-2.4,0.2c-0.9,0.1-1.8,0.4-2.6,0.6c-0.6,0.2-1.3,0.4-1.9,0.7c-1.1,0.5-2.2,0.9-3.3,1.5
		c-1,0.6-2.1,1.1-2,2.6c0,0.3-0.2,0.6-0.4,0.9c-0.7,1.1-0.7,1.6,0.1,2.7c1,1.4,2,2.7,3.1,4.1C47.4,16.1,48.4,17.3,49.5,18.6
		 M5.2,12.9c0.6,0.4,1.3,0.8,1.9,1.2c1.5,1,3,2.1,4.4,3.2c1.3,1,2.6,2.2,3.9,3.2c1.9,1.6,3.9,3.1,5.8,4.7c0.7,0.6,0.9,0.5,1.5-0.2
		c1.1-1.1,2.2-2.2,3.5-3.2c0.8-0.6,1.7-1,2.6-1.5c0.8-0.4,1.6-1,2.5-1.2c1.4-0.3,2.9-0.4,4.4-0.6c1.8-0.2,3.6-0.6,5.5-0.4
		c2,0.2,3.9,0.5,5.8,1.1c0.2,0.1,0.5,0,0.7-0.1c-0.1-0.2-0.1-0.4-0.2-0.5c-1.3-1.7-2.6-3.5-3.9-5.2c-1-1.4-2.2-2.8-2.7-4.5
		c-0.2-0.8-0.8-1.2-1.7-1.4c-0.8-0.2-1.6-0.5-2.3-0.8c-1-0.4-2-1-3-1.4C32.1,4.6,30.4,4,28.5,4c-1.1,0-2.2,0.4-3.3,0.5
		c-1.8,0.2-3.5,0.2-5.1,1.2c-1,0.6-2.3,0.7-3.4,1.2c-3.5,1.6-7,3.2-10.8,4.1c-0.5,0.1-1,0.6-1.4,1C4.7,12.3,4.9,12.6,5.2,12.9
		 M35,22.2c1.2-0.1,2.4-0.2,3.6-0.2c1.4,0.1,2.7,0.4,4.1,0.6c0.8,0.2,1.6,0.4,2.4,0.6c0.8,0.2,1.9-0.4,2-1.1c0-0.4-0.3-1-0.6-1.1
		c-0.6-0.3-1.4-0.5-2.1-0.6c-1-0.2-2.1-0.3-3.1-0.4c-1.3-0.1-2.5-0.1-3.8,0c-1,0-2.1,0.3-3.1,0.3c-1.9,0.1-3.7,0.5-5.3,1.6
		c-0.4,0.3-0.8,0.4-1.2,0.7c-1.2,0.9-2.3,1.8-3.4,2.8c-0.1,0.1-0.1,0.5-0.1,0.7c0.3,0,0.6,0.1,0.8,0c0.7-0.4,1.4-0.9,2.1-1.5
		c1.7-1.4,3.6-2.2,5.9-2.2C33.8,22.6,34.3,22.3,35,22.2 M59.2,21.5c0,0-0.1,0.1-0.1,0.1c-0.2,0.1-0.4,0.3-0.6,0.4
		c0.2,0.3,0.5,0.4,0.8,0.2c0.1-0.1,0.3-0.1,0.5-0.1c3.3,0.1,6.6,0.1,9.9,0.2c2,0,4.1,0,6.1,0c0.5,0,0.9-0.2,1.4-0.3
		c0.5-0.1,0.9-0.3,1.3-0.5c0-0.1-0.1-0.2-0.1-0.2c-0.4,0-0.7,0-1.1,0c-1.7-0.2-3.4-0.4-5.2-0.5c-0.9-0.1-1.7-0.1-2.6-0.2
		c-1.3-0.1-2.6-0.3-3.8-0.1C63.6,20.6,61.5,21.1,59.2,21.5 M70.3,18.6c0.2,0,0.4-0.1,0.6,0c2.2,0.9,4.5,0.9,6.8,1.1
		c0.2,0,0.6-0.1,0.7-0.2c0.3-0.7-0.2-1.1-0.5-1.6c-0.1-0.1-0.4-0.2-0.6-0.1C76,17.8,74.8,18,73.5,18c-1.1,0.1-2.2,0-3.3,0
		c-0.1,0-0.2,0.1-0.3,0.2C70,18.3,70.1,18.4,70.3,18.6 M61.8,18.6c-0.2-0.1-0.4-0.2-0.6-0.2c-1.1,0.2-2.3,0.4-3.4,0.7
		c-1.3,0.4-2.7,0.8-4,1.3c-0.7,0.3-0.6,0.9-0.3,1.4c0.4,0.5,0.8,0.5,1.3,0.1c0.4-0.4,0.9-0.7,1.4-0.9c1.8-0.6,3.6-1.2,5.3-1.8
		C61.7,19.1,61.8,18.8,61.8,18.6 M29.2,25.2c-0.3,0.2-0.6,0.4-0.9,0.6c-1,0.8-2,1.5-3,2.3c-0.2,0.1-0.1,0.5-0.2,0.8
		c0.2-0.1,0.5-0.1,0.6-0.2c1.3-0.9,2.6-1.9,3.9-2.9c0.2-0.2,0.4-0.3,0.7-0.4c1.4-0.5,2.7-1.1,4.3-1.1c0.2,0,0.4-0.2,0.6-0.3
		c-0.2-0.1-0.4-0.3-0.6-0.4c-0.2-0.1-0.4-0.1-0.6,0C32.4,24.1,30.8,24.6,29.2,25.2 M56.8,23c-0.2-0.1-0.4-0.3-0.6-0.2
		c-0.3,0.1-0.5,0.3-0.7,0.5c0,0,0.1,0.2,0.1,0.2C56,23.4,56.6,23.9,56.8,23 M85,20.2c0.3-0.1,0.5-0.3,0.8-0.4c0,0-0.1-0.1-0.1-0.1
		c-0.3,0.1-0.7,0.2-1,0.3c-0.1,0-0.1,0.1-0.2,0.2C84.6,20.2,84.8,20.3,85,20.2 M82.9,18.6c0.2,0,0.4,0,0.6,0c0.1,0,0.2-0.1,0.2-0.1
		c0-0.1-0.1-0.2-0.1-0.2C83.4,18.3,83.1,18.4,82.9,18.6z"/>
</g>
</svg>
