<svg enable-background="new 0 0 141.4 140.5" viewBox="0 0 141.4 140.5" xmlns="http://www.w3.org/2000/svg"><g fill="#0d7236"><path d="m65.5 117.7c-.1-2-.5-3.9-.4-5.9.1-1.7 0-3.5 0-5.2 0-.5.1-1 .1-1.6.1-1.9.1-3.8.1-5.8 0-.9 0-1.9.1-2.8.1-1.4.3-2.7.5-4.1 0-.1 0-.1 0-.2 0-1.5.1-3 .1-4.5 0-.1 0-.2 0-.4-.1-.2-.2-.4-.2-.5-.1.1-.2.3-.3.4-2.1 2.2-3.5 4.9-4.9 7.5-.5 1-.9 2-1.4 3-.4.8-.9 1.5-1.3 2.3-.5 1-1 2-1.4 3-.7 1.4-1.4 2.8-2.1 4.2-.1.2 0 .4-.1.5-.4.5.3.6.3 1v1.6c0 .5.2.9.2 1.4.1 1 .2 2 .2 3 .1 1.7.2 3.4.2 5.1v2.2c.1 1.2.2 2.3.3 3.5 0 .5.1 1 .1 1.4v3.8c0 .8.1 1.5.1 2.3 0 .5-.2 1-.4 1.4-.1.2-.4.5-.6.5-.8 0-.6.6-.6 1 0 .5-.2.6-.6.6-.6 0-.7-.4-.7-.8-.1-1.1 0-2.3 0-3.4 0-1.5 0-3.1 0-4.6 0-.7-.1-1.4-.1-2 0-1 .2-2.1.2-3.1 0-.4-.1-.8-.1-1.3 0-1.3 0-2.6 0-3.9s-.1-2.6-.1-4c0-1 0-2 .1-3.1 0-.1 0-.1-.1-.2-.1 0-.2 0-.2.1-.2.3-.4.6-.6.9-1 1.6-1.9 3.2-2.9 4.7-1.2 1.9-2.6 3.6-4.2 5-.6.6-1.2 1.1-1.7 1.7-1.3 1.4-2.8 2.5-4.3 3.6-1.9 1.4-4 2.5-6.1 3.6s-4.3 2-6.7 2.6c-1 .2-2 .2-3 .4-1.3.2-2.6.4-3.9.6-.7.1-1.3.2-2 .3-2.1.1-4.1.3-6.2.4-.2 0-.5-.1-.7-.1-.5.1-.7.5-.8 1-.1.8-.3 1.6-.7 2.4-.3.6-.4 1.3-.5 2-.1.5-.7 1-1.4 1.1-.6.1-1.6-.3-1.7-.8s0-1.2.2-1.7c.3-.8.7-1.5 1-2.2.2-.6.2-1.3.3-1.9 0-.1-.1-.2-.2-.3-1.2-.2-2.3-.4-3.5-.5-.6 0-1.3.3-1.9.5-.4.1-.7 0-1-.3-.3-.4-.2-.7.3-.9.2-.1.5-.3.5-.5-.1-1.7.6-3.1 1.1-4.6.1-.2.1-.4.1-.7 0-.6.3-1 .7-1.4.3-.3.5-.7.8-1 .1-.1.3-.2.4-.2 1.3-.2 2.5-.3 3.8-.5s2.5-.5 3.8-.8c1.6-.4 3.1-.8 4.7-1.2 1.9-.5 3.9-.9 5.8-1.5 1.5-.4 2.8-1.2 4-2.3.8-.8 1.8-1.3 2.5-2.1 1.2-1.4 2.2-2.9 3.4-4.4 1.8-2.4 3-5.1 4.6-7.6 1-1.7 1.7-3.5 2.8-5.2 1.2-1.9 2.5-3.7 3.7-5.5.9-1.4 1.8-2.9 2.7-4.3 1.1-1.6 2.3-3.2 3.5-4.8 1.1-1.6 2.2-3.1 3.3-4.7 0 0 .1-.1.2-.1.1-.1.2-.1.3-.2-.1-.1-.1-.1-.2-.2 0 0 0-.1 0-.2.3-.4.7-.9 1.1-1.3.8-.8 1.5-1.7 2.3-2.4 1.1-1 2.4-1.9 3.6-2.8.8-.7 1.7-1.4 2.5-2.1.4-.3.8-.7 1.3-1 .3-.2.4-.5.1-.7-.9-.7-.9-1.7-1-2.6-.1-1.1-.1-2.2-.1-3.3 0-.6-.1-1.1-.4-1.6-.7-1.4-.6-1.1.4-2.1.6-.6 1.4-1.1 2-1.7.2-.1.3-.3.5-.4.5-.4 1-.7.5-1.5-.2-.3 0-.8 0-1.2 0-.3-.1-.7-.1-1 0-.7 0-1.5 0-2.2 0-.9 0-1.8.1-2.7 0-.5 0-.9 0-1.4 0-.4-.1-.7-.1-1.1 0-1.4-.1-2.8-.1-4.1 0-1.6.1-3.2.2-4.8 0-.4-.1-.8-.5-.9-.4-.2-.5-.5-.5-.9 0-.1-.1-.2-.1-.4 0 .1-.1.2-.1.3-.5 1.1-1.3 1.6-2.6.9-.1-.1-.3-.1-.5-.1-.9 0-1.5-.5-1.8-1.3-.3-.7 0-1.3.8-2 1-.8 2-1.7 3-2.6.4-.4.9-.7 1.4-1.1-.1.2-.2.4-.3.6.2-.1.4-.2.6-.4 0 0-.1-.2-.2-.3.1-.1.2-.2.3-.3s.2-.1.3-.1v.3.2c.1 0 .2 0 .2-.1.2-.2.5-.4.1-.6 0 0 0-.1 0-.2.1-.1.3-.2.4-.3 0 .2 0 .5.3.2.1-.1.3-.2.4-.3s.2-.2.3-.4c-.1 0-.3 0-.4 0 .7-.6 1.3-1.1 2-1.7 0 .1 0 .2-.1.2.1 0 .2.1.2.1.1-.1.2-.3.3-.3.7 0 1.1-.5 1.5-1 .1-.1.1-.2.1-.3-.1 0-.2 0-.3 0 .1-.1.3-.2.5-.3.1.1.2.3.2.3.2 0 .4-.1.5-.2s0-.3 0-.4c-.1.1-.2.2-.4.2-.1.1-.2.1-.3.1.9-.7 1.7-1.4 2.6-2.1.6-.5 1.3-1 1.9-1.6 1.4-1.3 2.8-2.7 4.2-4.1 2.1-2.1 4.2-4.2 6.4-6.3.9-.9 1.9-1.8 2.9-2.7.4-.3.9-.4.4-1-.1-.1.2-.5.5-.7 1-.8 2-1.7 3.1-2.5s2.2-1.6 3.3-2.4c.7-.5 1.4-.5 2.1.1.4.4.8.8 1.2 1.2 1 1.1 2.1 2 3.4 2.7.2.1.5.3.7.5.6.5.6 1.2-.1 1.6-.3.2-.7.5-1.1.6-.6.2-.4.5-.2.9.1.3.3.6.4.9-.2 0-.3.1-.4.1 0 .1.1.1.1.2.1-.1.3-.2.4-.2.5.8 1 1.5 1.6 2.3.2.3.5.5.9.3.9-.3 1.8-.5 2.7-.7h.1c.2 0 .4 0 .7.1-.1-.2-.3-.4-.4-.6-.7-.9-1.6-1.4-2.6-1.9-.5-.2-1-.5-1.5-.7v-.2c.2 0 .5 0 .6.1.7.3 1.3.6 2 .9.1.1.3 0 .5 0-.1-.1-.2-.2-.3-.3-.6-.4-1.3-.9-1.9-1.3-.1-.1-.1-.1-.2-.2.1-.1.3-.3.4-.3.4.1.9.1 1.2.3 1.5.9 2.9 1.9 4.4 2.9 2.1 1.5 4.2 3 6.3 4.6.9.7 1.8 1.4 2.7 2.2 1.9 1.6 3.7 3.3 5.5 4.9 1.5 1.3 3 2.7 4.4 4.1 1.2 1.1 2.4 2.3 3.5 3.5.4.4.5 1.1.7 1.6.1.2-.1.5-.1.7h-.2c-.1 0-.2-.1-.4-.1.1.1.2.1.2.2s.1.4 0 .4c-.5.4-1.4.3-2-.1-1.5-1.1-1.6-2.7-1.5-4.3 0-.1-.1-.1-.1-.2-.3-.3-.7-.6-1-.9-2.1-2-4.3-4.1-6.4-6.1-1.6-1.4-3.2-2.7-4.8-4.1-1.8-1.6-3.8-2.9-5.8-4.3-.8-.6-1.6-1.3-2.4-1.9-.1-.1-.3-.1-.4-.1.1.1.1.3.2.3 1.1 1 2.3 1.9 3.3 2.9 1.3 1.4 2.9 2.5 4.4 3.8 1.3 1.1 2.4 2.4 3.6 3.6 1.9 1.9 3.9 3.7 5.8 5.6 1.1 1 2.1 2.1 3.2 3.2.2.3.3.7.4 1.1.1.2.4.5-.1.6-.1 0-.2.2-.2.3-.3.8-.7 1.1-1.5 1.1-1.8-.1-3.5.4-5.2.7-1.8.4-3.6.3-5.2-.8-.3-.2-.7-.5-1-.8-.1-.1-.3-.1-.4-.1 0 .1.1.2 0 .3-.2.3-.3.6-.5.9-.1.2-.3.3-.4.4-.2.2-.4.3.1.5.4.2.5.6.4 1-.2.9-.3 1.8-.4 2.7-.1 1.3-.2 2.5-.2 3.8 0 .3.1.5.1.8 0 1.7-.1 3.5.1 5.2 0 .2.1.5.1.7 0 .1.2.2.3.1 1.2-.8 2.5-1.6 2.9-3.1.2-.6 0-1.4-.2-2-.1-.2-.6-.4-1-.5-.7-.2-1.3-.6-1.6-1.3-.4-1 .4-2.6 1.4-2.7.8-.1 1.6-.2 2.3-.4.6-.2 1.2-.5 1.7-.8.6-.3 1.3-.4 2-.2 1 .4 2.1.8 3.1 1.2.3.1.6.2.3.6v.1c.4.6-.2.9-.3 1.4-.1.6-.1 1.2-.1 1.8v1.5c0 1.3.1 2.6.1 3.9 0 .2-.1.4-.1.7v1.6c.1 1.1.2 2.2.2 3.3.1 1.5.1 3 .1 4.5 0 .8.2 1.5.4 2.3.1.4.5.5.8.5.7.1.7.1.6-.6-.1-.5-.1-1-.1-1.5-.1-1.4-.1-2.8-.1-4.3-.1-1.4-.2-2.7-.2-4.1-.1-1.3-.2-2.7-.2-4-.1-1.1-.1-2.1-.1-3.2-.1-2.8-.1-5.7-.1-8.5 0-.3.1-.7.2-.8.2-.1.6-.1.8.1s.5.5.3.9v.2c0 2.1-.1 4.1-.1 6.2 0 1.5.1 3.1.2 4.6.1 1.3.3 2.6.3 3.9.1 1.4.2 2.7.2 4.1.1 1.7.2 3.4.2 5.1.1 1.2.1 2.5.3 3.7.1.8.3 1.5.5 2.3.1.5.1 1.1.2 1.7.2 1.2.5 2.5.7 3.7s.5 2.3.7 3.5c.2 1.3.4 2.6.5 3.9v.2c-.1.5.2.9.7 1 .1 0 .3.1.4.1.1.1.2.2.3.3-.1 0-.2.1-.4.1-.3 0-.6 0-.8 0-.1 0-.2.1-.2.2.1 0 .2.1.3.1h.4c.2.1.3.2.4.4-.2.1-.3.2-.5.2-.1 0-.3 0-.5.1.1.1.2.2.3.3s.1.2.1.3c0 .3-.1.6-.1 1 .2 1.5.3 3 .6 4.4.4 2.1.8 4.2 1.2 6.2.4 1.8.9 3.6 1.3 5.5.3 1.2.6 2.4.8 3.6.3 1.4.5 2.9.7 4.3.3 1.4.6 2.7.9 4.1s.6 2.8 1 4.2c.6 2.3 1.1 4.5 1.7 6.8.3 1.2.7 2.4.5 3.6 0 .4-.2.7-.3 1.1-.1.2-.3.4-.3.7 0 .7-.4.9-.9 1.1s-1 0-1.3-.4-.7-.7-.3-1.2c.1-.1-.1-.3-.1-.4s-.1-.2-.2-.3c.1 0 .2 0 .3.1.2.1.3.1.4-.1.2-.3.6-.5.8-.7s.3-.6.3-.8c-.5-2-1-4-1.6-5.9-.1-.5-.2-1.1-.3-1.6 0-.2-.1-.5-.4-.3-1.4 1-3 1.7-4.6 2.2s-3.2.9-4.8.9c-.4 0-.3.3-.2.4.1.8.2 1.6.3 2.4.2 1.3.4 2.6.6 4 .1.4.1.9.1 1.3.1 1.3.1 2.6.1 3.9 0 1.2-.9 1.7-2 1.4-.5-.1-.7-.9-.4-1.3.1-.1.2-.2.1-.3-.1-.6.3-1 .7-1.2s.4-.5.3-.9c-.3-1.4-.6-2.7-.8-4.1-.2-1.1-.3-2.3-.5-3.5-.2-1.5-.4-3-.6-4.5-.2-1.6-.4-3.2-.6-4.8-.3-1.7-.7-3.4-1-5.1-.1-.7-.2-1.5-.4-2.3-.3-1.4-.6-2.8-.9-4.1-.4-1.9-.8-3.9-1.3-5.8-.2-1-.6-2-.9-3.1-.1-.3-.2-.6-.2-.8 0-.5-.3-.5-.6-.4-1.4.6-2.7 1.4-3.9 2.4s-2.5 1.9-3.7 2.9c-1 .8-1.9 1.6-2.7 2.6-.4.5-.9 1-.7 1.9.2.8 0 1.7 0 2.5.1 2 .3 4 .5 6 0 .6.1 1.2.1 1.8 0 1.4.3 2.8.6 4.1.3 1.7.7 3.5.5 5.3 0 .2.1.5 0 .7s-.3.3-.4.4c-.3 0-.7-.1-1-.1-.4 0-.7-.1-.9.5-.1.6-.4 1.2-.6 1.7-.2.3-.3.6.1.8 0 0-.1.3-.2.4s-.3.1-.5.1c-.2.1-.4.2-.6.3h.6c.2 0 .5 0 .5.1.1.4 0 .9-.5 1-1.1.3-2.3.4-3.5.1-.4-.1-.9 0-1.3 0-.3 0-.6.1-.9.1-1.7 0-3.4.1-5.1.1-1.2.1-2.3-.3-3.4-.7-.6-.2-.6-.9-.7-1.5-.2-1.7-.3-3.3-.5-5 0-.2-.1-.4-.2-.5-.5-.6-.5-1.4-.6-2.1-.1-.8-.1-1.6-.1-2.5-.1-1.5-.1-2.9-.2-4.4-.1-1.1-.3-2.3-.3-3.4 0-1 0-2 .1-2.9.1-1.2-.3-2.3-.5-3.5 0-.2-.1-.6-.1-.6.3-.1.5-.1.8-.2.2 0 .6.3.7-.2s.1-.9-.4-1.2c-1.8-.8-3.6-1.7-5.4-2.4-1.7-.7-3.3-1.7-4.8-2.7-.9-.6-1.7-1.2-2.5-1.9-1.8-1.5-3.5-3.1-5.2-4.7-.4-.4-.7-1-1-1.6-.2-.4-.3-.8-.4-1.3-.1-.2-.2-.4-.5-.2-.4.4-1 .6-1.3 1-.2.3-.2.8-.1 1.2.5 1.2.7 2.5.7 3.8 0 .5-.2.9-.3 1.4 0 .1-.1.1-.1.2 0-.1 0-.1-.1-.2 0-.3-.1-.6-.1-1 .1-.1.2-.2.2-.3-.1-.7-.2-1.4-.3-2.1 0-.2-.1-.4-.1-.5s-.1-.1-.1-.1c0 .1-.1.1-.1.2-.2.9-.2 1.8.2 2.6-.2 0-.5-.2-.5.3 0 1.3-.1 2.7-.2 4-.4 4-.2 7.9-.2 11.9 0 1.9.4 3.8.6 5.7v.2c0 1.4.1 2.7.1 4.1 0 1.3-.3 2.5-.3 3.8 0 1.1-.1 2.2.1 3.3.2 1 0 2.1-.1 3.2-.1.6-.5 1.2-.6 1.9-.1.5 0 1 0 1.4 0 .2-.1.5-.2.5-.5.2-1.2-.4-1.2-.9 0-.1 0-.2 0-.2.1-.7-.1-1.2-.9-1.4s-.8-.9-.8-1.6c-.1-2.1-.1-4.2-.1-6.2-.4.7-.4.6-.3.4.1.2.1.3.2.5 0-.1 0-.1 0-.2 0-.2 0-.4 0-.6 0 .2-.1.2-.2.3m2-91.3h.3c.1-.1.3-.2.4-.3 0-.1 0-.2 0-.3-.2.1-.3.2-.4.2-.1.1-.2.2-.4.4-.1.1-.2.2-.3.3 0 0 .1.1.1.1.1-.2.1-.3.3-.4m21.5-12.2c.3-.6.3-.6.6-.6.2 0 .4-.2.5-.3s.2-.3.2-.4-.2-.1-.3-.2-.1-.2-.1-.3c.1-.2.2-.3.2-.5 0-.1.1-.2.1-.3-.1 0-.2 0-.3 0-.7.5-1.3.2-2-.1-.4-.2-.7-.7-1.3-.6.3-.2.5-.6.9-.3 0 0 .2-.1.2-.1v-.1h-.1c-.6 0-.3-.2-.1-.4.3-.3.6-.6.9-.9.4-.4.8-.8 1.1-1.3.1-.1.2 0 .3 0 .2.2.2.3.2.4-.6.7-1.2 1.4-1.7 2.1-.3.4-.3.7.3.9.5.1 1 .1 1.4.2.6.1.6-.2.8-.6.6-1.2 1.2-2.4 1.9-3.5.1-.2.3-.4.5-.5.2.2.3.4.5.6.1.1.1.2.1.4.1.2.2.5.2.7-.2 0-.3 0-.5 0 0 .1.1.2.1.3s-.1.2-.2.3c-.2.2-.6 0-.7.5-.6 2-1.4 3.9-2.6 5.6-1.4 2.2-2.7 4.4-4.1 6.5-.1 0-.2-.1-.4-.1.1.1.2.2.2.3-.1.1-.2.3-.2.4-1.5 2.3-2.9 4.7-4.4 7-.9 1.4-1.7 2.7-2.5 4.1-.1.2-.1.7 0 .8.3.2.7.3 1-.1.5-.7.9-1.5 1.4-2.2 1.5-2.4 3.1-4.8 4.6-7.2.7-1.1 1.2-2.2 1.8-3.3s1.3-2.2 1.9-3.3c.5-.8.9-1.7 1.4-2.6.8-1.5 1.7-2.9 2-4.6.1-.4.1-.9.3-1.3 0-.1.3-.2.4-.2 0 .1-.1.2-.1.2 0 .1.1.2.1.2.3 0 .6 0 .8-.1.1 0 .1-.3.2-.5.1.5.5.6.8.6 1.1-.2 2.2-.5 3.3-.8.2 0 .3-.2.4-.4 0-.3-.7-1.1-1.1-1.1-.7 0-1.4 0-2.1 0-.5 0-.9-.2-1.3-.4-.6-.4-1.2-.6-1.8-.9-.1-.1-.3-.1-.4 0-.6.5-1.1 1-1.7 1.4-.1 0-.2 0-.3-.1-.2-.1-.5-.2-.6-.1-1 1.1-2 2.2-3 3.3-1.7 1.7-3.4 3.4-5.1 5.1-.1.1-.1.2-.1.3.1 0 .3-.1.4-.1.5-.6 1.1-1.1 1.6-1.7.3-.3.5-.5.9-.2 0 .2 0 .5-.1.6-.7.7-1.4 1.4-2.1 2.2-.1.1-.2.2-.1.2 0 .1.2.2.2.2 1.3-.1 2.6.7 3.9 0 .1 0 .2 0 .3.1v.3c-.4.2-.9.6-1.3.6-1.1 0-2.2-.2-3.3-.3-.3 0-.8 0-1 .2-.5.4-.9 1-1.3 1.5-.1.1-.3.5.2.4.2 0 .4.1.6.1 1.1 0 2.2.6 3.4-.1.1 0 .2 0 .4.1 0 .1-.1.2-.1.3-.2.2-.5.5-.8.5-1 .1-2.1.3-3.1.1-1.5-.2-1.5-.3-2.5.7-.3.3-.7.7-1.1 1-.1.1-.2.1-.3.1.1.1.3.2.4.2.9 0 1.8.1 2.6.4.5.2 1 .2 1.6.2h.6c-.1.2-.2.4-.4.5-.1.1-.3.1-.5.1-1.5 0-3 0-4.4-.6-.1-.1-.3 0-.4.1-1.3 1.2-2.7 2.5-4 3.8-.3.3-.6.5-.9.8-1.1.9-2.2 1.7-3.4 2.6-.3.2-.3.4.1.5.5.2.9.4 1.4.5 1.2.2 2.4.4 3.6.5.9.1 1.8-.1 2.8-.1.1 0 .2.1.2.1-.1 0-.1.1-.2.1-.6.1-1.3.3-1.9.3-1.1 0-2.3-.1-3.4-.2-1-.1-2-.3-2.8-.9-.3-.2-.6-.2-.9 0-.4.4-.9.7-1.3 1.1-.2.2-.3.4-.5.6.3.2.6.5.9.6.5.1 1 0 1.6 0 .7 0 1.4-.1 2-.1s1.2.1 1.9.1c.8 0 1.5-.1 2.3-.1 1.3.1 2.3-.5 3.4-1.2.4-.3.9-.6 1.3-.8.1-.1.3-.1.3-.2.4-.5.8-1.1 1.2-1.7.5-.8 1.1-1.6 1.6-2.5.1-.1.1-.3.1-.4-.1 0-.1 0-.2.1-1.1.6-2.4.6-3.6.6-1.5 0-3 .3-4.4-.2-.1 0-.2-.1-.3-.2.1-.1.2-.4.3-.4 1.3-.1 2.7-.1 4-.1 1.1 0 2.2.2 3.3.2.3 0 .6-.1.8-.2.1 0 .3 0 .4-.1.5-.8 1-1.6 1.5-2.3s1-1.4 1.4-2.1c.1.1.1.2.2.3 0-.1.1-.3.1-.4-.1 0-.2 0-.3 0 .8-1.4 1.7-2.8 2.5-4.2.4-.6.8-1.2 1.2-1.8.1 0 .3 0 .4.1 0 0 0-.1.1-.2-.2 0-.3 0-.5 0 .1-.2.2-.4.4-.6.3-.3.1-.5-.2-.6-1.2-.3-2.4-.6-3.6-1 .1-.3.2-.5.4-.7.1 0 .3 0 .4.1h.2c-.1 0-.2 0-.4-.1-.1 0-.2 0-.2-.1.2-.2.5-.4.7-.5.1.1.2.1.3.2 0-.1.1-.1.1-.2-.1 0-.2-.1-.4-.1.4-.5.9-1 1.3-1.4.1.1.1.4.2.4.6.1.1.4.1.4-.4.4-.9.9-1.4 1.3-.1.1-.1.2-.2.3.1 0 .2 0 .3.1.5.1 1 .3 1.4.4.6.2 1.2.8 1.9.5.1 0 .2-.1.4-.1 0 0 0-.1-.1-.2-.5-.2-.6-.2-.7-.2m-21.4 82.8c.1.1.1.3.2.4.1-.1.1-.2.1-.3s0-.3 0-.4c-.1.1-.2.2-.3.2 0-.3 0-.6 0-1 0-.1 0-.1 0-.2 0 0 .1 0 .1.1.1 0 .2.1.2.1 0-.2 0-.4 0-.6-.1.1-.1.2-.2.2 0 0-.1-.1-.1-.1 0-.9 0-1.8 0-2.7 0-.3 0-.5 0-.8 0-.1-.1-.1-.2-.2 0 .1-.1.1-.1.2-.1 1.3-.2 2.6-.2 3.9-.1 2.3-.1 4.6-.1 7v10.4.4c0 .1.3.1.3.1.1-.1.3-.3.3-.5 0-.7 0-1.4 0-2.1 0-1.7.1-3.5.1-5.2 0-1.4-.2-2.7-.2-4.1 0-1.5 0-3.1 0-4.6 0-.1.1-.2.1-.2m35.9-83.9c-.6-.8-1.2-1.6-1.7-2.5-.2-.3-.6-.6-.1-.9 0 0 0-.1 0-.2-.1 0-.1 0-.2 0s-.2 0-.2.1c.1-.1.1-.1.2-.2 0-.1.1-.1.1-.2-.1 0-.2 0-.3 0s-.4.1-.4.1c-.4-.7-.8-1.3-1.2-2 0-.1-.1-.1-.1-.1 0 .1-.1.2-.1.2.1.4.2.9.5 1.2 1.2 1.8 2.2 3.8 3.2 5.8 1.4 2.7 2.9 5.4 4.3 8.1.7 1.3 1.3 2.5 2 3.8.9 1.6 1.7 3.1 2.6 4.7.3.5.8 1 1.2 1.5.1.1.4.2.6.1.6-.3.8-.9.4-1.6-.3-.7-.7-1.3-1-2-.7-1.4-1.3-2.9-2.1-4.3-.9-1.6-1.9-3-2.9-4.5-1.1-1.6-2.3-3.2-3.5-4.9-.1-.2-.3-.3 0-.5 0 0 0-.2 0-.3-.1 0-.2 0-.2 0-.1.2-.3.2-.4 0-.2-.5-.5-.9-.7-1.4.1-.1.2-.1.3-.2-.1 0-.1-.1-.1 0-.1 0-.1.1-.2.2m-7.2 47.2c.1.1.1.3.2.4.1-.2.1-.3.2-.5-.1 0-.2 0-.4 0 0-1.1.1-2.2.1-3.4 0-1.3.1-2.6.1-3.9 0-.8.1-1.7.2-2.5 0-.3.2-.5.5-.3.4.2.4.6.4 1 0 1.1-.2 2.3-.2 3.4 0 1.2-.2 2.3-.2 3.5 0 .6-.1 1.2-.2 1.8-.1 1.6-.1 3.3-.1 4.9v5.7c0 .3.1.7-.5.7-.1 0-.2.2-.3.2.1 0 .2.1.3.1 1.4-.1 2.8-.2 4.2-.2.1 0 .2-.2.2-.3.1-1.2.1-2.3.1-3.5 0-.1 0-.2 0-.2 0 .1.1.1.1.2.1.1.2.2.2.3 0-.1.1-.3.1-.4 0-.4 0-.8 0-1.2 0-.3-.1-.6-.1-.8-.1.3-.1.5-.2.8v.1.8c-.1-.3-.1-.5-.2-.8 0 0 0 0 0-.1 0-4.5-.1-8.9-.1-13.4 0-.9 0-1.9.1-2.8 0-.6-.2-.7-.7-.7-2 .1-4 .1-6 .1-.1 0-.2 0-.3 0-.1.1-.3.2-.3.4-.1 1.4-.3 2.9-.4 4.3-.1 1.5-.2 3.1-.2 4.6 0 1-.1 2-.1 3-.1 2.2-.2 4.4-.2 6.6v2c0 .4-.2.7-.3 1.1 0 .1.1.2.1.2 1.1.1 2.1.1 3.2.1.1 0 .2-.2.2-.3 0-.5-.1-1-.1-1.5 0-1.4.1-2.8.1-4.2 0-.6 0-1.3 0-1.9 0-.1 0-.2 0-.3 0 .1 0 .3.1.4s.1.3.2.4c0-.3.1-.6.1-.8 0-.1-.1-.2-.1-.3-.4.2-.3-.1-.3-.3 0-.7 0-1.4 0-2 .4-.2.5-.4.5-.5m-2.9-47.3c-.2 0-.4.1-.6.1.1.1.1.2.2.3.1-.1.3-.2.4-.4v.1c-.1.3-.3.7-.4 1-.5 1.1-1 2.1-1.5 3.2v.3h.2.4c2 0 4-.1 6-.1.1 0 .3-.1.4-.1l3-.6c.1 0 .3.1.4.3 0 0 0 .3-.1.3s-.3-.1-.4 0c-.1 0-.2 0-.3.1s-.2.3-.3.3c-1.1.2-2.1.5-3.2.6-2 .2-4 .2-6 .2-.6 0-.9.2-1.1.7-.9 1.7-1.9 3.5-2.8 5.2v.2c.3.1.6.1 1 .1.9-.1 1.8-.2 2.7-.2.6 0 1.2-.1 1.8-.1 1.6-.1 3.1-.3 4.7-.4 1.1-.1 2.2-.1 3.4-.1 1.5-.1 2.9-.2 4.4-.3.2 0 .4.1.6.2-.2.1-.4.4-.6.4-1.3.2-2.7.4-4 .5-2 .2-4 .3-6 .4-.7 0-1.4.1-2.2.1-.5 0-1 .1-1.6.1-1.4.2-2.8.2-4.2 0-.2 0-.6 0-.7.2-.7 1.1-1.3 2.2-2.3 3.1-.1.1 0 .2 0 .3h.2c.4-.1.8-.3 1.3-.3h7.2c2.1 0 4.3-.1 6.4-.1.8 0 1.6-.2 2.4-.3 1.1-.1 2.2-.2 3.3-.3.1 0 .2.1.3.2-.1.1-.2.2-.3.2-.8.1-1.7.2-2.5.4-1.7.2-3.5.7-5.2.7-4.2.1-8.4 0-12.6-.1-.1 0-.2 0-.2 0-.1 0-.3 0-.4.1-.3.4-.6.9-.8 1.3-.1.2 0 .6 0 .6.4.1.8.3 1.2.3.6 0 1.2-.2 1.8-.2h4.6c1.2 0 2.4-.1 3.6-.3 1.4-.3 2.9-.4 4.3-.8 1.5-.4 3-.5 4.5-.4.2 0 .3.2.5.2-.2.1-.3.2-.5.2-.6.1-1.3.1-1.9.1-.4 0-.8.1-1.2.2-1 .2-2 .5-3 .7-.8.2-1.7.2-2.5.4-1.3.4-2.7.3-4.1.4-.7.1-1.4-.1-2.1-.1-1.2 0-2.4.1-3.6.1-.6 0-1.2-.3-1.8-.4-.2 0-.5.1-.6.2s-.1.4 0 .5c.5.6 1.1 1.2 1.7 1.8.2.2.5.4.8.4 1.2-.1 2.3-.3 3.5-.3 2.4.1 4.7-.3 7-.5 1.9-.1 3.7-.1 5.6-.3 1.1-.1 2.1.3 3.2-.1.3-.1.6-.1 1-.1 1-.1 2-.3 2.8-.9.6-.4 1.2-.9 1.8-1.3.5-.3.5-.5.3-1-.7-1.1-1.4-2.3-2-3.4-1.5-2.7-3-5.5-4.4-8.3-.9-1.8-1.8-3.6-2.7-5.4-.6-1.2-1.3-2.4-1.9-3.6-.1-.1-.3-.2-.5-.2-.5.2-.9.5-1.5.7-1.1.4-2.2.9-3.5.4-.1 0-.2.1-.2.1-.1-.1-.2-.3-.3-.4 0 .1-.1.3-.1.4s.2.1.3.2.2.3.3.4 0 .3 0 .4c-.4-.1-.1.3-.2.3.2.1.3.2.4.1.2 0 .4-.2.6-.2.5-.1 1-.1 1.4-.1 1 0 2.1-.1 3.1-.1.1 0 .2.2.4.3-.1.1-.3.1-.4.2-.5.1-.9.1-1.4.1-1 .1-2 .3-3 .3-.4 0-.8-.1-1.2-.1-.1 0-.2.2-.3.3.2.2-.1.3-.2.4m12.2 88.3c-.2-1.1-.4-2.2-.7-3.3 0-.1-.2-.3-.2-.3-1 0-1.9 0-2.9 0-.2 0-.5 0-.7 0-.8 0-1.6-.1-2.5-.1-1 .1-1.9.3-2.9.4-.7 0-1.4-.1-2.1-.2-.3 0-.5 0-.5.4-.1 1.4-.3 2.7-.3 4.1-.1 1.8-.1 3.6-.1 5.3v.4c-.2 1.4-.3 2.7.4 4 .1.3.2.7.2 1 .1 1.6 0 3.3.1 4.9.1 1 .3 2 .4 2.9s.2 1.8.4 2.7c0 .2.2.4.4.4.6.1 1.3.2 1.9.2 1.4 0 2.8-.1 4.1-.1h.9c.3 0 .8.1.7-.5 0-.1.2-.2.3-.2.8-.2 1.7-.3 2.5-.5.3-.1.7-.5.7-.6-.1-.4.1-.6.3-.9.3-.4.6-.8.8-1.3.4-.9.2-2 1-2.7 0 0 0-.1 0-.2 0-1.3.1-2.6 0-3.9-.1-1.7-.3-3.4-.5-5.1-.1-1.2-.2-2.3-.2-3.5 0-.1-.1-.2-.1-.4 0 .1-.1.2-.1.3 0 .3-.1.6-.1.8-.1 1-.2 2.1-.2 3.1 0 .1-.1.2-.2.3-.1-.1-.2-.3-.2-.4-.1-1.6-.1-3.1-.1-4.7 0-.5 0-1 0-1.5.1-.7.3-1.3-.2-2-.1-.1-.1-.5.1-.6.4-.7.4-1.4.3-2.1 0-.2-.2-.5-.3-.5-.3 0-.7.1-1 .2v.3c.3 1.5.5 2.7.6 3.9m-56.8 4.2c-.3.4-.5.8-.8 1.1-.9 1.2-1.9 2.3-2.7 3.6-.5.8-.8 1.8-1.3 2.6-1.1 1.8-2.2 3.7-3.4 5.4-.7 1.1-1.6 2.1-2.7 2.9-1.3.8-2.5 1.7-3.9 2.4-1.1.6-2.2 1.3-3.5 1.5-1.1.2-2.2.5-3.3.8-1.7.4-3.3 1-5.1 1-.5 0-1 .1-1.6.2-1 .1-2 .4-2.9.4-1.2 0-2.5-.2-3.7-.2-.9 0-1.8 0-2.7 0-.7 0-1.4.1-2.1.1-1.3 0-2.5.1-3.8.1s-1.9.9-2.4 1.7c-.4.7-.4 1.6-.7 2.4-.3.7.2.7.6.7h.9.6c1.7.3 3.4.6 5.1.6.4 0 .9.2 1.3.2 1.3-.1 2.5-.3 3.8-.3 1.5 0 3-.3 4.4-.5 1.7-.2 3.3-.5 5-.6 2-.2 3.8-.9 5.6-1.6 1.7-.7 3.3-1.7 4.9-2.5 1.9-.9 3.6-2.2 5.2-3.5 1.5-1.2 2.8-2.7 4.3-4 1.6-1.4 2.8-3.2 4-4.9.7-1 1.2-2.2 1.9-3.2 1.6-2.2 2.9-4.7 4.1-7.1.7-1.5 1.4-3 2.2-4.5.6-1.3 1.4-2.6 2-3.8 1.1-2.1 2.1-4.2 3.3-6.1 1.1-1.7 2.3-3.4 3.6-4.9.8-1 1.8-1.8 2.8-2.7.7-.6 1.5-1.1 2.3-1.7 1-.8 2-1.6 3-2.4.8-.7 1.7-1.2 1.9-2.4.5-2 .6-3.9.3-6 0 0-.1-.1-.1 0-.6.3-1.1.6-1.6.9-1.1.9-2.2 1.8-3.3 2.7-1.2 1-2.5 2-3.4 3.3-1.5 2.1-3 4.2-4.4 6.4-1.8 2.9-3.7 5.8-5.4 8.7-1.6 2.7-3 5.4-4.5 8.1-1 1.8-2.2 3.4-3.6 4.9-.1 0-.2 0-.4 0 0 .1.1.1.2.2m10.2-31.3c-1.2.7-2.1 1.7-3 2.7-.7.8-1.5 1.4-2.1 2.3-1.2 1.6-2.2 3.2-3.3 4.8s-2.1 3.2-3.2 4.7c-1.3 2-2.7 4-4 6.1-1.5 2.3-2.9 4.6-4.3 6.9-1.1 1.9-2 3.8-3.1 5.7-.8 1.4-1.5 2.7-2.4 4s-1.8 2.6-2.8 3.8-2.2 2.3-3.3 3.3c-.4.4-.9.6-1.2.9-1.1 1.1-2.4 1.7-3.7 2.2-1.4.5-2.8.7-4.3 1-2.2.5-4.3 1.3-6.5 1.7-1.3.2-2.6.6-3.9.8-1.2.2-2.5.4-3.7.6-.1 0-.3.2-.4.4.1 0 .3.1.4.1 1.2-.1 2.4-.2 3.6-.2 2.4 0 4.8.2 7.2.2h3.3c.5 0 .9-.2 1.4-.2.8-.1 1.6-.2 2.4-.4.8-.1 1.6-.2 2.3-.3 1.1-.2 2.3-.6 3.4-.9 1.4-.3 2.8-.6 4-1.3 1.7-.9 3.3-1.8 4.8-2.9.6-.5 1.4-.9 1.8-1.5 1.2-1.7 2.4-3.4 3.5-5.1.4-.6.9-1.2.9-1.8.1-.8.4-1.3.7-1.9 1.4-2.5 2.9-5 4.4-7.5.9-1.6 1.8-3.2 2.7-4.7 1.1-1.8 2.3-3.6 3.4-5.3 1.1-1.6 2.1-3.3 3.3-4.8 1.1-1.3 2.1-2.6 2.9-4.1.9-1.7 2.1-3.3 3.5-4.7.9-.9 1.6-1.9 2.4-2.9 1-1.2 1.9-2.5 3-3.7 1.3-1.5 2.9-2.7 4.7-3.5.2-.1.3-.2.5-.3-.2 0-.4 0-.6 0-.1 0-.1 0-.2 0-.9-.2-1.7-.5-2.3-1.1-.7-.7-1.3-1.9-1.6-3-.3-1.3-.8-2.6-1.1-3.8-.2-.6-.6-.8-1.2-.9-.5-.1-.9-.2-1.3.2-.6.7-.8 1.6-.7 2.5.1.8.1 1.6 0 2.3-.2.8 0 1.5.5 2.1.2.2.4.7.9.4 0 0 .2.1.3.2 0 .1 0 .2-.1.3-.2.3-.5.5-.8.8-.1.2-.1.5-.3.6-1.7.7-2.8 2.2-4.2 3.3-.8.5-1.7 1.2-2.6 1.9m10-34.8c0 .1.1.2.1.3.1 1.5.3 3.1.4 4.7.1 1.5.1 3.1.1 4.6 0 .8.1.8.8.5.2-.1.3-.2.5-.2 1.4-.4 2.7-1 4.3-.9.6.1 1.3 0 1.9 0 .3 0 .3-.1.3-.3 0-.3 0-.6-.1-.9.1.3.1.6.2.9.1.2.1.4.5.3 1-.4 2-.9 3-1.2.6-.2.7-.6.7-1.1.1-2.3.2-4.6.2-6.9 0-.5 0-1.1 0-1.6 0-.6-.1-1.2-.6-1.6-.1-.1 0-.4 0-.4.5-.3 1.7.3 1.7.9v2.7c-.1 2.2-.2 4.4-.4 6.6v.9c0 .4-.2 1 0 1.3.7.9.3 1.8.3 2.7 0 .6-.1 1.2-.1 1.8-.1 2-.3 4-.3 6 0 .7.1 1.5.1 2.2 0 .6-.2 1.3-.2 1.9.1 1.7.2 3.3.2 5 0 .2.1.3 0 .5-.6 1.1 0 2.3-.2 3.4-.1.7.1 1.4.2 2.1v3.1c0 .4-.2.8-.2 1.3 0 0 .2.1.2.1h.4c-.1.2-.1.3-.2.4-.5.7-.5.7-.1 1.5s.7 1.6 1.1 2.4c.1.2.4.4.6.5.3.1.6.1.9.2h.3c0-.1-.1-.2-.1-.3-.5-1.1-1.2-2.1-1.3-3.4 0-.9-.8-1.7-.2-2.7 0 0 0-.1 0-.2-.6-.6-.4-1.3-.4-2 0-.6.1-1.2.1-1.7.1-2.5.2-5 .2-7.5 0-1.2-.1-2.3-.1-3.5 0-.7.1-1.4.1-2 0-1.6-.2-3.2-.2-4.8.3-2 .3-4 .3-6.1 0-.9.1-1.8.1-2.7.1-3.1.1-6.3.1-9.4 0-.5.2-.7.7-.6.2 0 .4.1.6.2.3.1.5.2.3.7-.2.4-.1.8-.1 1.3v5.7c0 1.5-.1 3-.2 4.5 0 .5.1.6.6.5.7-.2 1.4-.2 2.2-.3.3 0 .7.1 1 .1.1 0 .4-.3.4-.4-.1-.7-.2-1.5-.3-2.2-.1-.9-.3-1.8-.3-2.7 0-1 .3-1.9 1.3-2.3.4-.2.9-.4 1.4-.4 2-.2 3.9-.3 5.9-.4 1.7-.1 3.5-.2 5.2-.2h.2c.6 0 1.3-.1 1.9.1 1.1.3 1.5 1.4 1.7 2.3.4 1.5.5 3.2.2 4.8-.1.6 0 .7.6.7s1.3-.1 1.9 0c.7.1.7.1.7-.6 0-3.2-.1-6.3-.1-9.5 0-1 .1-2.1.1-3.1 0-.7.1-.7.7-.4.4.2.5.4.5.9v8.8c0 1.2.1 2.5.2 3.7 0 .1.2.2.2.3.5.1 1 .1 1.4.1.1 0 .3-.2.3-.4 0-.4-.1-.8-.1-1.1 0-1.7 0-3.4 0-5.1 0-.4.1-.8.1-1.3 0-.4-.1-.7-.1-1.1.2-1.6.4-3.2.7-4.7.1-.6.2-.9-.6-.8 0 0-.1 0-.2-.1-.6-.7-1.3-1.3-1.9-2-.1-.2-.3-.3-.4-.4-.2.2-.4.4-.5.6-.2.3-.2.7-.5.9-.7.6-1.3 1.3-2.3 1.3-.3 0-.6.1-.8.1-.8.1-1.7.4-2.5.4-1.5.1-3 .1-4.5.1s-3 0-4.5.2c-1.8.3-3.6.4-5.4.5-1.5.1-3 .1-4.6.1-.4 0-.9-.2-1.1-.5-.5-.5-.9-1.2-1.3-1.8-.2-.2-.4-.4-.5-.6-.2.2-.5.4-.6.6-.4.6-.8 1.3-1.2 2-.1.1-.4.3-.5.2-.9-.4-1.8-.6-2.5-1.3-.2-.2-.4-.2-.6 0-1 .5-2 .8-3.1.8-1.3 0-2.7 0-4 0-1.5 0-3 0-4.5 0-.2 0-.5 0-.7 0 .2.2.4.4.7.5 1 .4 1.4 1.1 1.3 2.1-.1 1.2-.2 2.4-.2 3.6v3.7c0 .8.1 1.7.1 2.5 0 1.3.1 2.7 0 4 0 1.1-.2 2.1-.4 3.1 0 .2-.1.4-.2.7v.4c.1-.1.2-.1.3-.2.4-.5.9-.9 1.3-1.4.1-.2.2-.4.3-.6.1-1.6.3-3.2.4-4.8 0-1.4-.1-2.7-.1-4.1 0-1.1-.1-2.2-.1-3.3 0-1.3-.1-2.6-.1-4 0-.4 0-.9.1-1.3 0-.2.3-.3.4-.5.1.2.4.3.4.5 0 1.1 0 2.3.1 3.5m58.9 27.7c0-.9.1-1.8.1-2.7 0-.5-.2-1-.1-1.4.1-.9-.3-1.4-.9-1.9-.1-.1-.2-.1-.3-.1v.3c0 .2-.1.5-.1.7 0 0-.1 0-.2 0v-.1c.2-.2.2-.4-.2-.4-.3 0-.5.1-.6.4-.1.2-.2.4-.2.6-.1.5-.4.5-.7.4-.4-.1-.7-.2-.6-.8.1-.8.7-1.4 1.3-1.8s.5-.7.4-1.2c-.2-.8-.5-1.5-.6-2.3-.2-1.1-.2-2.2-.3-3.3-.1-1.3-.3-2.6-.3-3.9-.1-2.2-.2-4.5-.2-6.7 0-.4.1-.7 0-1.1-.2-.7 0-1.3.2-2 .1-.2 0-.6-.1-.6-.4-.1-.8-.3-1.2-.2-1 .3-1.9.7-2.8 1-.2.1-.3.3-.3.5 0 .6.2 1.1.2 1.7.1 1.1.1 2.3.1 3.4 0 .4-.2.8-.5 1.1-.4.5-.9.9-1.3 1.5-.2.2-.5.5-.3.9 0 0-.2.3-.3.3-.6 0-1.2-.1-1.8-.1-1.1-.1-1.3.2-1 1.3v.2c0 1.7.1 3.3.1 5 0 1.1.1 2.2.1 3.3 0 .5.1 1 .1 1.6 0 .2 0 .6.4.5s.8-.4 1.3-.4c.9-.1 1.8-.1 2.4.7.4.5.6 1.2.6 1.8.1 1.4.1 2.8.1 4.3 0 .2.1.3.1.5.1.5.2 1.1.1 1.6 0 .7-.1.7.6.6.2 0 .4-.1.6-.1 1.6 0 3.3-.1 4.9-.1.3 0 .7-.1 1-.1.1 0 .3-.2.3-.3-.2-.9-.2-1.6-.1-2.6m-46.5-9.1c0-.9 0-1.8 0-2.7 0-.7.1-1.5.1-2.2 0-1 0-2 0-3 0-.6-.1-.7-.6-.7-.9.1-1.9 0-2.8 0-.3 0-.7-.1-.7.4 0 .1-.1.1-.1.2 0-.1 0-.2 0-.2.1-.3-.1-.4-.4-.4-1.5.4-3.1.8-4.6 1.2-.4.1-.8.1-1.2.1-.5 0-.9 0-1.4 0-.1 0-.2.1-.2.2-.1.6-.2 1.2-.2 1.8 0 0 .2.2.2.1.6-.2 1.1-.5 1.7-.8.9-.5 1.9-.6 2.8-.1 1.8 1.2 2.6 3 2.6 5.1 0 1.7-.2 3.5-.2 5.2-.1 1.3-.1 2.6-.1 3.9 0 .4.3.8.4 1.2.1.5.2 1.1.6 1.5.2.2.3.5.4.8.2.9.2.9 1 .7.2-.1.4-.2.6-.2.3-.1.6 0 .5.5-.1.4-.2.7-.6.6-.3 0-.6 0-.9 0-.2 0-.6.2-.6.3 0 .4-.2.4-.5.4s-.4 0-.2.3v.3c-.1.8-.2 1.6-.2 2.4 0 .3.1.5.1.8 0 .4-.1.8-.1 1.3 0 .9.2 1.1 1.2 1.1.2 0 .4-.1.4.3 0 .1.3.2.4.2.4.1.7.1 1.1.1.3 0 .7.1 1 .2.1 0 .2-.1.2-.2.1-.9.2-1.8.2-2.7 0-1.1 0-2.2 0-3.4 0-.9-.2-1.9-.2-2.8 0-.8.1-1.7.1-2.5 0-1.6.1-3.2.1-4.9.1-1.4.1-2.8.1-4.4m35.4-34.7c-1.3.4-2.5.8-3.8 1.1-.4.1-.4.2-.3.5.2.5.4.9.6 1.4.5 1.1.5 1 1.6.7 1.3-.4 2.6-.7 3.9-.9.6-.1 1.2 0 1.8.1.1 0 .2.2.3.3-.1 0-.3.1-.4.1-1 .2-2 .3-3 .6-.8.2-1.6.5-2.5.7s-.9.2-.5 1c.2.3.4.5.8.4l2.4-.6c1.3-.3 2.7-.6 4-.8.6-.1 1.2-.1 1.7-.1.1 0 .3.2.4.3-.1.1-.2.2-.3.2-.2.1-.4.2-.6.2-1.5.3-3 .6-4.6.9-.9.2-1.8.4-2.6.6-.1 0-.3.1-.4.2.1.1.2.1.3.2.3.2.7.3.9.6.7.7 1.6 1.1 2.6 1.2 1.4.1 2.7-.3 4-.5 1.1-.2 2.1-.5 3.2-.2.6.1 1.1-.1 1.5-.6.1-.2.1-.6 0-.7-.4-.5-.8-1-1.3-1.4-3.2-3.1-6.4-6.2-9.6-9.3-.6-.6-1.2-1.3-1.9-1.9-.9-.8-1.8-1.5-2.7-2.3-1-.9-2-1.9-2.9-2.8-.6-.6-1.3-.9-2.1-.8-1 .1-2 .4-2.9.6-.1 0-.2.1-.2.2 0 0 0 .1.1.1.6.1.6.6.8.9.6.9 1.3 1.9 2 2.8.1.1.4.2.5.2.7-.2 1.3-.6 2-.8s1.4-.3 2.1-.5c.1 0 .2.2.4.3-.1.1-.2.2-.3.2-.2.1-.5.1-.8.2-.9.4-1.8.8-2.8 1.2-.3.1-.5.2-.3.5.4.5.8 1.1 1.1 1.6.3.4.6.5 1.1.3s.9-.5 1.4-.6c.5-.2.9-.3 1.4-.3.2 0 .5.2.6.4.1.1-.1.4-.1.6 0 0-.1.1-.2.1 0-.1 0-.1 0-.2.1-.4-.1-.6-.5-.4-.9.4-1.8.8-2.7 1.3-.1 0-.1.3-.1.4.6 1 1.3 2 2 3.1.2.4.4.4.7.3.4-.1.8-.3 1.3-.4 1.3-.4 2.6-.8 3.9-.8.4 0 .9 0 1.3.1.2 0 .3.3.4.5-.1 0-.3-.1-.4-.1-.2 0-.4-.1-.6 0-.5-.5-1-.3-1.7-.2m-10.6 63c-.9 1.1-1.9 2.3-2.8 3.4-1.7 2-3 4.2-4.3 6.5-.1.1 0 .4.1.5h1s0-.4.1-.6.2-.4.3-.6c1.6-2.1 3.1-4.1 4.7-6.2.3-.4.8-.7.6-1.4 0-.1.4-.4.5-.4.3.3.5 0 .6-.2.7-.7 1.3-1.4 2-2.1.8-.9 1.7-1.9 2.4-2.9 1-1.4 1.9-2.8 2.7-4.3.3-.6.6-1.2.4-1.9-.1-.4-.2-.8-.2-1.3.1-2.3.1-4.6.1-7 0-.7-.1-1.4-.1-2-.1-1.2-.2-2.4-.2-3.6 0-1.3-.2-2.7-.3-4-.2-1.9-.2-3.8-.3-5.8 0-.9 0-1.7 0-2.6 0-.2-.1-.6-.3-.6-.5-.1-1-.1-1.5 0v.8.2c.1 1.7.3 3.3.4 5 .1 1.5.1 3 .1 4.6v4 .8c.1.8.2 1.5.2 2.3 0 1-.2 2-.2 3v2.5c0 1-.5 1.8-1.1 2.6-.3.4-.6.2-.6-.1-.1-.5 0-1 0-1.4 0-.6.1-1.2.2-1.8 0-.1-.1-.2-.1-.2 0 .1-.1.1-.1.2-.2.4-.3.8-.5 1.2 0 .1-.2.1-.3.2 0-.1-.1-.3 0-.3.4-.5-.2-.4-.4-.5s-.5-.1-.5.3c0 .2-.2.3-.3.5-.1.1-.2.1-.2.1.1 0 .2.1.2.1.1.1.2.2.2.4 0 0-.1.1-.1.1-.1 0-.2 0-.3 0l.3.3c.1.1 0 .2.1.3-.1 0-.3.1-.3 0-.2-.3-.3-.6-.4-.9-.1-.4-.1-.7-.1-1.1 0-.1-.3-.3-.4-.3-1.4.1-2.7.3-4.1.5-.4 0-.5.1-.5.5s0 .9-.1 1.3c0 .1-.3.3-.5.3s-.5-.2-.6-.4c-.1-.3-.1-.6-.2-1 0-.1-.2-.3-.3-.3-1.3.1-2.7-.4-3.9.5-.1 0-.2 0-.3 0-.4-.4-.9-.2-1.4-.2-.8 0-1.6-.1-2.4-.1-.1 0-.3.1-.3.2-.1.7-.1 1.3-.1 2v1c.3 0 .6-.1.8-.1h.6c1 0 2-.1 2.9-.1 1.6-.1 3.3-.2 4.9-.2 1.7 0 3.5.1 5.2.1h.2c1.3.3 2.6 0 3.9.2 0 0 .1 0 .1-.1.3-.4.6-.2.9 0 .2.1.4.3.6.4-.2.2-.4.5-.6.6s-.4.2-.6.2c-.4 0-.5.3-.5.6-.2 2-.8 3.7-2.1 5.2-.1.1-.1.3 0 .4.3.5.1 1.1-.5 1-.9-.1-1.2.4-1.6 1-.3.1-.5.4-.8.7m-3.9-29.7c0 1.5.1 2.9.1 4.4v3.1c0 .3-.1.7-.2 1 0 .1-.1.2-.2.3 0-.1 0-.3 0-.4 0-.2-.1-.3-.2-.5 0 .1-.1.3-.1.4 0 .3.1.6.1 1v3c0 .1 0 .1.1.2 0-.1 0-.1 0-.2.2-1.1 0-2.3.4-3.5 0-.1.1-.1.1-.2v.2c0 .8.1 1.6.1 2.4v2.7c0 .2 0 .4.3.3.7-.1 1.3-.2 2-.2.7-.1 1.5-.1 2.2-.1.3 0 .5-.1.4-.5-.1-.2-.1-.3-.1-.5 0-.6.1-1.2.1-1.8 0-.9-.1-1.7-.1-2.6 0-3.5-.1-7-.1-10.5 0-1.5-.1-3-.1-4.5 0-.4.2-.4.4-.3s.5.3.5.5c.2.5.5 1.1.5 1.7.1 2 .1 4 .1 5.9 0 1.3-.1 2.6-.1 3.9 0 1 .1 2 .1 3 0 .8-.1 1.6-.1 2.4 0 .3 0 .3-.2.2-.1 0-.2 0-.2.1s0 .2.1.2c.8.2.3.9.4 1.3.1.5 0 1 .1 1.5.1.2.4.4.7.6.1.1.2.1.3.2 0-.1 0-.2.1-.3.1-1.4.3-2.7.4-4.1s.2-2.8.2-4.2c.1-1 .2-2 .2-3 0-.8-.2-1.6-.2-2.4-.1-1.5-.2-3.1-.2-4.6 0-1-.1-2.1-.1-3.1 0-.3-.1-.4-.4-.5-.5 0-1.1-.2-1.6-.2-.7 0-1.5-.2-2.2.2-.3.2-.7.3-1 .5-.2.1-.3.1-.3-.2.1-.5-.1-.6-.6-.6-.3 0-.6 0-1 0-.7 0-.8.1-.6.8v.5c-.1 2.3-.1 4.3-.1 6.5m-9.2 24.8c-.1.1-.1.3-.2.4-.1-.2-.1-.3-.2-.5 0-.1 0-.3 0-.4s0-.2-.1-.2c-.1.1-.1.2-.2.2v.8c-.1.6-.2 1.1-.2 1.7 0 .1.1.3.2.3 1 .1 2 .1 3 .1s2-.1 3-.2 2-.2 3-.2c1.7-.1 3.3-.2 5-.4.3 0 .7-.2.9-.4 1.2-1.2 2.1-2.6 2.6-4.3.2-.8.2-.8-.6-.9-1.6-.2-3.2-.4-4.8-.5-1.5-.1-3 .1-4.6.1-.7 0-1.4.1-2 .1-1.5.1-3 .2-4.5.2-1.7 0-1.7 0-1.6 1.7 0 .2.2.4.3.5.2.2.4.3.6.5 0 0 .1 0 .2-.1s.2-.3.3-.4c0 .2.1.3.1.5 0 .5-.1.9-.2 1.4m-2.5-36.3c.2 1 .4 2 .5 3 .1.4.2.7.6.6.8-.1 1.6-.2 2.4-.2 1.3-.1 2.6-.1 4-.1h2.2c.3 0 .8-.2.9-.5.2-.5.4-.4.7-.1.2.2.4.5.6.5.6 0 1.3 0 1.9-.1.1 0 .2-.2.2-.3-.5-.5 0-.6.3-.8.2-.1.3-.3.4-.4 0-.5 0-1.1 0-1.6.1-1.4-.5-2.6-1.2-3.7-.1-.2-.3-.4-.6-.4-1.4-.2-2.7 0-4.1.2-.6.1-1.2 0-1.8 0-.5 0-1.1-.1-1.6-.1-1.4.1-2.9.3-4.3.5-.4 0-.7.1-.9.6-.3.9-.2 1.8-.2 2.9m-27.3 19.5c.1.8.2 1.7.2 2.5 0 .2.1.4.1.5l.3.3c.1-.1.1-.2.2-.4 0-.5 0-.9 0-1.4.1-.7.2-1.4.2-2.1 0-.4 0-.9 0-1.3 0-.9 0-1.8.1-2.6.2-.9 1.3-1.8 2.1-1.6.4.1.9.2 1.3.4.9.4 1.5.9 1.8 1.9.5 1.9.9 3.8 1.9 5.5.4.7 1.6 1.3 2.4.9.1 0 .2-.1.3-.1-.1-.1-.2-.1-.3-.1-.2-.1-.3-.2-.5-.3.2-.1.3-.2.5-.2.3 0 .7 0 .8-.4.1-.8.3-1.6.4-2.4.1-2.4.1-4.8.1-7.3 0-1.2-.3-2.3-1-3.2-.2-.2-.5-.4-.8-.6-.7-.3-1.3-.1-1.9.2-1.3.7-2.8 1.1-3.8 2.3-.5.6-1.2 1.1-1.8 1.6-1.1 1-2.2 2-3.2 3-.2.2-.1.4 0 .7.3.7.9 1.3.6 2.3-.2.6 0 1.2 0 1.9m51.9 23.7c.4-.2.7-.4 1.1-.6 1-.5 2-1 3-1.5.2-.1.4-.4.3-.5-.2-1.2-.3-2.4-.7-3.6-.5-1.7-.6-3.4-.6-5.1 0-.3 0-.7 0-1-.3 0-.6.1-.8.1-.6 0-1.2-.1-1.5.6 0 .1-.2.1-.4.2 0-.1 0-.3 0-.4s0-.2-.1-.3c-.1 0-.3-.1-.3 0-.1 0-.1.2-.1.3 0 .3 0 .5.1.8.3 1-.1 1.8-.6 2.5-.6 1-1.3 2-2 3-1.1 1.7-2.3 3.2-3.7 4.6-.7.7-1.4 1.4-2.1 2.1-.2.2-.3.4-.3.6 0 .7.1 1.3.2 2 0 .1.2.3.2.4 0-.1.1-.2.1-.3 0-.2.1-.4.1-.6 0 0 .1-.1.2-.1.1.3.3.6.4.9-.1 0-.3.1-.3.1-.2.3-.4.6-.8.6 0 0-.1.2-.1.3v.5.5c.1-.1.3-.1.4-.2 1.1-.9 2.1-1.8 3.3-2.6 1.7-1.2 3.4-2.2 5-3.3m-19.5 5.4c.5.8.9 1.5 1.4 2.3.1.1.1.2.2.3.1-.1.3-.2.4-.3.5-.9 1-1.9 1.6-2.8 1.7-2.8 3.7-5.4 6-7.8.2-.2.3-.4.5-.7-.3 0-.5 0-.8 0-2 .1-4 .2-6 .4-.5 0-1 .1-1.6.1-.5 0-1 .1-1.4.1-1.1 0-2.3-.1-3.4-.2-.4 0-.4.1-.2.4s.2.6.2 1c0 1.1-.4 2.3.6 3.2.1.1.1.4.2.6 0 .1 0 .3.1.4.6.9 1.4 1.9 2.2 3m-3.2-38.7c.1-.8.1-1.6.2-2.3.1-.6.1-1.3.2-1.9.2-1 0-1.2-1-1.2-.1 0-.2 0-.2 0-.5 0-.6.1-.5.6.1.3 0 .7-.2.9s-.7.2-1 .2c-.2 0-.2-.5-.3-.7s-.1-.4-.1-.5-.1-.2-.2-.2c0 .1-.1.2-.1.3 0 .8.1 1.5.1 2.3v3c0 .8-.1 1.6-.1 2.5v7.2c0 .2-.2.4-.1.5.3.4-.7.8 0 1.2-.1.1-.2.1-.2.2-.1.1-.1.2-.1.3 0 0 .1.1.2.1.2 0 .2 0 .2.1v3.8c0 .1.2.4.2.4h2.2c.1 0 .2-.1.2-.2.1-1.1.3-2.3.4-3.4.1-2.1.1-4.3.1-6.4 0-.7 0-1.5 0-2.2 0-1.8 0-3.2.1-4.6m-4-1.9c0-.8 0-1.6 0-2.4s0-.8-.8-.9c-.1 0-.2-.1-.3-.1-.6.1-1.3.2-1.9.4-.1 0 0 .6.1.9v.1c.1 2.1.2 4.3.2 6.4.1 2.4.1 4.8.1 7.2 0 1.1-.1 2.2-.1 3.2v3.8c0 .1.1.3.2.3.6-.1 1.2-.1 1.8-.2.2 0 .4-.2.4-.4.1-1.4.2-2.8.3-4.2 0-1.2 0-2.5 0-3.7 0-.6.1-1.2.1-1.9-.1-2.7-.1-5.6-.1-8.5m46.9 51.8c-.3-1.8-.7-3.5-1-5.3 0-.2-.3-.6-.4-.6-1.1.1-2.3.3-3.4.6-1.5.3-2.9.6-4.4 1-.4.1-1 0-.9.7s.3 1.4.4 2.1c.2 1.1.4 2.3.6 3.4.1.4.2.5.6.4 2.6-.6 5.2-1.6 7.9-1.8.1 0 .8.3.6-.5m-11.7-11.3c1.8-.7 3.7-1.1 5.7-1.2.9 0 1.8-.2 2.7-.4.1 0 .3-.2.3-.3-.3-1.6-.6-3.2-.9-4.8-.1-.3-.2-.6-.6-.5-.3.1-.5.1-.8.1-1.6.1-3.2.2-4.8.2-1.1 0-2.1.3-2.9 1.1-.2.2-.3.3-.2.6.3 1.1.6 2.2.9 3.2.2.8.3 1.4.6 2m12.8 16.6c-.1-.4-.2-.8-.2-1.2 0-.6-.7-1.2-.1-1.8v-.1c-.5 0-.2-.4-.3-.6s-.3-.5-.4-.5c-1.5.3-3 .7-4.4 1.1-1.2.3-2.5.6-3.7 1-.3.1-.7 0-.6.6.2.9.2 1.8.4 2.7.1.6.2 1.3.4 1.9 0 .1.3.3.4.3.4-.1.8-.3 1.3-.4 2.1-.5 4.2-1 6.3-1.5 1.4-.3 1.5-.2 1.3-1.4-.3 0-.3 0-.4-.1m-3.8-17c0-.3-.1-.5-.4-.4-1.2.5-2.5.5-3.8.7-1.5.3-3 .5-4.4.9-.1 0-.3.3-.3.4.4 1.6.8 3.3 1.1 4.9.1.4.3.3.5.3.7-.2 1.3-.4 2-.6 1.9-.3 3.8-.6 5.6-.8.8-.1 1-.3.8-1-.3-1.5-.7-2.9-1.1-4.4m-45.7-2.4c.2.1.4.2.7.3.7.4 1.4.8 2.2 1.1.1.1.3.1.5.1 0-.1-.1-.2-.1-.2-1.5-1.7-3-3.3-4.4-5-.7-.9-1.4-1.8-2.1-2.7-.1-.2-.4-.3-.6-.3-.8 0-1.6.1-2.3.1-1.6-.1-3.2-.2-4.8-.3-.2 0-.5.1-.5.2 0 .2.1.5.2.7.1.1.2.1.3.2 1 .5 2.1 1 3.1 1.6 1.5.9 3 1.8 4.5 2.6 1 .5 2.1 1 3.3 1.6m41.3-13.4c.5 0 1 0 1.4.2.5.2.4 0 .4-.3-.1-1.1-.2-2.3-.4-3.4-.1-.8-.2-1.5-.2-2.3 0-.1-.1-.2-.2-.4 0 0-.1 0-.2 0 0 .1.1.2 0 .4 0 .5.1 1.1-.1 1.3-.6.5-1.3.8-2 1.1-.1.1-.4-.2-.6-.3.1-.1.2-.2.3-.2.1-.1.2-.2.3-.3-.1 0-.2-.1-.3-.1s-.3 0-.4.1c-.6.1-1.1.4-1.7.1-.2-.1-.6-.2-.9-.1-1 .1-2.1.3-3.1.3-.4 0-.4.2-.4.5 0 1.1-.1 2.2-.1 3.2 0 .3 0 .4.4.3 1.2-.2 2.4-.3 3.6-.4.8 0 1.7.1 2.5.1.1 0 .4-.1.4-.2.1-.3.1-.6.1-1 0-.2-.1-.3-.1-.5-.1.1-.2.2-.3.4-.1.1-.2.2-.2.2-.1-.1-.2-.3-.2-.3.3-.5.6-.9.9-1.3 0 0 .2 0 .2.1.6.5.9 1.8.6 2.5.1.1.2.2.3.3m-29.8-75.3c-.4-.3-.8-.6-1.1-1-.3-.3-.4-.1-.5.1-.1.1-.2.2-.3.3-.1-.2-.3-.3-.4-.5 0-.1 0-.1-.1-.2 0 0-.1.1-.1.1-.4 1.1-1.4 1.5-2.3 2.1-.1.1-.2.1-.2.1 0-.1 0-.2 0-.3s0-.3 0-.4h-.1c-.1.1-.1.3-.2.4v.3c0 .1 0 .3-.1.3-.5.4-1 .7-1.4 1-.5.4-1 .7-1.5 1.1-.2.2-.2.5-.5.1h-.1v.2c.2.5.8.6 1.2.2.4-.3.9-.7 1.3-1.1.3-.3.4 0 .6.1.6.4 1.2.8 1.8 1.2.1.1.2 0 .4 0 1.2 0 2.4-.1 3.7-.1.7 0 .7 0 .6-.7 0-.1.2-.4.3-.4.4.1.8.3 1.1.5.7.5.9.5 1.6-.1.3-.2.4-.5-.1-.6-.2-.1-.4-.2-.6-.4-1.1-.6-2-1.4-3-2.3m-23.6 77c-.7.5-1.3 1.1-2 1.6-.4.3-.4.5-.2.9.2.3.5.5.5.8 0 .8.6 1.1 1 1.6.1.1.3.1.4.2 0-.1 0-.3 0-.4-.2-.7 0-.9.7-.9.6 0 1.3.1 1.9.1h4.9c1 0 1.1 0 .7-1-.4-.9-.4-2.1-1.8-2.1-.7 0-1.4-.4-2.1-.3-.5 0-.9 0-1.4-.1s-1-.1-1.5-.3c-.5-.4-.8-.6-1.1-.1m40.9-12.1c0 .7.1 1.4.1 2 0 1.1-.1 2.1-.1 3.2 0 .7.1 1.3.1 2 0 .2-.1.5-.3.6-.3.2-.6.2-.9.4.3 0 .7-.1 1-.1.7 0 1.5.1 2.2.1.3 0 .5 0 .5-.4 0-.8 0-1.6 0-2.4 0-.7-.1-1.4-.1-2.1 0-.9 0-1.8 0-2.7-.1-1.3-.1-2.6-.2-3.9 0-.5-.1-.9-.3-1.3s-.6-.8-.9-.9c-.3 0-.7.5-.9.8-.2.5-.3 1.1-.3 1.6 0 1.1 0 2.1.1 3.1m11.7 49.3c0 .3.1.6.1.8 0 .3.1.3.4.3.4-.1.8-.2 1.2-.4 2-.6 4-1.1 6-1.7.7-.2 1.4-.7 2.1-1.1.1-.1.2-.3.2-.4-.1-.5-.3-1-.4-1.4-.1-.2-.2-.2-.5-.2-2.5.7-5 1.3-7.5 2-1.6.4-1.6.4-1.6 2.1m-3.5-33.7c1.2-1.1 2-2.3 2.8-3.7.3-.5.2-.7-.4-.7-.3 0-.7 0-1 0-.5 0-1.1-.1-1.6-.1-1 0-2.1 0-3.1 0-.2 0-.4-.1-.4 0-.1.1-.1.3-.1.5.1.7.3 1.5.4 2.2.2 1.2.4 2.4.6 3.6.1.3.3.4.5.2.8-.6 1.5-1.3 2.3-2m-37.2-.3c.3.5.6 1.1 1 1.6.1.2.4.6.6-.1 0-.1.3-.3.4-.3.5 0 1 .1 1.5 0 .1 0 .2-.2.2-.3-.1-1.4-.2-2.9-.3-4.3 0-.4 0-.8 0-1.1s0-.4-.3-.4c-.6 0-1.1 0-1.7-.1s-1.1-.1-1.7.3c-.2.1-.5.2-.7.4-.1.1-.3.3-.2.4.3 1.3.4 2.6 1.2 3.9m-6.7 6.6c.7.6 1.4 1.1 2.1 1.7.1 0 .1.1.1.2-.1 0-.1 0-.2-.1-.5-.3-.9-.5-1.4-.8-.1-.1-.2-.1-.4-.2.1.2.1.4.2.4 1.7 1.1 3.4 2.3 5.2 3.1 1.7.8 3.5 1.5 5.1 2.3.3.2.5.1.4-.3-.1-.5-.2-.9-.3-1.4 0-.1-.2-.2-.3-.3-.7-.4-1.5-.9-2.2-1.2-1-.5-1.9-1.2-3.2-1.2-.3 0-.6-.2-.9-.4-1.1-.7-2.2-1.4-3.4-2.2-.6-.4-1.2-.7-1.8-1.1-.1 0-.2 0-.3 0 0 .1.1.2.1.3.4.5.8.9 1.2 1.2m11.5-13.5c0-.2 0-.4 0-.6 0-.6.2-1.4-.1-1.7-.4-.3-1.1-.1-1.7-.1-.1 0-.1 0-.2 0-.1.1-.3.3-.4.4-.1.3-.2.6-.2.6-.2 0-.6-.1-.6-.3-.2-.4-.3-.3-.6-.3-.5.1-1.1.4-1.6 0 0 0-.3.1-.3.1v1.6c0 .4.1.9.4 1.1s.8-.1 1.2-.1c1.1 0 2.3.1 3.4.1.7.1.8.2.7-.8m36.3 7.9c-.6.6-1.2 1.2-1.8 1.8-.2.2-.4.2-.6.4-.1.1-.2.1-.3.2.1.1.2.2.4.1.4 0 .8-.1 1.1-.1h3.9c.5 0 .7-.2.6-.6-.2-1.2-.4-2.4-.6-3.5 0-.2-.1-.4-.1-.5-.2.1-.5.2-.6.4-.7.5-1.3 1.1-2 1.8m-24.5 10.7c-.5.7-.9 1.3-1.4 2-.1.1-.2.3-.3.4.2.1.4.2.6.2h1.4c.1 0 .3-.1.4 0 .7.6 1.5.2 2.3.2.1 0 .2-.1.2-.2 0-.4.1-.8-.3-1.1s-.6-.7-.5-1.2c.1-1 .2-1.9.2-2.9 0-.2-.1-.3-.1-.5-.1.1-.3.1-.4.3-.7.9-1.4 1.8-2.1 2.8m25-12.4c.4-.4.9-.7 1.3-1.1.5-.4.8-1.2.6-1.8 0-.1-.2-.2-.3-.2-.6-.1-1.2-.1-1.8-.1-.1 0-.3.2-.4.3-.1.3-.1.7-.3 1-1.2 2.5-3 4.6-5.3 6.2-.2.1-.3.3-.4.4h.7s.1-.1.1-.1c.4-.3.8-.7 1.3-1 1.5-1.2 3-2.4 4.5-3.6m-40.4 4.5c-.2-.3-.4-.5-.5-.8-.4-1.1-1.4-1.2-2.4-1.3-.4 0-.4.2-.3.5.2.3.4.6.6.9 1.8 2 3.6 4 5.5 6.1.1.1.2.1.3.1s.1-.2.1-.3 0-.3-.1-.4c-.1-.4-.1-1-.3-1.3-.8-1.2-1.8-2.3-2.9-3.5m30.5-44.9c-.2-.6.1-1.1.6-1.4 1.6-.9 3.2-1.6 5.1-1.2.1 0 .3 0 .4-.1-.1-.1-.2-.2-.3-.3-.6-.3-1.3-.5-1.8-.7-.7-.3-1.2-.2-1.8.2-.6.5-1.3.9-2.2 1-.6 0-1.3.2-1.7.8-.3.4-.4 1-.1 1.5.3.6.9.6 1.5.7.3 0 .4-.2.3-.5m-53.7-10.2c.2-.1.3-.3.5-.4.9-.8 1.9-1.5 2.8-2.3 1.2-1 2.4-2 3.6-3 .9-.8 1.7-1.6 2.5-2.4.1-.1.1-.2.2-.3-.1 0-.3 0-.4.1-.8.7-1.6 1.4-2.4 2.1-.9.8-1.9 1.5-2.8 2.3-1.2 1-2.5 2-3.7 3.1-.9.8-1.8 1.6-2.7 2.5-.1.1-.1.1-.2.2h.2c.9-.8 1.6-1.3 2.4-1.9m55.1 56.6c-.5.2-1 .4-1.5.7-1.8 1-3.6 2-5.3 3.2-1.5 1-2.9 2.2-4.3 3.3-.1.1-.1.3-.1.4.2 0 .4.1.5.1 1.6-1.3 3.2-2.5 4.8-3.8s3.3-2.4 5.3-3.2c.3-.1.6-.3.9-.4.1 0 .1-.2.2-.3-.2-.1-.3-.1-.5 0m3.8-15.8c1.1 0 2.3.1 3.4.1.2 0 .5 0 .6-.2s0-.5 0-.7c-.2 0-.4 0-.6 0-.1 0-.2 0-.2 0-.9 0-1.8.1-2.8.1-1.2.1-2.4.2-3.6.2-.4 0-.4.2-.4.5 0 .4.2.4.5.4 1.1-.1 2.1-.2 3.1-.4m-33.2 13.2c-.4 0-.8-.2-1.1-.1-.4.3-.4.2-.6-.2-.1-.2-.3-.2-.4-.4 0 .2 0 .4.1.6.7.9 1.4 1.9 2.1 2.8 0 .1.1.1.2.1 0-.1.1-.1.1-.2 0-.6-.1-1.3-.2-1.9 0-.2-.1-.4-.2-.7m-23.8.8c0 .4 0 .7.1 1.1 0 .3-.1.6.1.8.1.2.4.4.7.5 0-.2.1-.4.1-.6 0-.5 0-1.1 0-1.6 0-.3 0-.7 0-1-.4.2-.6.5-1 .8m64.7-56.5c-.3-.4-.7-.8-1-1.2-.1-.1-.3-.2-.5-.2 0 .2 0 .3.1.5.2.4.4.8.6 1.1.3.5.6 1 .9 1.5.1.1.3.1.4.2 0-.2.1-.4.1-.5-.2-.5-.4-.8-.6-1.4m-12.3 16.5c-.1.1-.3.1-.4.2-.3.3-.5.7-.9 1-.5.4-1.1.8-1.7 1.2-.1.1-.2.1-.2.2 0 0 .1.1.1.1.5-.1 1 0 1.4-.2.7-.6 1.4-1.4 1.7-2.5m-25.6 51.3h1.4.2c-.1-.1-.1-.2-.2-.3-.2-.1-.5-.2-.6-.4-.3-.3-.5-.6-.7-.9-.1-.1-.2-.1-.3-.1 0 .1.1.2.1.3 0 .2-.1.4-.1.6 0 .3 0 .5.2.8m-31.6-61.9c.9.3 1.4-.4 2-.8.1 0 0-.3-.1-.4 0-.1-.2-.1-.3-.1-.6.3-1.1.7-1.7 1.1 0 0 0 .1.1.2m18.4-18c-.5.5-1 1-1.5 1.5-.2.2-.3.4-.4.6.2-.1.5-.2.7-.3.1 0 .1-.1.1-.1.4-.5.9-1 1.3-1.5 0 0 0-.2-.2-.2m-6 4c.4-.2.7-.5 1.1-.7.1-.1 0-.3.1-.4-.1 0-.2.1-.3.1-.4.4-.8.7-1.3 1.1-.1.1-.2.2-.3.4 0 0 .1.1.1.1.1-.1.3-.2.4-.3s.1-.1.2-.3m26.9 39.2v.3.3h.2c.1-.1.1-.2.1-.3 0-.2 0-.4 0-.6 0-.1.1-.2.2-.2 0 .1.1.2.1.2v1 .3c0-.1.1-.2.1-.3 0-.5 0-1.1 0-1.6 0 0-.1-.1-.1-.1-.2.3-.8.4-.6 1m6.8 4.7c0 .5.1 1 .1 1.5 0 .2.1.4.1.6.1-.2.2-.4.3-.6 0-.1 0-.2 0-.3 0-.4-.1-.9-.1-1.3 0-.1-.1-.1-.1-.2-.2.1-.3.1-.3.3m-11.7-.5c0 .6-.1 1.3-.1 1.9 0 .1.1.1.2.2 0-.1.1-.1.1-.2 0-.6.1-1.2.1-1.8 0 0-.2-.1-.3-.1m11.9 4.5c.2-.4.1-.8-.2-1.1-.1-.1-.2-.1-.3-.1 0 .4.1.9.1 1.3.1 0 .3 0 .4-.1m-6.7-6.2c0-.4 0-.8 0-1.2 0 0-.1-.1-.1-.1 0 .1-.1.1-.1.2v1.4c0 .2.1.5.2.7 0-.4 0-.6 0-1m-8.4-50.5c0-.3.1-.7.1-1 0 0-.1-.1-.1-.2 0 .1-.1.1-.1.2 0 .3.1.6-.3.7-.1 0-.1.4-.1.5.1 0 .3-.1.5-.2m3.5 49.1c0-.2 0-.3 0-.5 0-.1 0-.1-.1-.2 0 0-.1.1-.1.1v1.5c0 .1.1.1.2.1 0-.1.1-.2.1-.2 0-.2-.1-.4-.1-.8m-30.8 57.5c0-.1 0-.2 0-.3s-.1-.2-.1-.4c-.1.1-.2.3-.2.4s.1.3.1.4c0 .3.1.6.1.9 0-.2.1-.6.1-1m17.7-89.8c0-.1 0-.2 0-.3-.2.3-.5.7-.7 1 0 .1 0 .2.1.3.1-.1.2-.1.3-.2 0-.3.2-.5.3-.8m-17.3 77.1h.2c.1-.4.1-.8.1-1.2 0-.1-.1-.1-.2-.2-.1.1-.2.1-.2.2.1.4.1.7.1 1.2m41.6-38.7c0-.4 0-.9 0-1.3 0 0-.1 0-.2 0 .1.4.1.9.2 1.3m-6.6 1.1c.1.2.1.3.2.5 0-.2.1-.3.1-.5 0-.1 0-.2 0-.3 0-.2 0-.4 0-.6-.1 0-.1 0-.2 0-.1.2-.1.4-.2.6.1.1.1.1.1.3m.2 1.3c.1 0 .2-.1.4-.1h.3c0-.2-.1-.4-.1-.5-.1 0-.3 0-.3.1-.2.1-.3.2-.3.5m-8.6-56.6c0-.1 0-.2-.1-.3 0-.1-.1-.2-.2-.2s-.2.1-.3.2c0 .1.1.2.1.3.1.1.2.1.2.2.1.2.1.4.1.5 0-.2.1-.4.1-.5.2 0 .1-.1.1-.2m8.4 50.7v.2c0 .3.1.5.2.8.1-.2.1-.4.2-.6 0-.1 0-.2 0-.3-.1-.1-.2-.1-.4-.1m-4.8-5.5c0 .1.1.3.1.4h.1c.1-.2.1-.5.1-.7 0-.1-.1-.2-.1-.4-.1.1-.2.2-.2.3zm5.6 5.3c0-.4 0-.7 0-1.1 0-.1-.1-.1-.2-.2 0 .1-.1.1-.1.2v1.1c0 .1.2.1.3 0m-10.3 43v.2c.1 0 .3-.1.3-.1 0-.2 0-.4-.1-.6 0-.1 0-.2-.1-.3-.1 0-.2.1-.2.1v.4c0 .1.1.2.1.3m-26.6-39.2h.3c.1 0 .1-.2.2-.2-.2-.1-.4-.2-.6-.3 0 .1 0 .2.1.5m31.3 2.1c.1 0 .2-.1.2-.1 0-.5 0-1 0-1.5 0-.1-.1-.2-.1-.2-.1.1-.1.2-.1.2-.1.6-.1 1.1 0 1.6m-5.8-57.9c-.1.2-.1.5-.2.7.2-.1.3-.1.4-.3.2-.1 0-.3-.2-.4m-9.8 5.1c.1-.1.2-.1.2-.2.1-.2.2-.3.3-.5-.2.1-.4.1-.5.3-.3.2-.3.3 0 .4m22.4 55.2c.1-.5-.3-.1-.4-.2 0 0-.1 0-.2 0 0 .1.1.3.1.3.2.1.3 0 .5-.1m4.4-9c0 .1-.1.2-.1.2 0 .1.1.3.1.4.1-.1.2-.2.3-.3-.2-.1.2-.5-.3-.3m-26.1-46.3c-.2.1-.4.2-.6.3v.2c.1.1.7-.3.6-.5m26.4 47.4c.1.1.1.2.2.2.1-.1.2-.3.2-.4s-.2-.3-.3-.4c0 .1-.1.2-.1.3zm-.1.9c0-.1-.1-.2-.1-.3 0 .1-.1.2-.1.2v.4c0 .1 0 .3.1.4.1-.1.1-.3.2-.4 0 0-.1-.1-.1-.3m-26.8-16.7c.1 0 .2-.1.3-.1l.2-.2c-.2 0-.5 0-.7 0 .1.1.1.2.2.3m20.8 22c-.1.1-.2.1-.2.2-.1.1-.2.2-.2.3.2 0 .4.1.4 0 .1-.2.1-.4 0-.5m5.6-53.3c.1 0 .2-.1.3-.1-.1-.1-.2-.1-.3-.1-.2 0-.4 0-.6 0 .2 0 .3.1.6.2m-61.3 71.6c.2-.2.4-.3.7-.5 0 0 0-.1-.1-.1-.2.2-.4.3-.6.5zm26.5-66.5c-.1.1-.2.2-.2.4.1 0 .3.1.3 0 .1-.1.2-.2.3-.3-.2-.1-.3-.2-.4-.1m16.4-7.4c-.1 0-.1 0-.2.1s-.2.1-.3.2c0 .1.1.1.1.2.2-.1.4-.2.6-.4-.1-.1-.1-.1-.2-.1m2.9.1c.1-.1.1-.2.2-.3-.1-.1-.2-.1-.4-.1-.1 0-.2.1-.2.2.1 0 .3.1.4.2m-24.1 79.8c0 .1.1.2.1.4 0-.1 0-.3 0-.4 0 0-.1-.1-.1-.1 0-.2 0-.4 0-.7.1.2 0 .5 0 .8m39.6 1.7c0 .2.1.4.1.5 0-.2.1-.4.1-.5s0-.2 0-.3-.1-.1-.2-.1zm-41.2 1.4c.1.1.1.2.2.3.1-.1.1-.2.1-.3s-.1-.3-.1-.4c0 .1-.1.2-.2.4m35.2-39.5c-.1 0-.2 0-.2 0 0 .1 0 .4.1.4.1.1.3 0 .5 0-.1-.1-.2-.2-.4-.2.1 0 .1-.1 0-.2m-9.2 12.1c0 .2-.1.5-.1.7h.1c0-.2.1-.4.1-.7 0-.1 0-.2 0-.3s-.1-.1-.1-.2c.1.2.1.3 0 .5m-31.7-36.5c.1-.1.1-.2.2-.3-.1 0-.2-.1-.2 0-.1.1-.3.2-.4.4.1-.1.2-.1.4-.1m68 25.8c-.1-.1-.1-.3-.2-.4 0 .1-.1.3-.1.4v.3c0 .1.1.1.2.1.1-.1.1-.2.1-.4m-22-37.5c.2-.1.3-.1.5-.2-.1 0-.1-.1-.2-.1-.1.2-.5-.2-.3.3m-38.7 77.6c0 .1.1.1.1.2 0-.1 0-.1 0-.2 0-.4 0-.7 0-1.1-.1.3-.1.7-.1 1.1m28.7-33.1c-.1.1-.2.1-.3.2.1.1.2.3.3.4 0-.1.1-.2.1-.3s0-.1-.1-.3m12.6 5.2c0-.1.1-.2.1-.4-.1 0-.2-.1-.4-.1.1.2.2.3.3.5m-37.3-48.9c.1-.1.2-.2.4-.3 0 0-.1-.1-.1-.2-.1.2-.2.3-.3.5m7.2-2.9c.1 0 .1-.1.2-.1-.1 0-.3-.1-.4-.1s-.2.1-.3.2c.1-.1.2-.1.5 0m-11.2 78.4c.4.2.2-.2.2-.3s-.1-.2-.1-.2c-.1.1-.1.2-.1.5m28.9-33.3v.6h.1c.1-.2.1-.4-.1-.6m12.8-45.3c-.2 0-.3.1-.5.1.2.1.3.1.5.1 0 .1 0-.1 0-.2m-1.5 41.1c0-.1-.1-.2-.1-.3-.1 0-.2.1-.2.1 0 .2.1.2.3.2m-41.5-32.7c.1-.1.2-.1.3-.2 0-.1-.1-.1-.1-.2-.1.2-.2.3-.2.4m-3.8 52.4c0-.2.1-.3.1-.5h-.1c-.1.1-.1.3 0 .5m5.8 23.7c0 .1.1.2.1.3.1-.1.2-.2.1-.2 0-.1-.1-.2-.2-.1m9.4-87c.1.1.1.2.2.2s.2-.1.2-.1c-.1 0-.2-.1-.4-.1m30.1 54.8.2.2c.1-.1.1-.2.2-.3-.2 0-.3 0-.4.1m-39.5 41.2c.1 0 .2.1.2.1 0-.1 0-.2 0-.2-.1-.1-.1-.1-.2.1m18.5-90c.1-.1.1-.2.2-.3 0 0-.1-.1-.2-.1 0 .1-.1.2-.1.3-.1 0 0 .1.1.1m5.5 43.2c-.1.1-.1.2-.2.4 0 0 .1.1.1.1.1-.2.2-.3.1-.5m-17.4 0c.1 0 .3 0 .4.1-.1-.1-.1-.2-.2-.2 0 0-.1 0-.2.1m26.9-8.4c-.1 0-.2 0-.4 0 0 .1 0 .2.1.3.1-.1.1-.2.3-.3m1.5-45.8c-.1-.1-.1-.2-.2-.3h-.1c.1.2.2.3.3.3m-6.7 55.2c0-.1.1-.2.1-.2-.1 0-.2 0-.3.1.1 0 .1.1.2.1m-29.3 58.7v.2c.1-.1.2-.2.3-.3-.1 0-.2 0-.3.1m34.2-52.5c0-.1 0-.1 0-.2-.1.1-.1.3-.2.4 0 0 0 .1.1.2 0-.1.1-.2.1-.4m22.2-49.1c0-.1.1-.2.1-.2-.1 0-.2 0-.3.1.1 0 .1.1.2.1m-49-2c.1.1.1.1.2.2 0-.1.1-.3.1-.4-.1 0-.2.1-.3.2m17.6 41.8v.5h.2c0-.2-.1-.3-.2-.5m-.3-50.9c-.1.1-.1.1-.2.2 0 0 .1.1.2.2 0-.2.1-.3 0-.4m-4.6 4.2c0-.1-.1-.1-.1-.2 0 .1-.1.2-.1.2 0 .1.1.1.2 0m20 46.5c.1.1.1.3.2.4 0 0 .1-.1.1-.1-.1-.2-.2-.3-.3-.3m-14.9-1.4c-.1 0-.2 0-.2 0 0 .1 0 .2.1.3 0 0 .1-.1.1-.3m-7-37.7c.1 0 .2-.1.3-.1 0-.1-.1-.1-.1-.2-.1.1-.2.2-.2.3m6.7 43.6c0-.1 0-.2 0-.3 0 0-.1 0-.1.1 0 0 .1.1.1.2m-26.6 52c0-.1-.1-.1-.1-.2 0 .1-.1.2-.1.2.1.1.2.1.2 0m25.2-70.2c0-.1-.1-.1-.1-.2 0 .1-.1.2-.1.2.1.1.2.1.2 0m-15.2 27.2c.1.1.2.1.3.2 0-.1.1-.1.1-.2-.1 0-.2 0-.4 0m56.9-47.6c.2 0 .3-.1.5-.1-.2 0-.4 0-.5.1m-64.2 75.8c-.1 0-.1 0-.1 0 0 .1.1.3.1.4 0-.1 0-.2 0-.4m-6.3-74.8c-.1-.1-.2-.1-.3-.2v.2zm27.3 13c.1-.1.2-.2.3-.3 0 0-.1-.1-.1-.1 0 .1-.1.2-.2.4m18 14.6c0 .1.1.2.1.2 0-.1 0-.3 0-.4 0 .1 0 .1-.1.2m-19.9-36.4c0-.1-.1-.1-.1-.2-.1.1-.1.2-.2.3.1 0 .2 0 .3-.1m23.4 51c.1 0 .1.1.2.1h.4c-.1 0-.2 0-.4-.1-.1-.1-.1-.1-.2 0m-63.2 13.3h.3v-.1c0 .1-.2 0-.3.1m30-67c-.1 0-.1.1-.2.1 0 0 .1.1.1.1.1 0 .1-.1.1-.2m14 89.7c-.1 0-.2 0-.2 0 .1.1.1.2.2.3-.1-.1-.1-.1 0-.3m.3-35.6c0-.1 0-.2 0-.4-.1 0-.1 0-.2 0 0 .2.1.3.2.4m-5-49.1c.1-.1.2-.2.4-.2-.2 0-.3 0-.4.2m-18 92.2c.1-.1.1-.2.2-.3-.1 0-.1 0-.2 0zm34-106.3c-.1.1-.1.1-.2.2.1 0 .2.1.2 0 .1 0 .1-.1 0-.2m-20.6 14.9c-.1.1-.1.2-.2.3h.2c0-.1 0-.2 0-.3m9.5 49.7c0 .2 0 .4.1.5 0-.2 0-.3-.1-.5.1 0 .1 0 0 0m-26.3 47c.1 0 .2 0 .2-.1 0 0 0-.1 0-.2 0 .1-.1.2-.2.3m12.7-105.1c0 .1-.1.1-.1.2.1 0 .2-.1.3-.1 0-.1 0-.1-.2-.1m13.7-13.4c-.1-.1-.1-.1-.2-.2 0 .1-.1.2 0 .2 0 .1.1.1.2 0z"/><path d="m130.9 51.6c-.1-.9-.2-1.7-.2-2.5-.1-1.7-.2-3.3-.4-5-.1-1.5-.3-3-.3-4.5-.1-1.5-.1-2.9-.1-4.4 0-.5-.2-1.1-.2-1.6 0-.3 0-.5.1-.8.1-.1.2-.3.4-.3.1 0 .2.1.3.3.4.7.6 1.4.6 2.1 0 1.9 0 3.8.1 5.6.1 1.3.1 2.6.4 3.9s.3 2.6.3 3.9c.1 1.3.3 2.5.5 3.8.1.6.1 1.2.1 1.9.1 1.7.2 3.3.4 5v.3c0 .1 0 .2-.1.2 0-.1 0-.2 0-.2 0-.1-.1-.2-.2-.2 0 .1-.1.2-.1.2 0 .3-.1.6.4.6 0 0 .1.1.1.2.1 1.3.2 2.6.2 3.9.1 1.6.2 3.3.2 4.9v1.5c.1 1.3.2 2.5.2 3.8 0 .2-.1.5-.1.7v.8c-.1.3-.3.6-.4.9-.3-.2-.7-.3-.8-.5-.1-.3 0-.8 0-1.2 0-.3 0-.7 0-1 0-.8-.1-1.7-.1-2.5s-.1-1.6-.1-2.4c0-1.6-.1-3.3-.1-4.9 0-1.2 0-2.5-.1-3.7s-.3-2.4-.5-3.6c0-.2 0-.4 0-.6-.3-1.4-.4-3-.5-4.6m1.3 9.1c0-.3 0-.6 0-.9 0-.1-.1-.3-.1-.4-.1.1-.2.3-.2.4.1.8.1 1.6.2 2.4 0 .1.1.1.1.1 0-.1.1-.1.1-.2.2-.4.1-.8-.1-1.4m1 15.4c-.1 0-.2 0-.4 0v.1c.1.1.2.1.4-.1z"/><path d="m131.2 125.2c.1 0 .1.1 0 0 0 .5-.1 1-.5 1.3h-.1c.2-.5.4-.9.6-1.3z"/><path d="m69.4 24.6c-.3.3-.7.6-1 .8.3-.2.6-.5 1-.8z"/><path d="m69.9 24.2c-.1.1-.3.2-.4.4.1-.1.2-.2.4-.4z"/><path d="m65.8 27.5c.1-.1.3-.2.5-.3-.1.1-.3.2-.5.3z"/><path d="m95.8 99.4c.1-.6.2-.6.3-.4.1.1.2.3.2.5-.2 0-.4-.1-.5-.1z"/><path d="m105.7 101.3c0 .3.1.6.1.9v.1s-.1-.1-.1-.1c0-.3 0-.6 0-.9z"/><path d="m99.2 20.3c1.1-.1 2.1-.3 3.1-.4.1 0 .3.1.5.1-.1.1-.2.2-.3.2-.6.2-1.2.4-1.8.5-2.7.4-5.4.4-8.1.4-.7 0-1.4.2-2.1.2-.1 0-.3-.1-.4-.2.2-.2.3-.5.5-.5.7-.1 1.3-.2 2-.3h1.4c1.7.1 3.4 0 5.2 0z"/><path d="m98.6 14h1.3c.2 0 .3.2.5.3-.1.1-.3.1-.4.2-.2.1-.4.1-.5.1-1.5.1-3 .2-4.5.4-.5 0-.9 0-1.4 0-.1 0-.3-.2-.3-.3.1-.2.2-.4.3-.4.5-.1 1-.2 1.6-.2 1.1-.1 2.2-.1 3.4-.1z"/><path d="m78.3 63.7c0 .1 0 .2-.1.3-.1.2-.1.3-.2.5-.1-.1-.2-.1-.2-.1 0-.2 0-.4.1-.6 0-.1.2-.1.4-.1z"/><path d="m118.6 30.8c-.4 0-.7-.1-1-.1-.1 0-.1-.1-.2-.2.1 0 .2-.1.2-.1 1-.1 2.1-.2 3.1-.4 1.2-.1 2.3-.3 3.5-.4.1 0 .2.1.3.1-.1.1-.1.1-.2.2-1 .4-2.1.6-3.2.8-.7 0-1.5.1-2.5.1z"/><path d="m114.8 21.1c-.8.3-1.5.5-2.3.7-.3.1-.7 0-1-.1-.1 0-.2-.3-.3-.4.2-.1.2-.3.6-.3.5 0 1.1-.1 1.6-.2s.9-.3 1.4-.4h.4c.1 0 .3.1.4.2-.1.1-.1.3-.2.3-.2 0-.4.1-.6.2z"/><path d="m108.7 13.2c-.7.2-1.3.4-2 .6-.1 0-.3.1-.4.1-.2-.1-.4-.2-.6-.4.2-.1.3-.2.5-.2.8-.2 1.6-.4 2.4-.6.2 0 .4.1.5.2-.1 0-.3.1-.4.3z"/><path d="m113.1 74.9c-.4.3-1.2.1-1.3-.3 0-.1 0-.2.1-.2.4-.4 1.1-.1 1.2.5z"/><path d="m70 30c-.4-.3-.3-.5.1-.5 1.3.1 2.6.1 3.8.3.8.1 1.5.3 2.3.3.7.1 1.5 0 2.2 0 .1 0 .1 0 .2.1-.1 0-.1.1-.2.1-.8.3-1.6.5-2.5.4-.9-.2-1.8 0-2.6-.1-1-.1-2.1-.4-3.3-.6z"/><path d="m117.7 83.2c.2.2.4.3.5.5 0 .1.1.2 0 .2-.1.2-1.4.6-1.6.6-.6.1-1.1.2-1.7.3-.5.1-1 .1-1.5 0-.2 0-.5-.4-.4-.6s.4-.5.6-.5c.9-.2 1.8-.4 2.7-.5.4-.1.9 0 1.4 0z"/><path d="m97.5 88.8c.3.6 0 1.1-.4 1.5-.1.1-.4 0-.5-.1-.2-.7-.4-1.4-.5-2.1-.1-.3 0-.6.4-.7.3-.1.9.3.9.7.1.2.1.4.1.7z"/><path d="m93.9 8.4c.1.2.2.5.4.8-.1.2-.3-.6-.4.1 0 0 0 0-.1.1 0-.1-.1-.1 0-.2 0-.3.1-.5.1-.8z"/></g></svg>