<svg enable-background="new 0 0 132.2 91.5" viewBox="0 0 132.2 91.5" xmlns="http://www.w3.org/2000/svg"><path d="m118.7 53.5c.4 2.2.7 4.3 1.1 6.5s1 4.4 1.5 6.6c.7 3.2 1.5 6.2 3.2 9 .6 1 1 2.1 1.6 3 .3.5.9.9 1.4 1.2.2.1.6-.2.8-.4.1 0-.1-.4-.2-.6-.3-.4-.7-.7-.9-1.1-.7-1.5.5-3.1 2.2-3 1.2.1 2.6 1 2.9 2 .2.9-.1 3-1.2 3.6-1.3.7-2.9.9-4.3.3-2.2-.9-3.8-2.5-5.3-4.3-1.4-1.6-2.5-3.5-3-5.4-.9-3.3-2.1-6.3-3.5-9.3-1.1-2.3-2.7-3.7-5.3-4.2-1.5-.3-2.9-.9-4.4-1.3-.5-.1-1-.2-1.4-.2-.1 0-.2.3-.3.5s-.2.5-.4.5c-1.5.3-2.7 1.3-3.8 2.2-.9.7-1.8 1.2-2.7 1.8-2.3 1.9-4 4.5-5.2 7.2-1 2.1-1.2 4.6-2.2 6.7-.9 2-1.6 4-1.9 6.1-.2 1.6-.1 3.2.1 4.8.2 2.1.5 2.8-1.8 3.4-1.2.3-2.3 1-3.3 1.7-.9.7-1.7.6-2.6.2-.8-.4-1.3-1.8-1.1-2.6s1.1-1.3 2.1-1 1.6-.2 1.9-.8c.6-1 1.1-2.1 1.4-3.3s.6-2.6.6-3.9c0-1.4-.4-2.8-.6-4.3-.1-.7.2-1.4.2-2.1s-.1-1.4-.2-2.1c-.2-2.1.3-4.1.7-6.1 0-.2-.2-.6-.3-.6-3 .5-5.7-.2-8.4-1.8-2.9-1.7-6.1-2.7-9.3-3.8-2.6-.9-5.3-1.4-8-1.9-4.5-.9-8.9-2-13.4-3.1-1.4-.3-2.8-.8-4.2-1.2-.2-.1-.5 0-.8-.1.1.2.2.5.3.7 1.6 1.6 2.6 3.6 3.2 5.7.8 2.4 1.3 4.9 1.2 7.5 0 .8.4 1.7.8 2.4.1.2.9.2 1.2 0 .7-.6 1.4-.5 2 0 .6.6 1.5 1 1.2 2.3-.6 2.5-2.8 2.6-4.8 1.9s-3-2.3-3.8-4.2c-1.1-2.6-1.3-5.3-1.7-8-.4-3.2-1.7-6-4.7-7.6-1.6-.8-3.5-1.4-5.3-1.7-2.1-.5-4.3-.6-6.4-.9-1.9-.3-3.8-.6-5.7-.9-1.9-.2-3.2.7-4.3 2-1.7 2.3-2.4 5-3.2 7.6-.5 1.5-.4 3.2-.7 4.8-.6 2.8.5 5.2 1.3 7.7.8 2.4 0 3.6-2.8 3.9-1.7.2-3.5.4-5.2.6-1 .1-2.1-.4-2.6-1.3-.4-.9-.4-1.7.4-2.3.4-.3 1.1-.4 1.6-.3 1.1.3 2.1.6 3.2 0 .9-.5 1.4-1.1 1.4-2.2.1-2.6.3-5.1.4-7.7 0-1.6 0-3.3-.2-4.9-.2-2.1.7-3.9 1.3-5.7.2-.6.4-1.1.8-1.6.3-.4.7-.7 1.1-1.1.2-.2.5-.3.7-.5-.2-.2-.5-.5-.7-.5-1.6 0-2.5-1.2-3.5-2.3-1.4-1.5-2.2-3.4-2.4-5.4-.2-1.6.8-3.9 2.3-4.1.7.4 1.5.8 2.4.8.6.1 1.3.1 1.9-.1.5-.2.8-.7.3-1.4-1-1.3-2.1-2.6-3-3.9-.8-1.2-1.3-2.4-1.3-3.9 0-1.4-.4-2.8.3-4.2.8-1.6 2.1-2.7 3.8-3.1 1.7-.5 3.4-.7 5.1-1.1 2.8-.7 5.7-1.4 8.5-2.1h.4c1.8 0 2-.2 2.6-2 .5-1.5 1-3 1.8-4.3 1-1.6 2.2-3.1 3.4-4.5 1.3-1.4 2.8-2.7 4.2-4 2.4-2.1 5.1-2.7 8.2-2.2.5.1 1.1 0 1.6 0 2.8 0 5.5.7 8.2 1.2 2.3.5 4.6.8 6.9 1.2 1.4.2 2.8.5 4.2.8.2 0 .5.1.7.1h5.7c2.9.1 5.8.5 8.7 1.2 1.2.3 2.5 0 3.8.1 1 .1 2 .3 3.1.4 1.1.2 2.1.5 3.2.6 2.5.3 5.1.5 7.6.9 2.2.3 4.4.9 6.6 1.3 1.4.2 2.9.3 4.3.5 1.9.2 3.9.3 5.7 1.2.4.2 1 .2 1.4.4.7.5 1.3 1.1 2 1.7.9.7.3 1.6.3 2.5 0 1.1-.4 2-1.1 2.8-.2.2-.3.6-.2.8.6 2.1-.2 4-.7 6v.2c-.2 2.6-.4 5.2-.4 7.8 0 2 .3 3.9.4 5.9.1 2.3.2 4.6.4 6.9.3 2.9.6 5.8.9 8.8m-6.2-32.1c-.2-.3-.2-.8-.5-.9-1-.3-2-.6-3-.8-1.5-.2-3.1-.3-4.7-.5-.8-.1-1.6-.1-2.4-.2-2.2-.4-4.4-1-6.6-1.3-3.2-.4-6.4-.5-9.5-.7-2.2-.1-4.4-.2-6.6-.3-.9 0-1.9-.1-2.8-.2-1.9-.3-3.8-.6-5.7-.9-1.2-.2-2.5-.4-3.7-.6-1.6-.2-3.1-.7-4.7-.7-1.7 0-3.4-.3-5-.8-1.4-.5-2.7-1.3-4.2-1.6-2.8-.5-5.7-.8-8.6-1.1-.9-.1-1.8-.1-2.7-.3-2.6-.5-5.2-1.2-7.9-1.1-1.5.1-2.7.3-3.1 2 0 .2-.3.4-.4.6-.4.9-.8 1.9-1.2 2.8 0 .1.1.3.1.5.1-.1.3-.1.3-.2.5-.8 1.3-.7 2-.7 1.6.1 3.3.3 4.9.4 2.1.3 4.3.6 6.4.9l6.9.9c2 .3 4 .6 6 .9 1.6.3 3.2.7 4.7 1 2.6.6 5.2 1.2 7.8 1.7 1.5.3 3 .5 4.6.7l7.5.9c1.2.1 2.3.3 3.4.5 2.9.5 5.9 1.1 8.8 1.6 1.6.3 3.3.2 4.8.7 2.2.8 4.5.9 6.8 1 2 .1 4.1-.4 6.2-.9 1.9-.4 1.9-.6 1.9-2.5.2 0 .2-.3.2-.8m-74.7 10.9c-1.7-.1-3.4-.3-5.1-.5-2.3-.3-4.6-.6-6.9-.9-.6-.1-1.2 0-1.6-.6-.1-.1-.7-.1-.7 0-.6 1.4-1.5 2.6-2.8 3.5-.1.1-.2.2-.2.3h.4c.7-.3 1.1 0 1.3.6.1.2.3.5.5.5 1.4.3 2.8.8 4.3.8 2.4 0 4.7.6 6.9 1.4 1.4.4 2.6 1.1 4 1.6 1.2.4 2.4.6 3.6 1 2.2.8 4.4 1.7 6.7 2.3 1.7.5 3.5.9 5.3 1.1 2.4.3 4.8.3 7.1.5 1.4.1 2.9.3 4.3.6 1.9.3 3.7.8 5.6 1.2 3.1.6 6.2 1.2 9.3 1.9 2.2.5 4.4 1.1 6.5 1.9 1.8.7 3.8.8 5.3 2.2.5.4 1.3.6 1.9.8.3.1.9 0 .6-.5-.6-1.1-1.3-2.3-2.2-3.3-1.1-1.2-2.5-2.1-3.7-3.2-.6-.5-1.2-1.2-2-1.4-2.2-.6-4.4-1-6.6-1.6-2.5-.7-5-1.4-7.5-2.2-.8-.2-1.5-.7-2.2-.8-2.7-.7-5.5-1.3-8.2-2-1.7-.4-3.5-.7-5.3-1.1-1.5-.3-3.1-.8-4.6-1.1-2.1-.4-4.2-.5-6.2-1.2-2.6-.7-5.1-1.3-7.8-1.8m7.3-3c1 .2 2.1.3 3.1.6 1.4.3 2.8.7 4.2 1 1.2.2 2.5.2 3.6.5 3.1.8 6 2.1 9.3 2.4 2.3.2 4.5.9 6.8 1 2.6.1 5.2.6 7.7 1.3 1.1.3 2.3.6 3.4.9.7.2 1.1-.1 1.1-1s0-1.9.2-2.8c.2-.7 0-1.7 1-1.9.1 0 .2-.4.2-.5s-.3-.2-.5-.2c-.7 0-1.6.1-2.2-.1-2.6-.8-5.1-1.9-7.6-2.7-1-.3-2-.5-3-.7-1-.1-2.1 0-3.1-.3-4.2-1-8.4-2.3-12.7-2.6-3-.2-6-.4-9-.7-.8-.1-1.6-.2-2.3-.3-2.7-.6-5.3-1.3-8.1-1.2-.6 0-1.2.1-1.8 0-2.4-.3-4.7-1.5-7.2-1.4-.8 0-1.2.2-1.5.9-.4 1-.7 2-1 3-.1.4-.1.6.5.7.9.1 1.8.4 2.8.6 1.6.3 3.1.6 4.7.9 1.8.4 3.7.7 5.5 1.1 1.8.5 3.8 1 5.9 1.5m67.1-14.4c-2.4-.4-4.7-.7-7.1-1.1-3-.5-6-1-9.1-1.3-3.6-.4-7.1-.5-10.7-.7-.3 0-.6 0-.9 0-2.3-.4-4.7-.9-7-1.3-2.6-.5-5.4-.8-8.1-1.2-3.1-.5-6.1-.9-9.3-.9-1.8 0-3.7-.5-5.5-1-2.4-.6-4.7-1.4-7.1-2-2.7-.7-5.4-1.1-8.1-1.8-1.2-.3-1.9 0-2.6.8-.9 1-1.8 1.8-2.7 2.7-.3.3-.5.6-.7.9-.1.2 0 .5-.1.8.2-.1.4-.1.7-.2.2 0 .4-.1.6-.1 1.2.1 2.5.1 3.7.2 3.3.5 6.6 1.2 9.9 1.5 2.9.3 5.7.6 8.3 1.8 2.1 1 4.3 1.4 6.7 1.4 1.4 0 2.8.5 4.2.7 1.7.3 3.5.5 5.2.8.5.1.9 0 1.4 0 1.9.3 3.9.6 5.8.8 1.5.1 3 0 4.6.1 2.3.2 4.6.5 6.8.6 1.5.1 3 .1 4.5.2.7 0 1.4.2 2 .3 2.4.4 4.8.9 7.1 1.2s4.6.3 6.8 1.1c.6.2 1.3.1 1.2-.9-.1-.8 0-1.7 0-2.5 0-.2-.2-.5-.5-.9m-60.6 39.8c3.3.6 6.6 1.1 9.9 1.9 3.2.8 6.4 1.8 9.5 3 2.4.9 4.7 2 6.9 3.3 2 1.1 4.1.8 6.1.8.2 0 .6-.3.7-.6.2-.6.4-1.3.4-2 0-.4-.3-.9-.6-1.1-1-.4-2.1-.6-3.2-.9-.6-.1-1.1-.3-1.7-.4-.2-.1-.4-.4-.7-.4-1-.2-2-.4-3.1-.7-3.2-.8-6.5-1.6-9.7-2.4-1.6-.4-3.3-.7-4.9-1.1-.6-.1-1.1-.3-1.7-.4-1.8-.3-3.7-.6-5.5-1-1.5-.3-3-.9-4.4-.9-2.6 0-4.8-1.2-7.3-1.8-2.7-.7-5.4-1.8-8.1-2.6-1.5-.5-3.1-.9-4.7-1.3-2.3-.5-4.5-1-6.8-1.5-1.6-.4-3.2-.7-4.8-1.1-2-.4-4-.8-6-1.3-1.3-.3-2.5-1-4-1-.6 0-1.2-.9-1.8-1.5-.2-.2-.3-.6-.4-.8-.2.3-.4.6-.6.9-.1.2-.1.4-.1.6-.2 1.9.8 3.4 1.7 4.8.7 1.1 1.7 2.2 3.4 2.2.7 0 1.3.2 2 .3 1.7.3 3.3.7 5 1 2.1.4 4.2.8 6.3 1.1 1.9.3 3.9.5 5.9.7.6.1 1.3 0 1.9.1 1.8.2 3.6.6 5.4.8 1.2.1 2.4 0 3.6.3 2.2.5 4.4 1.3 6.6 1.9 1.8.3 3.3.6 4.8 1.1m34.1-44c3.3.2 6.6.4 10 .7 2 .2 3.9.6 5.9.9 1.6.2 3.2.4 4.8.7 1.7.2 3.5.4 5.2.7 1 .2 1.6 0 1.9-1 .1-.4.4-.7.6-1s.5-.6.8-.9c-.4-.2-.9-.3-1.3-.5-.1 0-.3 0-.4 0-2-.1-4-.3-6.1-.5-.1 0-.2-.1-.4-.1-1.4-.2-2.9-.6-4.3-.7-2.1-.2-4.2-1-6.4-.7h-.1c-2.9-1.3-6.1-1.2-9.1-1.7-2.3-.4-4.7-.3-7.1-.8-2.9-.7-5.9-1.2-9-.8-1.8.2-3.6 0-5.4-.2s-3.5-.6-5.3-1-3.6-.8-5.3-1.1c-2.2-.4-4.4-.6-6.6-.9-2.8-.4-5.6-.5-8.3.6-.2.1-.4.3-.6.5.2.1.4.3.7.4 1.8.3 3.6.5 5.3.9 3.5.8 6.9 1.9 10.4 2.7 1.6.4 3.3.6 5 .7.8.1 1.6-.1 2.4 0 2.3.3 4.6.6 6.9.9.9.1 1.7.2 2.6.3 1.5.2 2.9.5 4.4.8 1.4.2 2.8.4 4.3.6 1.3 0 2.8.3 4.5.5m-28.6 8.4c-.9-.2-1.9-.3-2.8-.5-1.4-.2-2.7-.5-4.1-.7-1.3-.2-2.5-.1-3.8-.3-3.1-.5-6.2-1-9.3-1.5-1.3-.2-2.7-.2-4-.5-2-.4-3.6 0-4.6 1.6-.3.4-.4.9-.4 1.4 0 .2.7.3 1.1.4.2.1.3.1.4.2 2.1 1.1 4.4 1.4 6.7 1.5 1.3.1 2.7.1 4 .2.6.1 1.3.2 1.9.3 2.1.3 4.2.7 6.3 1 1 .1 2-.1 2.9 0 2.1.2 4.2.9 6.2.8 2.9-.1 5.5 1.1 8.2 1.5 1.6.2 3.1.6 4.7 1 1.9.4 3.8.6 5.6 1.1 2.3.6 4.5 1.6 6.8 2.3 1.9.6 3.8.7 5.1-1.3.3-.4.6-.7 1-1s.9-.6 1.4-.6c1.3-.1 2.5-.2 3.8-.2.2 0 .4-.1.5-.2-.2-.2-.3-.4-.5-.5-.7-.1-1.4-.2-2.1-.2-1.4-.1-2.8 0-4.1-.3-3.1-.5-6.2-1.2-9.3-1.7-2.9-.5-5.9-.8-8.8-1.4-2.3-.4-4.6-1-6.9-1.4-1.8-.1-3.8-.5-5.9-1m-24.7 19.2c-2.1-.4-4.2-.7-6.2-1.1-1.3-.3-2.7-.6-4-1.1-2-.8-3.8-.8-5.5.8-.2.2-.6.3-.9.5-.2.1-.3.2-.5.2.2.2.4.4.7.5 1 .3 2 .6 3 .9 1.5.4 2.9.8 4.4 1.1 1.5.4 3 .7 4.5 1.1s2.8 1.5 4.5 1.4c.8-.1 1.6.1 2.5.3 1.6.4 3.3.8 4.9 1.2 2.6.6 5.3.8 7.9 1.7 3.1 1.1 6.3 1.8 9.5 2.7 3.4.9 6.7 1.9 10.2 2 .7 0 1.5.2 2.2.3 1.8.4 3.5.9 5.2 1.4 3.8 1 7.6 1.9 11.4 2.8.7.2 1.5.2 1.9-.8.1-.2.5-.4.7-.4.9.1 1.7.2 2.6.4h.6c-.1-.2-.1-.4-.3-.5-.7-.4-1.4-.7-2.1-1-1.4-.7-2.9-1.4-4.4-2-1.8-.6-3.7-1.1-5.6-1.6-1.4-.4-2.9-.6-4.4-.9-2.4-.5-4.8-.8-7.2-1.3-1.7-.4-3.4-.9-5.2-1-1.5-.1-3-.5-4.4-.7-1.4-.1-2.8 0-4.2-.1-1.1-.1-2.3-.1-3.4-.4-2.2-.6-4.5-1-6.6-2.1-1.4-.8-3.1-1-4.6-1.5-2.4-1.1-4.7-2-7.2-2.8m-5.6 5.8c.7.2 1.3.5 2 .6 2.2.5 4.4.9 6.6 1.5 1.9.5 3.8 1.4 5.7 1.9 2.1.7 4.3 1.2 6.5 1.7 2.1.5 4.2.9 6.2 1.3 2.2.4 4.4.9 6.6 1.3 1.9.4 3.7.9 5.6 1.3 2.5.6 5.1 1.1 7.6 1.8 3.5.9 6.9 1.9 10.4 2.8 1.7.5 1.6.5 2.5-1 .1-.2.3-.2.4-.4s.2-.5.4-.7c-.3-.1-.7-.3-.9-.2-.8.5-1.6.2-2.1-.3-1.4-1.2-3.3-1.1-4.9-1.6-2.2-.7-4.6-.9-7-1.4-2.7-.6-5.4-1.2-8.1-1.7-1.6-.3-3.3-.6-4.9-.9-3.6-.7-7.1-1.6-10.5-2.8-1.4-.5-2.8-.8-4.3-1.1-1.9-.5-3.8-.9-5.7-1.3-2.4-.5-4.8-.8-7.2-1.4-2.8-.7-5.5-2.1-8.5-2.5-1.9-.2-3.7-.9-5.5-1.2-1-.2-1.8-.8-2.9-.7-.2 0-.5-.4-.5-.6-.1-.7-.3-.4-.6-.2-.6.5-1.2 1-1.8 1.6-.2.2-.3.5-.5.8.3.1.6.4 1 .4 1.6.2 3.3.4 4.9.7 3 .8 6.1 1.6 9.5 2.3m58.3-2.9c-.2-.8-.4-1.6-.7-2.4-.1-.3-.5-.7-.8-.7-1.7.1-3.2-.7-4.8-1.1-1.9-.4-3.8-1.1-5.8-.9-.7.1-1.4-.1-2.1-.2-2.2-.3-4.3-.7-6.4-1.1-1.7-.3-3.5-.7-5.2-1.1-1.6-.4-3.1-1-4.6-1.3-2.5-.4-4.9-.7-7.4-1.5-2.2-.7-4.6-1.1-6.9-1.6-3.4-.7-6.9-1.4-10.3-2.2-1.4-.3-3-.5-4.2-1.2-.9-.5-.9.1-1.1.4-.3.5-.3 1.1-.6 1.6-.5 1.3-.6 1.4.8 1.6 2 .4 4 .7 6.1 1 .8.1 1.5 0 2.3 0 2.9-.1 5.8.8 8.6 1.3.8.1 1.5.5 2.3.6 3 .7 6 1.4 9.1 2 3 .6 5.9 1.3 8.9 1.9 2.4.5 4.8 1 7.1 1.7 3.3 1 6.5 2.1 9.8 3.1 1.8.6 3.6 1 5.4 1.5.4.1.9.1 1.3.2-.1-.4-.3-.8-.4-1.3-.2.1-.2-.1-.4-.3m-61.2-15.3c.4-1 .7-1.9 1.1-2.9.1-.3.2-.8 0-.9-.2-.2-.7-.3-1-.2-2.4.5-4.8 1.1-7.2 1.7-1.9.4-3.8.7-4.8 2.8-.7 1.4-.6 3.1.3 4.2 1.3 1.5 2.6 3 2.4 5.2 0 .2.1.5.2.5.2 0 .4-.1.6-.2s.4-.2.5-.3c1.7-1.5 3.9-2.5 5.3-4.3 1-1.3 1-1.2-.2-2.3-.2-.1-.3-.4-.4-.6.2 0 .4-.1.6-.1 1.1.2 1.8-.2 2-1.4.2-.4.5-.7.6-1.2m75.3 9.2c-1-.3-2.1-.5-3.1-.8-1.1-.3-2.2-.7-3.4-1-.4-.1-.9-.1-1 .6 0 .9-.3 1.8-.2 2.6s.4 2 .9 2.2c1.3.6 2.9.9 4.3 1.2 1.9.4 3.9.7 5.8 1.1 2.2.4 4.4.9 6.6 1.3.9.2.9-.3.8-1.1-.2-1.2 0-2.5-.2-3.8 0-.3-.5-.9-.8-.9-1.8-.3-3.7-.4-5.5-.7-1.3-.1-2.6-.4-4.2-.7m.9 6.7c-2-.3-4-.6-6-.9-.3 0-.6-.1-1-.2.1.3.1.8.3 1 .9 1.1 1.9 2.1 2.7 3.2.6.9 1.4 1.2 2.4 1.1.3 0 .6.1.9.2 1.6.6 3.1 1.3 4.7 1.7 2.2.6 4.6.8 6.7 1.9 0 0 .4-.3.4-.4-.3-1.5-.5-3.1-.9-4.6-.1-.4-.7-1-1.1-1.1-2.4-.6-4.8-1.1-7.2-1.6-.6-.1-1.2-.2-1.9-.3m-.2-14c-.5-.1-.9-.2-1.4-.2-1.3 0-2.5 0-3.8.2-2.6.4-4.3 1.1-5.3 4.1-.2.7-.6 1.3-.8 1.9-.4 1.2-.9 2.4-.3 3.7.6 1.5 1.1 3 1.8 4.4.6 1.2 1.5 2.2 2.3 3.2 1 1.2 2.2 2.3 3.3 3.4.1.1.4.1.4.1.1-.1.3-.4.2-.5-.8-1.3-1.5-2.6-2.3-3.9-.4-.6-1-1.1-1.4-1.7-.7-.9-1.3-1.7-2-2.6-.2-.2-.2-.6-.2-.9 0-.4.2-.7.2-1.1 0-1.2-.3-2.5-.1-3.7.2-1.6.7-3.3 2.5-4 1.3-.4 2.7-.7 4-1 1.6-.3 3.3-.7 5-.3 2.3.6 4.6 1.1 6.9.4.9-.3 1.8-.7 2.7-1.1.1-.1.2-.3.2-.5-.2 0-.4 0-.6 0-1.3 0-2.6.2-3.9.1-1.4-.1-2.7-.3-4.1-.4-1 .1-2.1.3-3.3.4m7.5 7.7h1.2c.9.1 1.3-.2 1.3-1.2 0-.6.1-1.3.3-1.8.3-.7.9-1.2 1.3-1.8.1-.2.1-.5.2-.8-.3 0-.6-.1-.8 0-1.1.3-2.1.7-3.2.9-1.3.3-2.7.5-4-.2-.7-.3-1.6-.4-2.4-.5-2.6-.2-5 .5-7.5 1.1-.5.1-1 .8-1.4 1.2-.1 0-.1.2 0 .3s.3.1.3.1c.8-1 1.9-.5 2.7-.2 3.8 1.3 7.9 2.1 12 2.9m-9.8 19.6c.1.7.3.5.7.2.6-.6 1-1.4 2-1.5.5-.1 1-.1 1.4-.2 2.1-.8 4.3-.8 6.5-.4 1 .2 2 .6 3 .9.5.2.7.2.6-.5-.1-1.5-.4-2.6-2.1-3.1-1.8-.5-3.4-1.6-5.4-1-.1 0-.3 0-.4-.1-1.1-1.3-2.8-1.5-4.3-2.1-.6-.3-1.3-.2-2-.2-.2 0-.5.4-.4.6.2 1.2.4 2.4.8 3.5.5 1.4.6 2.6-.4 3.9m-85.7-20.3c.3.2.7.4 1 .6 0-.4 0-.7-.1-1.1 0-.2-.1-.3-.2-.5-.1-2-1.9-3.4-2-5.4-.1-1.5.8-3.9 2-4.9 1.1-.9 2.5-1.1 3.8-1.5 1.9-.5 3.8-1 5.7-1.2 1.4-.2 2.8-.6 4-1.4.2-.1.3-.5.3-.7-.1-.2-.5-.3-.7-.3-.5 0-1 .2-1.5.3-2.2.5-4.4 1.1-6.6 1.5-1.8.4-3.6.5-5.3.9-4.3 1.2-5 3.9-4.2 7.5.5 2.5 2.3 4.2 3.8 6.2m105.6 23c.5.5.6.1.5-.3-.3-2-.9-4.1-1-6.1-.1-3.3-.5-6.6-.8-9.9-.2-2.4 0-4.8 0-7.1 0-.5.2-1 .2-1.5 0-.3-.4-.5-.7-.7-.2.3-.5.5-.6.8-.1.8 0 1.6 0 2.4 0 1.2.3 2.4-.9 3.3-.2.2-.2.6-.2 1v6.1c0 .4.1.7.2 1.1.1 1.2 0 2.4.2 3.5.2 1.4.8 2.8.8 4.2.1 1 .6 1.5 1.2 2.1.3.3.6.6 1.1 1.1m-15.6-2c.7-.2 1.4-.6 2.1-.6 1.7-.1 3.3.5 5 1 2 .6 4 1.1 5.3 2.9.1.1.4.1.6.2-.1-.2-.1-.4-.2-.5-.5-.6-1.1-1-1.4-1.7-.5-1.2-1.4-1.8-2.6-2-1.5-.2-2.9-.7-4.3-1-1.8-.3-3.5.4-5.2.9-2.8.8-5.1 2.3-7 4.4-1.7 1.7-3 3.7-4.4 5.7-.8 1.2-1.5 2.5-2.1 3.9-.4.8-.6 1.8-.8 2.7s-.2 1.8-.2 2.7c0 .2.3.4.4.6.1-.1.3-.2.4-.3.2-.7.4-1.5.7-2.2.8-2.1 1.4-4.2 2.5-6.2.8-1.6 2.2-2.8 3.1-4.3 1.6-2.5 4-3.8 6.3-5.2.6-.4 1.1-.7 1.8-1m-63.7-3c-.4-.1-.9-.3-1.3-.4-.2 0-.5.1-.7.1.2.2.3.4.5.5 2.6 1.9 4 4.5 4.4 7.6.3 2.9.7 5.7 1.7 8.4.7 2 2.8 3.8 5.2 3.3.5-.1.9-.7 1.3-1.2.1-.1-.2-.8-.5-.8-.5-.1-1 0-1.5 0-.6 0-1.3.2-1.7 0-1.1-.7-1.6-1.9-1.8-3.2-.2-2.1-.2-4.3-.8-6.4-.9-3.1-2-5.9-4.8-7.9m48.8-15.7c.1-.8 0-1.7.2-2.5.5-1.6 1.2-3.1 1.8-4.7.1-.2 0-.4 0-.6-.2 0-.5 0-.6.2-.9 1.3-2.1 2.6-2.6 4.1-.6 1.7-.7 3.6-.3 5.4.6 2.5 1.9 4.4 3.7 6.1s3.5 3.3 5.1 5.2c.6.7.6 1.9.9 2.8 0 .2-.1.4-.1.6.2-.1.5-.1.7-.3 1-.9.9-2.8-.3-4-1.3-1.4-2.7-2.7-4-4.1-2.4-2.1-3.3-5.2-4.5-8.2m-74.8 12.3c-1.2.5-2.1 1.4-2.6 2.6-.3.7-.6 1.3-.8 2-.4 1.2-.8 2.5-.9 3.7-.1 1.7.1 3.4.2 5.2v.9c0 .1.1.2.2.3 0-.1.2-.1.2-.2.2-.7.3-1.5.4-2.2.2-1.4.3-2.9.7-4.2.3-1.2.7-2.5 1.4-3.6.9-1.4 1.3-3.4 3.4-3.7.1 0 .3-.3.4-.4-.2-.1-.4-.4-.5-.4-.7-.2-1.3-.1-2.1 0m-4.1 16.1c-.1.5-.2 1-.3 1.5v3.7c0 1-.2 2.1-1.3 2.7-1.2.7-2.5 1.3-4 .5-.1-.1-.4-.1-.5 0-.4.2-.8.4-1.1.7.3.3.7.7 1 1 .2.1.5 0 .7 0 1.8-.2 3.6-.4 5.3-.6 1.6-.2 2.4-1.4 1.8-2.9-.8-1.9-1.4-3.9-1.3-6 .1-.3-.1-.5-.3-.6m81.3-6.1c0 .2 0 .4-.1.5-1.1 1.6-1.2 3.5-1.5 5.4 0 .2.1.5.1.8.2-.2.4-.3.5-.5 1.2-1.9 2.2-3.9 3.5-5.7.7-1 1.7-1.7 2.6-2.4.5-.4 1.2-.8 1.8-1.2.1-.1.1-.2.1-.4-.1 0-.2.1-.3.1-1.5 0-2.9 1.2-4.5.6-.1 0-.2 0-.3.1-.6.9-1.2 1.7-1.9 2.7m31 13c.5.8 1 1.7 1.4 2.5l.3.3c0-.1.1-.3.1-.4-.3-.9-.4-1.9-.9-2.7-.9-1.4-1-3-1.4-4.6-.8-3-1.2-6.1-2.9-8.8-.3-.5-.7-.9-1.1-1.4.1.6 0 1.3.2 1.9.6 2.2 1.4 4.4 2.1 6.6s1.4 4.4 2.2 6.6m-35.7 13.4c-.5 1-.8 2.1-1.9 2.5-.7.3-1.5.5-2.3.6-.7.1-.9.5-.7 1 .1.4.5.8 1.2.4 1.5-.8 3.1-1.4 4.7-2.2.2-.1.4-.6.4-.9 0-.6-.1-1.2-.2-1.7s-.2-.9-.2-1.4c-.2.4-.4.7-.6 1.1-.2.1-.3.2-.4.6m.5-17.2v6.8c0 .2.2.4.2.7.1-.2.2-.4.2-.6-.2-3.5.7-7 .9-10.5 0-.2 0-.5 0-.7-.3.2-.8.4-.8.7-.2 1-.3 2.2-.5 3.6m42.9 7.9c.2.4.2.9.5 1.1.6.4 1.2.9 1 1.7 0 .1.2.3.3.4.1-.1.3-.2.4-.3.2-.7.5-1.3.6-2 .2-.9-.4-1.4-1-1.7s-1.3 0-1.8.8m-14.5-57.9c0 .8.1 1.5 0 2.3 0 .5-.2 1.1-.2 1.6 0 .2.2.5.3.7.2-.2.5-.4.5-.6.1-1.1 1-2.1.1-3.2-.1-.1.1-.4.1-.7 0-1.1-.1-2.1-.1-3.2 0-.1-.2-.2-.4-.3-.1.1-.2.2-.2.3-.1 1-.1 1.9-.1 3.1m-2 21.8c-.1-.1-.2-.2-.2-.3 0-.7 0-1.4 0-2 0-.2-.4-.4-.6-.5-.1.2-.1.4-.1.6s-.1.3-.1.5c0 1.3.1 2.6.2 3.9 0 .2.4.4.5.6.1-.2.3-.4.3-.6 0-.8 0-1.4 0-2.2m2-9.3c-.1-.1-.1-.3-.2-.4-.1-.2-.1-.3-.2-.5-.1.2-.2.4-.2.6-.1.7-.2 1.4-.2 2.2v2.1c0 .1.1.2.2.4.1-.1.1-.2.2-.3.6-1.3.3-2.6.4-4.1m1.9-1.5c.1-.6.3-1.2.4-1.9 0-.1-.1-.3-.2-.4-.2.1-.4.1-.4.3-.6.8-.8 1.7-.7 2.7.1.4.2.9.2 1.3.2-.5.4-.9.6-1.4.1 0 .1-.2.1-.6m-106.3 10.3c.4 0 .8 0 1.2-.1.2-.1.4-.3.7-.5-.1-.1-.3-.3-.4-.4-1-.1-2-.2-3-.2-.1 0-.3.1-.4.1.1.1.1.4.2.4.5.3 1.1.5 1.7.7m104.2-13.9c.3-.3.7-.6.9-1 .1-.2 0-.5 0-.7-.2.1-.4.2-.6.3-.2.2-.4.4-.7.6s-.7.4-1.1.6l1.2.3s.1 0 .3-.1m2.6-8.6c-.2-.2-.3-.4-.5-.5 0 .3-.2.5-.1.8.1.6.3 1.2.4 1.8 0 .2.1.3.2.5.1-.2.4-.4.4-.5-.1-.8-.3-1.3-.4-2.1m2.5-3.6c0-.1-.1-.2-.1-.1-.5.2-1 1.6-.8 2 .1.1.3.3.4.2.1 0 .3-.2.4-.3 0-.5.1-1.1.1-1.8m-7.4 31.3c.2.8.4 1.7.6 2.5 0 .1.2.1.3.2 0-.1.1-.2.1-.4-.1-.8-.2-1.7-.4-2.5 0-.3-.2-.5-.3-.7 0 .3-.1.5-.3.9m2.6 9.5c-.1-.8-.2-1.6-.3-2.5 0-.2-.3-.3-.5-.4v.5c-.2 1 0 1.8.8 2.4m3.1-42.2v.7c0 .1.1.2.1.2.1 0 .3-.1.3-.1 0-.2-.1-.6-.4-.8m-4.1 24.8c.1.2.2.4.2.5.1-.1.3-.3.4-.4-.2-.1-.3-.1-.6-.1z" fill="#0d7236"/></svg>