<?xml version="1.0" encoding="utf-8"?>
<!-- Generator: Adobe Illustrator 26.2.1, SVG Export Plug-In . SVG Version: 6.00 Build 0)  -->
<svg version="1.1" id="Layer_1" xmlns="http://www.w3.org/2000/svg" xmlns:xlink="http://www.w3.org/1999/xlink" x="0px" y="0px"
	 viewBox="0 0 132.2 91.5" style="enable-background:new 0 0 132.2 91.5;" xml:space="preserve">
<g>
	<path style='fill:#0D7236;' d="M118.7,53.5c0.4,2.2,0.7,4.3,1.1,6.5c0.4,2.2,1,4.4,1.5,6.6c0.7,3.2,1.5,6.2,3.2,9c0.6,1,1,2.1,1.6,3
		c0.3,0.5,0.9,0.9,1.4,1.2c0.2,0.1,0.6-0.2,0.8-0.4c0.1,0-0.1-0.4-0.2-0.6c-0.3-0.4-0.7-0.7-0.9-1.1c-0.7-1.5,0.5-3.1,2.2-3
		c1.2,0.1,2.6,1,2.9,2c0.2,0.9-0.1,3-1.2,3.6c-1.3,0.7-2.9,0.9-4.3,0.3c-2.2-0.9-3.8-2.5-5.3-4.3c-1.4-1.6-2.5-3.5-3-5.4
		c-0.9-3.3-2.1-6.3-3.5-9.3c-1.1-2.3-2.7-3.7-5.3-4.2c-1.5-0.3-2.9-0.9-4.4-1.3c-0.5-0.1-1-0.2-1.4-0.2c-0.1,0-0.2,0.3-0.3,0.5
		c-0.1,0.2-0.2,0.5-0.4,0.5c-1.5,0.3-2.7,1.3-3.8,2.2c-0.9,0.7-1.8,1.2-2.7,1.8c-2.3,1.9-4,4.5-5.2,7.2c-1,2.1-1.2,4.6-2.2,6.7
		c-0.9,2-1.6,4-1.9,6.1c-0.2,1.6-0.1,3.2,0.1,4.8c0.2,2.1,0.5,2.8-1.8,3.4c-1.2,0.3-2.3,1-3.3,1.7c-0.9,0.7-1.7,0.6-2.6,0.2
		c-0.8-0.4-1.3-1.8-1.1-2.6c0.2-0.8,1.1-1.3,2.1-1c1,0.3,1.6-0.2,1.9-0.8c0.6-1,1.1-2.1,1.4-3.3c0.3-1.2,0.6-2.6,0.6-3.9
		c0-1.4-0.4-2.8-0.6-4.3c-0.1-0.7,0.2-1.4,0.2-2.1c0-0.7-0.1-1.4-0.2-2.1c-0.2-2.1,0.3-4.1,0.7-6.1c0-0.2-0.2-0.6-0.3-0.6
		c-3,0.5-5.7-0.2-8.4-1.8c-2.9-1.7-6.1-2.7-9.3-3.8c-2.6-0.9-5.3-1.4-8-1.9c-4.5-0.9-8.9-2-13.4-3.1c-1.4-0.3-2.8-0.8-4.2-1.2
		c-0.2-0.1-0.5,0-0.8-0.1c0.1,0.2,0.2,0.5,0.3,0.7c1.6,1.6,2.6,3.6,3.2,5.7c0.8,2.4,1.3,4.9,1.2,7.5c0,0.8,0.4,1.7,0.8,2.4
		c0.1,0.2,0.9,0.2,1.2,0c0.7-0.6,1.4-0.5,2,0c0.6,0.6,1.5,1,1.2,2.3c-0.6,2.5-2.8,2.6-4.8,1.9c-2-0.7-3-2.3-3.8-4.2
		c-1.1-2.6-1.3-5.3-1.7-8c-0.4-3.2-1.7-6-4.7-7.6c-1.6-0.8-3.5-1.4-5.3-1.7c-2.1-0.5-4.3-0.6-6.4-0.9c-1.9-0.3-3.8-0.6-5.7-0.9
		c-1.9-0.2-3.2,0.7-4.3,2c-1.7,2.3-2.4,5-3.2,7.6c-0.5,1.5-0.4,3.2-0.7,4.8c-0.6,2.8,0.5,5.2,1.3,7.7c0.8,2.4,0,3.6-2.8,3.9
		c-1.7,0.2-3.5,0.4-5.2,0.6c-1,0.1-2.1-0.4-2.6-1.3c-0.4-0.9-0.4-1.7,0.4-2.3c0.4-0.3,1.1-0.4,1.6-0.3c1.1,0.3,2.1,0.6,3.2,0
		c0.9-0.5,1.4-1.1,1.4-2.2c0.1-2.6,0.3-5.1,0.4-7.7c0-1.6,0-3.3-0.2-4.9c-0.2-2.1,0.7-3.9,1.3-5.7c0.2-0.6,0.4-1.1,0.8-1.6
		c0.3-0.4,0.7-0.7,1.1-1.1c0.2-0.2,0.5-0.3,0.7-0.5c-0.2-0.2-0.5-0.5-0.7-0.5c-1.6,0-2.5-1.2-3.5-2.3c-1.4-1.5-2.2-3.4-2.4-5.4
		c-0.2-1.6,0.8-3.9,2.3-4.1C7.5,36.6,8.3,37,9.2,37c0.6,0.1,1.3,0.1,1.9-0.1c0.5-0.2,0.8-0.7,0.3-1.4c-1-1.3-2.1-2.6-3-3.9
		c-0.8-1.2-1.3-2.4-1.3-3.9c0-1.4-0.4-2.8,0.3-4.2c0.8-1.6,2.1-2.7,3.8-3.1c1.7-0.5,3.4-0.7,5.1-1.1c2.8-0.7,5.7-1.4,8.5-2.1
		c0.1,0,0.3,0,0.4,0c1.8,0,2-0.2,2.6-2c0.5-1.5,1-3,1.8-4.3c1-1.6,2.2-3.1,3.4-4.5c1.3-1.4,2.8-2.7,4.2-4c2.4-2.1,5.1-2.7,8.2-2.2
		c0.5,0.1,1.1,0,1.6,0c2.8,0,5.5,0.7,8.2,1.2c2.3,0.5,4.6,0.8,6.9,1.2c1.4,0.2,2.8,0.5,4.2,0.8c0.2,0,0.5,0.1,0.7,0.1
		c1.9,0,3.8,0,5.7,0c2.9,0.1,5.8,0.5,8.7,1.2c1.2,0.3,2.5,0,3.8,0.1c1,0.1,2,0.3,3.1,0.4c1.1,0.2,2.1,0.5,3.2,0.6
		c2.5,0.3,5.1,0.5,7.6,0.9c2.2,0.3,4.4,0.9,6.6,1.3c1.4,0.2,2.9,0.3,4.3,0.5c1.9,0.2,3.9,0.3,5.7,1.2c0.4,0.2,1,0.2,1.4,0.4
		c0.7,0.5,1.3,1.1,2,1.7c0.9,0.7,0.3,1.6,0.3,2.5c0,1.1-0.4,2-1.1,2.8c-0.2,0.2-0.3,0.6-0.2,0.8c0.6,2.1-0.2,4-0.7,6
		c0,0.1,0,0.1,0,0.2c-0.2,2.6-0.4,5.2-0.4,7.8c0,2,0.3,3.9,0.4,5.9c0.1,2.3,0.2,4.6,0.4,6.9C118.1,47.6,118.4,50.5,118.7,53.5
		 M112.5,21.4c-0.2-0.3-0.2-0.8-0.5-0.9c-1-0.3-2-0.6-3-0.8c-1.5-0.2-3.1-0.3-4.7-0.5c-0.8-0.1-1.6-0.1-2.4-0.2
		c-2.2-0.4-4.4-1-6.6-1.3c-3.2-0.4-6.4-0.5-9.5-0.7c-2.2-0.1-4.4-0.2-6.6-0.3c-0.9,0-1.9-0.1-2.8-0.2c-1.9-0.3-3.8-0.6-5.7-0.9
		c-1.2-0.2-2.5-0.4-3.7-0.6c-1.6-0.2-3.1-0.7-4.7-0.7c-1.7,0-3.4-0.3-5-0.8c-1.4-0.5-2.7-1.3-4.2-1.6c-2.8-0.5-5.7-0.8-8.6-1.1
		c-0.9-0.1-1.8-0.1-2.7-0.3c-2.6-0.5-5.2-1.2-7.9-1.1c-1.5,0.1-2.7,0.3-3.1,2c0,0.2-0.3,0.4-0.4,0.6c-0.4,0.9-0.8,1.9-1.2,2.8
		c0,0.1,0.1,0.3,0.1,0.5c0.1-0.1,0.3-0.1,0.3-0.2c0.5-0.8,1.3-0.7,2-0.7c1.6,0.1,3.3,0.3,4.9,0.4c2.1,0.3,4.3,0.6,6.4,0.9
		c2.3,0.3,4.6,0.6,6.9,0.9c2,0.3,4,0.6,6,0.9c1.6,0.3,3.2,0.7,4.7,1c2.6,0.6,5.2,1.2,7.8,1.7c1.5,0.3,3,0.5,4.6,0.7
		c2.5,0.3,5,0.6,7.5,0.9c1.2,0.1,2.3,0.3,3.4,0.5c2.9,0.5,5.9,1.1,8.8,1.6c1.6,0.3,3.3,0.2,4.8,0.7c2.2,0.8,4.5,0.9,6.8,1
		c2,0.1,4.1-0.4,6.2-0.9c1.9-0.4,1.9-0.6,1.9-2.5C112.5,22.2,112.5,21.9,112.5,21.4 M37.8,32.3c-1.7-0.1-3.4-0.3-5.1-0.5
		c-2.3-0.3-4.6-0.6-6.9-0.9c-0.6-0.1-1.2,0-1.6-0.6c-0.1-0.1-0.7-0.1-0.7,0c-0.6,1.4-1.5,2.6-2.8,3.5c-0.1,0.1-0.2,0.2-0.2,0.3
		c0.1,0,0.3,0,0.4,0c0.7-0.3,1.1,0,1.3,0.6c0.1,0.2,0.3,0.5,0.5,0.5c1.4,0.3,2.8,0.8,4.3,0.8c2.4,0,4.7,0.6,6.9,1.4
		c1.4,0.4,2.6,1.1,4,1.6c1.2,0.4,2.4,0.6,3.6,1c2.2,0.8,4.4,1.7,6.7,2.3c1.7,0.5,3.5,0.9,5.3,1.1c2.4,0.3,4.8,0.3,7.1,0.5
		c1.4,0.1,2.9,0.3,4.3,0.6c1.9,0.3,3.7,0.8,5.6,1.2c3.1,0.6,6.2,1.2,9.3,1.9c2.2,0.5,4.4,1.1,6.5,1.9c1.8,0.7,3.8,0.8,5.3,2.2
		c0.5,0.4,1.3,0.6,1.9,0.8c0.3,0.1,0.9,0,0.6-0.5c-0.6-1.1-1.3-2.3-2.2-3.3c-1.1-1.2-2.5-2.1-3.7-3.2c-0.6-0.5-1.2-1.2-2-1.4
		c-2.2-0.6-4.4-1-6.6-1.6c-2.5-0.7-5-1.4-7.5-2.2c-0.8-0.2-1.5-0.7-2.2-0.8c-2.7-0.7-5.5-1.3-8.2-2c-1.7-0.4-3.5-0.7-5.3-1.1
		c-1.5-0.3-3.1-0.8-4.6-1.1c-2.1-0.4-4.2-0.5-6.2-1.2C43,33.4,40.5,32.8,37.8,32.3 M45.1,29.3c1,0.2,2.1,0.3,3.1,0.6
		c1.4,0.3,2.8,0.7,4.2,1c1.2,0.2,2.5,0.2,3.6,0.5c3.1,0.8,6,2.1,9.3,2.4c2.3,0.2,4.5,0.9,6.8,1c2.6,0.1,5.2,0.6,7.7,1.3
		c1.1,0.3,2.3,0.6,3.4,0.9c0.7,0.2,1.1-0.1,1.1-1c0-0.9,0-1.9,0.2-2.8c0.2-0.7,0-1.7,1-1.9c0.1,0,0.2-0.4,0.2-0.5
		c0-0.1-0.3-0.2-0.5-0.2c-0.7,0-1.6,0.1-2.2-0.1c-2.6-0.8-5.1-1.9-7.6-2.7c-1-0.3-2-0.5-3-0.7c-1-0.1-2.1,0-3.1-0.3
		c-4.2-1-8.4-2.3-12.7-2.6c-3-0.2-6-0.4-9-0.7c-0.8-0.1-1.6-0.2-2.3-0.3c-2.7-0.6-5.3-1.3-8.1-1.2c-0.6,0-1.2,0.1-1.8,0
		c-2.4-0.3-4.7-1.5-7.2-1.4c-0.8,0-1.2,0.2-1.5,0.9c-0.4,1-0.7,2-1,3c-0.1,0.4-0.1,0.6,0.5,0.7c0.9,0.1,1.8,0.4,2.8,0.6
		c1.6,0.3,3.1,0.6,4.7,0.9c1.8,0.4,3.7,0.7,5.5,1.1C41,28.3,43,28.8,45.1,29.3 M112.2,14.9c-2.4-0.4-4.7-0.7-7.1-1.1
		c-3-0.5-6-1-9.1-1.3c-3.6-0.4-7.1-0.5-10.7-0.7c-0.3,0-0.6,0-0.9,0c-2.3-0.4-4.7-0.9-7-1.3C74.8,10,72,9.7,69.3,9.3
		c-3.1-0.5-6.1-0.9-9.3-0.9c-1.8,0-3.7-0.5-5.5-1c-2.4-0.6-4.7-1.4-7.1-2c-2.7-0.7-5.4-1.1-8.1-1.8c-1.2-0.3-1.9,0-2.6,0.8
		c-0.9,1-1.8,1.8-2.7,2.7c-0.3,0.3-0.5,0.6-0.7,0.9c-0.1,0.2,0,0.5-0.1,0.8c0.2-0.1,0.4-0.1,0.7-0.2c0.2,0,0.4-0.1,0.6-0.1
		c1.2,0.1,2.5,0.1,3.7,0.2c3.3,0.5,6.6,1.2,9.9,1.5c2.9,0.3,5.7,0.6,8.3,1.8c2.1,1,4.3,1.4,6.7,1.4c1.4,0,2.8,0.5,4.2,0.7
		c1.7,0.3,3.5,0.5,5.2,0.8c0.5,0.1,0.9,0,1.4,0c1.9,0.3,3.9,0.6,5.8,0.8c1.5,0.1,3,0,4.6,0.1c2.3,0.2,4.6,0.5,6.8,0.6
		c1.5,0.1,3,0.1,4.5,0.2c0.7,0,1.4,0.2,2,0.3c2.4,0.4,4.8,0.9,7.1,1.2c2.3,0.3,4.6,0.3,6.8,1.1c0.6,0.2,1.3,0.1,1.2-0.9
		c-0.1-0.8,0-1.7,0-2.5C112.7,15.6,112.5,15.3,112.2,14.9 M51.6,54.7c3.3,0.6,6.6,1.1,9.9,1.9c3.2,0.8,6.4,1.8,9.5,3
		c2.4,0.9,4.7,2,6.9,3.3c2,1.1,4.1,0.8,6.1,0.8c0.2,0,0.6-0.3,0.7-0.6c0.2-0.6,0.4-1.3,0.4-2c0-0.4-0.3-0.9-0.6-1.1
		c-1-0.4-2.1-0.6-3.2-0.9c-0.6-0.1-1.1-0.3-1.7-0.4c-0.2-0.1-0.4-0.4-0.7-0.4c-1-0.2-2-0.4-3.1-0.7c-3.2-0.8-6.5-1.6-9.7-2.4
		c-1.6-0.4-3.3-0.7-4.9-1.1c-0.6-0.1-1.1-0.3-1.7-0.4c-1.8-0.3-3.7-0.6-5.5-1c-1.5-0.3-3-0.9-4.4-0.9c-2.6,0-4.8-1.2-7.3-1.8
		c-2.7-0.7-5.4-1.8-8.1-2.6c-1.5-0.5-3.1-0.9-4.7-1.3c-2.3-0.5-4.5-1-6.8-1.5c-1.6-0.4-3.2-0.7-4.8-1.1c-2-0.4-4-0.8-6-1.3
		c-1.3-0.3-2.5-1-4-1c-0.6,0-1.2-0.9-1.8-1.5c-0.2-0.2-0.3-0.6-0.4-0.8c-0.2,0.3-0.4,0.6-0.6,0.9c-0.1,0.2-0.1,0.4-0.1,0.6
		c-0.2,1.9,0.8,3.4,1.7,4.8c0.7,1.1,1.7,2.2,3.4,2.2c0.7,0,1.3,0.2,2,0.3c1.7,0.3,3.3,0.7,5,1c2.1,0.4,4.2,0.8,6.3,1.1
		c1.9,0.3,3.9,0.5,5.9,0.7c0.6,0.1,1.3,0,1.9,0.1c1.8,0.2,3.6,0.6,5.4,0.8c1.2,0.1,2.4,0,3.6,0.3c2.2,0.5,4.4,1.3,6.6,1.9
		C48.6,53.9,50.1,54.2,51.6,54.7 M85.7,10.7c3.3,0.2,6.6,0.4,10,0.7c2,0.2,3.9,0.6,5.9,0.9c1.6,0.2,3.2,0.4,4.8,0.7
		c1.7,0.2,3.5,0.4,5.2,0.7c1,0.2,1.6,0,1.9-1c0.1-0.4,0.4-0.7,0.6-1c0.2-0.3,0.5-0.6,0.8-0.9c-0.4-0.2-0.9-0.3-1.3-0.5
		c-0.1,0-0.3,0-0.4,0c-2-0.1-4-0.3-6.1-0.5c-0.1,0-0.2-0.1-0.4-0.1c-1.4-0.2-2.9-0.6-4.3-0.7c-2.1-0.2-4.2-1-6.4-0.7
		c0,0-0.1,0-0.1,0c-2.9-1.3-6.1-1.2-9.1-1.7c-2.3-0.4-4.7-0.3-7.1-0.8c-2.9-0.7-5.9-1.2-9-0.8c-1.8,0.2-3.6,0-5.4-0.2
		c-1.8-0.2-3.5-0.6-5.3-1c-1.8-0.4-3.6-0.8-5.3-1.1c-2.2-0.4-4.4-0.6-6.6-0.9c-2.8-0.4-5.6-0.5-8.3,0.6c-0.2,0.1-0.4,0.3-0.6,0.5
		c0.2,0.1,0.4,0.3,0.7,0.4c1.8,0.3,3.6,0.5,5.3,0.9c3.5,0.8,6.9,1.9,10.4,2.7c1.6,0.4,3.3,0.6,5,0.7c0.8,0.1,1.6-0.1,2.4,0
		c2.3,0.3,4.6,0.6,6.9,0.9c0.9,0.1,1.7,0.2,2.6,0.3c1.5,0.2,2.9,0.5,4.4,0.8c1.4,0.2,2.8,0.4,4.3,0.6C82.5,10.2,84,10.5,85.7,10.7
		 M57.1,19.1c-0.9-0.2-1.9-0.3-2.8-0.5c-1.4-0.2-2.7-0.5-4.1-0.7c-1.3-0.2-2.5-0.1-3.8-0.3c-3.1-0.5-6.2-1-9.3-1.5
		c-1.3-0.2-2.7-0.2-4-0.5c-2-0.4-3.6,0-4.6,1.6c-0.3,0.4-0.4,0.9-0.4,1.4c0,0.2,0.7,0.3,1.1,0.4c0.2,0.1,0.3,0.1,0.4,0.2
		c2.1,1.1,4.4,1.4,6.7,1.5c1.3,0.1,2.7,0.1,4,0.2c0.6,0.1,1.3,0.2,1.9,0.3c2.1,0.3,4.2,0.7,6.3,1c1,0.1,2-0.1,2.9,0
		c2.1,0.2,4.2,0.9,6.2,0.8c2.9-0.1,5.5,1.1,8.2,1.5c1.6,0.2,3.1,0.6,4.7,1c1.9,0.4,3.8,0.6,5.6,1.1c2.3,0.6,4.5,1.6,6.8,2.3
		c1.9,0.6,3.8,0.7,5.1-1.3c0.3-0.4,0.6-0.7,1-1c0.4-0.3,0.9-0.6,1.4-0.6c1.3-0.1,2.5-0.2,3.8-0.2c0.2,0,0.4-0.1,0.5-0.2
		c-0.2-0.2-0.3-0.4-0.5-0.5c-0.7-0.1-1.4-0.2-2.1-0.2c-1.4-0.1-2.8,0-4.1-0.3c-3.1-0.5-6.2-1.2-9.3-1.7c-2.9-0.5-5.9-0.8-8.8-1.4
		c-2.3-0.4-4.6-1-6.9-1.4C61.2,20,59.2,19.6,57.1,19.1 M32.4,38.3c-2.1-0.4-4.2-0.7-6.2-1.1c-1.3-0.3-2.7-0.6-4-1.1
		c-2-0.8-3.8-0.8-5.5,0.8c-0.2,0.2-0.6,0.3-0.9,0.5c-0.2,0.1-0.3,0.2-0.5,0.2c0.2,0.2,0.4,0.4,0.7,0.5c1,0.3,2,0.6,3,0.9
		c1.5,0.4,2.9,0.8,4.4,1.1c1.5,0.4,3,0.7,4.5,1.1c1.5,0.4,2.8,1.5,4.5,1.4c0.8-0.1,1.6,0.1,2.5,0.3c1.6,0.4,3.3,0.8,4.9,1.2
		c2.6,0.6,5.3,0.8,7.9,1.7c3.1,1.1,6.3,1.8,9.5,2.7c3.4,0.9,6.7,1.9,10.2,2c0.7,0,1.5,0.2,2.2,0.3c1.8,0.4,3.5,0.9,5.2,1.4
		c3.8,1,7.6,1.9,11.4,2.8c0.7,0.2,1.5,0.2,1.9-0.8c0.1-0.2,0.5-0.4,0.7-0.4c0.9,0.1,1.7,0.2,2.6,0.4c0.2,0,0.4,0,0.6,0
		c-0.1-0.2-0.1-0.4-0.3-0.5c-0.7-0.4-1.4-0.7-2.1-1c-1.4-0.7-2.9-1.4-4.4-2c-1.8-0.6-3.7-1.1-5.6-1.6c-1.4-0.4-2.9-0.6-4.4-0.9
		c-2.4-0.5-4.8-0.8-7.2-1.3c-1.7-0.4-3.4-0.9-5.2-1c-1.5-0.1-3-0.5-4.4-0.7c-1.4-0.1-2.8,0-4.2-0.1c-1.1-0.1-2.3-0.1-3.4-0.4
		c-2.2-0.6-4.5-1-6.6-2.1c-1.4-0.8-3.1-1-4.6-1.5C37.2,40,34.9,39.1,32.4,38.3 M26.8,44.1c0.7,0.2,1.3,0.5,2,0.6
		c2.2,0.5,4.4,0.9,6.6,1.5c1.9,0.5,3.8,1.4,5.7,1.9c2.1,0.7,4.3,1.2,6.5,1.7c2.1,0.5,4.2,0.9,6.2,1.3c2.2,0.4,4.4,0.9,6.6,1.3
		c1.9,0.4,3.7,0.9,5.6,1.3c2.5,0.6,5.1,1.1,7.6,1.8c3.5,0.9,6.9,1.9,10.4,2.8c1.7,0.5,1.6,0.5,2.5-1c0.1-0.2,0.3-0.2,0.4-0.4
		c0.1-0.2,0.2-0.5,0.4-0.7c-0.3-0.1-0.7-0.3-0.9-0.2c-0.8,0.5-1.6,0.2-2.1-0.3c-1.4-1.2-3.3-1.1-4.9-1.6c-2.2-0.7-4.6-0.9-7-1.4
		c-2.7-0.6-5.4-1.2-8.1-1.7c-1.6-0.3-3.3-0.6-4.9-0.9c-3.6-0.7-7.1-1.6-10.5-2.8c-1.4-0.5-2.8-0.8-4.3-1.1c-1.9-0.5-3.8-0.9-5.7-1.3
		c-2.4-0.5-4.8-0.8-7.2-1.4c-2.8-0.7-5.5-2.1-8.5-2.5c-1.9-0.2-3.7-0.9-5.5-1.2c-1-0.2-1.8-0.8-2.9-0.7c-0.2,0-0.5-0.4-0.5-0.6
		c-0.1-0.7-0.3-0.4-0.6-0.2c-0.6,0.5-1.2,1-1.8,1.6c-0.2,0.2-0.3,0.5-0.5,0.8c0.3,0.1,0.6,0.4,1,0.4c1.6,0.2,3.3,0.4,4.9,0.7
		C20.3,42.6,23.4,43.4,26.8,44.1 M85.1,41.2c-0.2-0.8-0.4-1.6-0.7-2.4c-0.1-0.3-0.5-0.7-0.8-0.7c-1.7,0.1-3.2-0.7-4.8-1.1
		c-1.9-0.4-3.8-1.1-5.8-0.9c-0.7,0.1-1.4-0.1-2.1-0.2c-2.2-0.3-4.3-0.7-6.4-1.1c-1.7-0.3-3.5-0.7-5.2-1.1c-1.6-0.4-3.1-1-4.6-1.3
		c-2.5-0.4-4.9-0.7-7.4-1.5c-2.2-0.7-4.6-1.1-6.9-1.6c-3.4-0.7-6.9-1.4-10.3-2.2c-1.4-0.3-3-0.5-4.2-1.2C25,25.4,25,26,24.8,26.3
		c-0.3,0.5-0.3,1.1-0.6,1.6c-0.5,1.3-0.6,1.4,0.8,1.6c2,0.4,4,0.7,6.1,1c0.8,0.1,1.5,0,2.3,0c2.9-0.1,5.8,0.8,8.6,1.3
		c0.8,0.1,1.5,0.5,2.3,0.6c3,0.7,6,1.4,9.1,2c3,0.6,5.9,1.3,8.9,1.9c2.4,0.5,4.8,1,7.1,1.7c3.3,1,6.5,2.1,9.8,3.1
		c1.8,0.6,3.6,1,5.4,1.5c0.4,0.1,0.9,0.1,1.3,0.2c-0.1-0.4-0.3-0.8-0.4-1.3C85.3,41.6,85.3,41.4,85.1,41.2 M23.9,25.9
		c0.4-1,0.7-1.9,1.1-2.9c0.1-0.3,0.2-0.8,0-0.9c-0.2-0.2-0.7-0.3-1-0.2c-2.4,0.5-4.8,1.1-7.2,1.7c-1.9,0.4-3.8,0.7-4.8,2.8
		c-0.7,1.4-0.6,3.1,0.3,4.2c1.3,1.5,2.6,3,2.4,5.2c0,0.2,0.1,0.5,0.2,0.5c0.2,0,0.4-0.1,0.6-0.2c0.2-0.1,0.4-0.2,0.5-0.3
		c1.7-1.5,3.9-2.5,5.3-4.3c1-1.3,1-1.2-0.2-2.3c-0.2-0.1-0.3-0.4-0.4-0.6c0.2,0,0.4-0.1,0.6-0.1c1.1,0.2,1.8-0.2,2-1.4
		C23.5,26.7,23.8,26.4,23.9,25.9 M99.2,35.1c-1-0.3-2.1-0.5-3.1-0.8c-1.1-0.3-2.2-0.7-3.4-1c-0.4-0.1-0.9-0.1-1,0.6
		c0,0.9-0.3,1.8-0.2,2.6c0.1,0.8,0.4,2,0.9,2.2c1.3,0.6,2.9,0.9,4.3,1.2c1.9,0.4,3.9,0.7,5.8,1.1c2.2,0.4,4.4,0.9,6.6,1.3
		c0.9,0.2,0.9-0.3,0.8-1.1c-0.2-1.2,0-2.5-0.2-3.8c0-0.3-0.5-0.9-0.8-0.9c-1.8-0.3-3.7-0.4-5.5-0.7C102.1,35.7,100.8,35.4,99.2,35.1
		 M100.1,41.8c-2-0.3-4-0.6-6-0.9c-0.3,0-0.6-0.1-1-0.2c0.1,0.3,0.1,0.8,0.3,1c0.9,1.1,1.9,2.1,2.7,3.2c0.6,0.9,1.4,1.2,2.4,1.1
		c0.3,0,0.6,0.1,0.9,0.2c1.6,0.6,3.1,1.3,4.7,1.7c2.2,0.6,4.6,0.8,6.7,1.9c0,0,0.4-0.3,0.4-0.4c-0.3-1.5-0.5-3.1-0.9-4.6
		c-0.1-0.4-0.7-1-1.1-1.1c-2.4-0.6-4.8-1.1-7.2-1.6C101.4,42,100.8,41.9,100.1,41.8 M99.9,27.8c-0.5-0.1-0.9-0.2-1.4-0.2
		c-1.3,0-2.5,0-3.8,0.2c-2.6,0.4-4.3,1.1-5.3,4.1c-0.2,0.7-0.6,1.3-0.8,1.9c-0.4,1.2-0.9,2.4-0.3,3.7c0.6,1.5,1.1,3,1.8,4.4
		c0.6,1.2,1.5,2.2,2.3,3.2c1,1.2,2.2,2.3,3.3,3.4c0.1,0.1,0.4,0.1,0.4,0.1c0.1-0.1,0.3-0.4,0.2-0.5c-0.8-1.3-1.5-2.6-2.3-3.9
		c-0.4-0.6-1-1.1-1.4-1.7c-0.7-0.9-1.3-1.7-2-2.6c-0.2-0.2-0.2-0.6-0.2-0.9c0-0.4,0.2-0.7,0.2-1.1c0-1.2-0.3-2.5-0.1-3.7
		c0.2-1.6,0.7-3.3,2.5-4c1.3-0.4,2.7-0.7,4-1c1.6-0.3,3.3-0.7,5-0.3c2.3,0.6,4.6,1.1,6.9,0.4c0.9-0.3,1.8-0.7,2.7-1.1
		c0.1-0.1,0.2-0.3,0.2-0.5c-0.2,0-0.4,0-0.6,0c-1.3,0-2.6,0.2-3.9,0.1c-1.4-0.1-2.7-0.3-4.1-0.4C102.2,27.5,101.1,27.7,99.9,27.8
		 M107.4,35.5c0.4,0,0.8,0,1.2,0c0.9,0.1,1.3-0.2,1.3-1.2c0-0.6,0.1-1.3,0.3-1.8c0.3-0.7,0.9-1.2,1.3-1.8c0.1-0.2,0.1-0.5,0.2-0.8
		c-0.3,0-0.6-0.1-0.8,0c-1.1,0.3-2.1,0.7-3.2,0.9c-1.3,0.3-2.7,0.5-4-0.2c-0.7-0.3-1.6-0.4-2.4-0.5c-2.6-0.2-5,0.5-7.5,1.1
		c-0.5,0.1-1,0.8-1.4,1.2c-0.1,0-0.1,0.2,0,0.3c0.1,0.1,0.3,0.1,0.3,0.1c0.8-1,1.9-0.5,2.7-0.2C99.2,33.9,103.3,34.7,107.4,35.5
		 M97.6,55.1c0.1,0.7,0.3,0.5,0.7,0.2c0.6-0.6,1-1.4,2-1.5c0.5-0.1,1-0.1,1.4-0.2c2.1-0.8,4.3-0.8,6.5-0.4c1,0.2,2,0.6,3,0.9
		c0.5,0.2,0.7,0.2,0.6-0.5c-0.1-1.5-0.4-2.6-2.1-3.1c-1.8-0.5-3.4-1.6-5.4-1c-0.1,0-0.3,0-0.4-0.1c-1.1-1.3-2.8-1.5-4.3-2.1
		c-0.6-0.3-1.3-0.2-2-0.2c-0.2,0-0.5,0.4-0.4,0.6c0.2,1.2,0.4,2.4,0.8,3.5C98.5,52.6,98.6,53.8,97.6,55.1 M11.9,34.8
		c0.3,0.2,0.7,0.4,1,0.6c0-0.4,0-0.7-0.1-1.1c0-0.2-0.1-0.3-0.2-0.5c-0.1-2-1.9-3.4-2-5.4c-0.1-1.5,0.8-3.9,2-4.9
		c1.1-0.9,2.5-1.1,3.8-1.5c1.9-0.5,3.8-1,5.7-1.2c1.4-0.2,2.8-0.6,4-1.4c0.2-0.1,0.3-0.5,0.3-0.7c-0.1-0.2-0.5-0.3-0.7-0.3
		c-0.5,0-1,0.2-1.5,0.3c-2.2,0.5-4.4,1.1-6.6,1.5c-1.8,0.4-3.6,0.5-5.3,0.9C8,22.3,7.3,25,8.1,28.6C8.6,31.1,10.4,32.8,11.9,34.8
		 M117.5,57.8c0.5,0.5,0.6,0.1,0.5-0.3c-0.3-2-0.9-4.1-1-6.1c-0.1-3.3-0.5-6.6-0.8-9.9c-0.2-2.4,0-4.8,0-7.1c0-0.5,0.2-1,0.2-1.5
		c0-0.3-0.4-0.5-0.7-0.7c-0.2,0.3-0.5,0.5-0.6,0.8c-0.1,0.8,0,1.6,0,2.4c0,1.2,0.3,2.4-0.9,3.3c-0.2,0.2-0.2,0.6-0.2,1
		c0,2,0,4,0,6.1c0,0.4,0.1,0.7,0.2,1.1c0.1,1.2,0,2.4,0.2,3.5c0.2,1.4,0.8,2.8,0.8,4.2c0.1,1,0.6,1.5,1.2,2.1
		C116.7,57,117,57.3,117.5,57.8 M101.9,55.8c0.7-0.2,1.4-0.6,2.1-0.6c1.7-0.1,3.3,0.5,5,1c2,0.6,4,1.1,5.3,2.9
		c0.1,0.1,0.4,0.1,0.6,0.2c-0.1-0.2-0.1-0.4-0.2-0.5c-0.5-0.6-1.1-1-1.4-1.7c-0.5-1.2-1.4-1.8-2.6-2c-1.5-0.2-2.9-0.7-4.3-1
		c-1.8-0.3-3.5,0.4-5.2,0.9c-2.8,0.8-5.1,2.3-7,4.4c-1.7,1.7-3,3.7-4.4,5.7c-0.8,1.2-1.5,2.5-2.1,3.9c-0.4,0.8-0.6,1.8-0.8,2.7
		c-0.2,0.9-0.2,1.8-0.2,2.7c0,0.2,0.3,0.4,0.4,0.6c0.1-0.1,0.3-0.2,0.4-0.3c0.2-0.7,0.4-1.5,0.7-2.2c0.8-2.1,1.4-4.2,2.5-6.2
		c0.8-1.6,2.2-2.8,3.1-4.3c1.6-2.5,4-3.8,6.3-5.2C100.7,56.4,101.2,56.1,101.9,55.8 M38.2,52.8c-0.4-0.1-0.9-0.3-1.3-0.4
		c-0.2,0-0.5,0.1-0.7,0.1c0.2,0.2,0.3,0.4,0.5,0.5c2.6,1.9,4,4.5,4.4,7.6c0.3,2.9,0.7,5.7,1.7,8.4c0.7,2,2.8,3.8,5.2,3.3
		c0.5-0.1,0.9-0.7,1.3-1.2c0.1-0.1-0.2-0.8-0.5-0.8c-0.5-0.1-1,0-1.5,0c-0.6,0-1.3,0.2-1.7,0c-1.1-0.7-1.6-1.9-1.8-3.2
		c-0.2-2.1-0.2-4.3-0.8-6.4C42.1,57.6,41,54.8,38.2,52.8 M87,37.1c0.1-0.8,0-1.7,0.2-2.5c0.5-1.6,1.2-3.1,1.8-4.7
		c0.1-0.2,0-0.4,0-0.6c-0.2,0-0.5,0-0.6,0.2c-0.9,1.3-2.1,2.6-2.6,4.1c-0.6,1.7-0.7,3.6-0.3,5.4c0.6,2.5,1.9,4.4,3.7,6.1
		c1.8,1.7,3.5,3.3,5.1,5.2c0.6,0.7,0.6,1.9,0.9,2.8c0,0.2-0.1,0.4-0.1,0.6c0.2-0.1,0.5-0.1,0.7-0.3c1-0.9,0.9-2.8-0.3-4
		c-1.3-1.4-2.7-2.7-4-4.1C89.1,43.2,88.2,40.1,87,37.1 M12.2,49.4c-1.2,0.5-2.1,1.4-2.6,2.6c-0.3,0.7-0.6,1.3-0.8,2
		c-0.4,1.2-0.8,2.5-0.9,3.7c-0.1,1.7,0.1,3.4,0.2,5.2c0,0.3,0,0.6,0,0.9c0,0.1,0.1,0.2,0.2,0.3C8.3,64,8.5,64,8.5,63.9
		c0.2-0.7,0.3-1.5,0.4-2.2c0.2-1.4,0.3-2.9,0.7-4.2c0.3-1.2,0.7-2.5,1.4-3.6c0.9-1.4,1.3-3.4,3.4-3.7c0.1,0,0.3-0.3,0.4-0.4
		c-0.2-0.1-0.4-0.4-0.5-0.4C13.6,49.2,13,49.3,12.2,49.4 M8.1,65.5C8,66,7.9,66.5,7.8,67c0,1.2,0,2.4,0,3.7c0,1-0.2,2.1-1.3,2.7
		c-1.2,0.7-2.5,1.3-4,0.5c-0.1-0.1-0.4-0.1-0.5,0c-0.4,0.2-0.8,0.4-1.1,0.7c0.3,0.3,0.7,0.7,1,1c0.2,0.1,0.5,0,0.7,0
		c1.8-0.2,3.6-0.4,5.3-0.6c1.6-0.2,2.4-1.4,1.8-2.9c-0.8-1.9-1.4-3.9-1.3-6C8.5,65.8,8.3,65.6,8.1,65.5 M89.4,59.4
		c0,0.2,0,0.4-0.1,0.5c-1.1,1.6-1.2,3.5-1.5,5.4c0,0.2,0.1,0.5,0.1,0.8c0.2-0.2,0.4-0.3,0.5-0.5c1.2-1.9,2.2-3.9,3.5-5.7
		c0.7-1,1.7-1.7,2.6-2.4c0.5-0.4,1.2-0.8,1.8-1.2c0.1-0.1,0.1-0.2,0.1-0.4c-0.1,0-0.2,0.1-0.3,0.1c-1.5,0-2.9,1.2-4.5,0.6
		c-0.1,0-0.2,0-0.3,0.1C90.7,57.6,90.1,58.4,89.4,59.4 M120.4,72.4c0.5,0.8,1,1.7,1.4,2.5c0.1,0.1,0.2,0.2,0.3,0.3
		c0-0.1,0.1-0.3,0.1-0.4c-0.3-0.9-0.4-1.9-0.9-2.7c-0.9-1.4-1-3-1.4-4.6c-0.8-3-1.2-6.1-2.9-8.8c-0.3-0.5-0.7-0.9-1.1-1.4
		c0.1,0.6,0,1.3,0.2,1.9c0.6,2.2,1.4,4.4,2.1,6.6C118.9,68,119.6,70.2,120.4,72.4 M84.7,85.8c-0.5,1-0.8,2.1-1.9,2.5
		c-0.7,0.3-1.5,0.5-2.3,0.6c-0.7,0.1-0.9,0.5-0.7,1c0.1,0.4,0.5,0.8,1.2,0.4c1.5-0.8,3.1-1.4,4.7-2.2c0.2-0.1,0.4-0.6,0.4-0.9
		c0-0.6-0.1-1.2-0.2-1.7c-0.1-0.5-0.2-0.9-0.2-1.4c-0.2,0.4-0.4,0.7-0.6,1.1C84.9,85.3,84.8,85.4,84.7,85.8 M85.2,68.6
		c0,2.3,0,4.5,0,6.8c0,0.2,0.2,0.4,0.2,0.7c0.1-0.2,0.2-0.4,0.2-0.6c-0.2-3.5,0.7-7,0.9-10.5c0-0.2,0-0.5,0-0.7
		c-0.3,0.2-0.8,0.4-0.8,0.7C85.5,66,85.4,67.2,85.2,68.6 M128.1,76.5c0.2,0.4,0.2,0.9,0.5,1.1c0.6,0.4,1.2,0.9,1,1.7
		c0,0.1,0.2,0.3,0.3,0.4c0.1-0.1,0.3-0.2,0.4-0.3c0.2-0.7,0.5-1.3,0.6-2c0.2-0.9-0.4-1.4-1-1.7C129.3,75.4,128.6,75.7,128.1,76.5
		 M113.6,18.6c0,0.8,0.1,1.5,0,2.3c0,0.5-0.2,1.1-0.2,1.6c0,0.2,0.2,0.5,0.3,0.7c0.2-0.2,0.5-0.4,0.5-0.6c0.1-1.1,1-2.1,0.1-3.2
		c-0.1-0.1,0.1-0.4,0.1-0.7c0-1.1-0.1-2.1-0.1-3.2c0-0.1-0.2-0.2-0.4-0.3c-0.1,0.1-0.2,0.2-0.2,0.3
		C113.6,16.5,113.6,17.4,113.6,18.6 M111.6,40.4c-0.1-0.1-0.2-0.2-0.2-0.3c0-0.7,0-1.4,0-2c0-0.2-0.4-0.4-0.6-0.5
		c-0.1,0.2-0.1,0.4-0.1,0.6c0,0.2-0.1,0.3-0.1,0.5c0,1.3,0.1,2.6,0.2,3.9c0,0.2,0.4,0.4,0.5,0.6c0.1-0.2,0.3-0.4,0.3-0.6
		C111.6,41.8,111.6,41.2,111.6,40.4 M113.6,31.1c-0.1-0.1-0.1-0.3-0.2-0.4c-0.1-0.2-0.1-0.3-0.2-0.5c-0.1,0.2-0.2,0.4-0.2,0.6
		c-0.1,0.7-0.2,1.4-0.2,2.2c0,0.7,0,1.4,0,2.1c0,0.1,0.1,0.2,0.2,0.4c0.1-0.1,0.1-0.2,0.2-0.3C113.8,33.9,113.5,32.6,113.6,31.1
		 M115.5,29.6c0.1-0.6,0.3-1.2,0.4-1.9c0-0.1-0.1-0.3-0.2-0.4c-0.2,0.1-0.4,0.1-0.4,0.3c-0.6,0.8-0.8,1.7-0.7,2.7
		c0.1,0.4,0.2,0.9,0.2,1.3c0.2-0.5,0.4-0.9,0.6-1.4C115.5,30.2,115.5,30,115.5,29.6 M9.2,39.9c0.4,0,0.8,0,1.2-0.1
		c0.2-0.1,0.4-0.3,0.7-0.5c-0.1-0.1-0.3-0.3-0.4-0.4c-1-0.1-2-0.2-3-0.2c-0.1,0-0.3,0.1-0.4,0.1c0.1,0.1,0.1,0.4,0.2,0.4
		C8,39.5,8.6,39.7,9.2,39.9 M113.4,26c0.3-0.3,0.7-0.6,0.9-1c0.1-0.2,0-0.5,0-0.7c-0.2,0.1-0.4,0.2-0.6,0.3
		c-0.2,0.2-0.4,0.4-0.7,0.6c-0.3,0.2-0.7,0.4-1.1,0.6c0.4,0.1,0.8,0.2,1.2,0.3C113.1,26.1,113.2,26.1,113.4,26 M116,17.4
		c-0.2-0.2-0.3-0.4-0.5-0.5c0,0.3-0.2,0.5-0.1,0.8c0.1,0.6,0.3,1.2,0.4,1.8c0,0.2,0.1,0.3,0.2,0.5c0.1-0.2,0.4-0.4,0.4-0.5
		C116.3,18.7,116.1,18.2,116,17.4 M118.5,13.8c0-0.1-0.1-0.2-0.1-0.1c-0.5,0.2-1,1.6-0.8,2c0.1,0.1,0.3,0.3,0.4,0.2
		c0.1,0,0.3-0.2,0.4-0.3C118.4,15.1,118.5,14.5,118.5,13.8 M111.1,45.1c0.2,0.8,0.4,1.7,0.6,2.5c0,0.1,0.2,0.1,0.3,0.2
		c0-0.1,0.1-0.2,0.1-0.4c-0.1-0.8-0.2-1.7-0.4-2.5c0-0.3-0.2-0.5-0.3-0.7C111.4,44.5,111.3,44.7,111.1,45.1 M113.7,54.6
		c-0.1-0.8-0.2-1.6-0.3-2.5c0-0.2-0.3-0.3-0.5-0.4c0,0.2,0,0.3,0,0.5C112.7,53.2,112.9,54,113.7,54.6 M116.8,12.4c0,0.2,0,0.5,0,0.7
		c0,0.1,0.1,0.2,0.1,0.2c0.1,0,0.3-0.1,0.3-0.1C117.2,13,117.1,12.6,116.8,12.4 M112.7,37.2c0.1,0.2,0.2,0.4,0.2,0.5
		c0.1-0.1,0.3-0.3,0.4-0.4C113.1,37.2,113,37.2,112.7,37.2z"/>
</g>
</svg>
