<svg enable-background="new 0 0 93.1 31.1" viewBox="0 0 93.1 31.1" xmlns="http://www.w3.org/2000/svg"><path d="m70.2 23.7c-.6 0-1.1 0-1.6 0-1.6-.1-3.2-.2-4.8-.2-1.4 0-2.7.2-4.1.3-.2 0-.5.1-.6 0-1.6-.6-2.3.3-2.9 1.5-.4.8-.9.8-1.6.3-2.1-1.4-2.6-.9-4.4 0-.8.4-1.7.7-2.6.6-.3 0-.7-.1-.4.5.1.2-.3.9-.4.9-.4 0-.9-.2-1.1-.4-1-1.6-2.7-2.1-4.4-2.1-1.4 0-2.9.4-4.4.6-1.2.2-2.4.3-3.5.6-1.7.4-3.1 1.2-4.4 2.4-.9.8-2.1 1.4-3.1 2.2-.8.7-1.5.2-2-.2-.4-.4-.6-1-.9-1.5-.3-.7-.6-1.4-1.5-1.6-.6-.1-1.1-.5-1.7-.8-1-.5-2.1-1.1-3.1-1.6-.1-.1-.3 0-.5 0 .1.1.1.4.2.4 1.3.8 2.4 1.9 4 2.3.4.1 1.2.6 1.1.9-.1.8-.9.5-1.4.3-2.1-.6-3.9-1.7-5.6-2.9-1.2-.9-2.4-2-3.8-2.7-1.6-.8-3.3-1.2-5-1.7-1.7-.8-3.4-1.5-4.5-2.9-.1-.1-.2-.2-.2-.3 0-.5 0-.9 0-1.4.4.1.9.1 1.3.3.2.1.4.2.6.4 1.2 1.6 3 2 4.8 2.4.2 0 .4-.1.6-.2-.3 0-.3-.2-.4-.2-1.5-1-3.1-2.1-4.6-3.1-.8-.5-1.7-.8-2.4-1.3-.4-.3-.6-.8-.8-1.2.5-.1 1-.2 1.4-.2.2 0 .5.2.7.3 2.6 1.7 5.2 3.5 7.8 5.2 1.7 1.2 3.5 2.3 5.2 3.4.2.1.5 0 .7 0-.1-.2-.1-.5-.2-.6-3.7-2.8-7.3-5.5-11.1-8.2-1-.7-2.2-1.2-3.3-1.8-.3-.2-.6-.5-.9-.8.3-.3.5-.7.9-.8 2.1-.8 4.3-1.4 6.4-2.2 2.6-1 5.2-2.2 7.8-3.2.9-.4 2-.5 2.9-.9 1.4-.6 2.8-1.2 4.4-1.4 1.1 0 2.2-.2 3.2-.4 2.2-.4 4.3-.1 6.4.6 1.8.6 3.5 1.7 5.3 2.4 1 .4 2 .5 3.1.6.4 0 .9-.4 1.1-.7 1.2-1.4 2.5-2.5 4.3-3.1 1-.3 1.9-1 2.9-1.3 1.4-.4 2.9-.7 4.4-1 1-.2 2.1-.3 3.1-.2 2.1.2 4.2.6 6.3.8.9.2 1.8.2 2.7.3 2.9.1 5.8.3 8.8.3.7 0 1.5-.2 2.2-.4 1.3-.4 1.7 0 1.6 1.2s.7 1.9 1.5 2.6c.6.6 1.3 1.1 1.9 1.7 2.4 2.1 4.6 4.5 7.5 6.2.9.5 1.7.9 2.8.9.4 0 .8.4 1.1.7-.3.3-.6.6-1 .8-.3.1-.7.2-1 .1-1.4-.5-2.3.4-3.3 1.1-.2.1-.2.3-.3.5.2.1.4.2.6.3h1c.3 0 .5.2.8.3-.1.3-.2.8-.4.9-.7.3-1.4.5-2.2.8-.1 0-.2.1-.4.2.1.1.3.2.4.2.2 0 .4.1.6 0 .7-.3 1.2-.1 1.2.6 0 .4-.4 1.1-.8 1.2-1.6.5-3.2 1.2-4.9 1.1-.4 0-.8.3-1.2.3-1.3.3-2.6.6-4 .7-2.6.1-5.2.1-7.9.3m-20.7-5.1c.4.7.9 1.1 1.7.7s1.5-1 2.4-1.2c2.7-.7 5.5-1.2 8.3-1.3.9 0 1.9.2 2.7 0 2.2-.6 4.4-.2 6.5-.3.6 0 1.3-.1 1.9-.2 1.9-.2 3.7-.4 5.6-.6.8-.1 1.6-.1 2.4-.2.6-.1 1.3-.2 1.9-.4 1.2-.2 2.3-.4 3.5-.7.8-.2.9-1 .3-1.6-1.8-1.5-3.6-2.9-5.3-4.4s-3.2-3-4.8-4.5c-.5-.4-1-.7-1.7-.7-1 .1-2.1.1-3.1 0-1.6-.1-3.2-.2-4.8-.4-1.3-.1-2.7-.1-4-.4-2.4-.6-4.9-.8-7.3-.9-.8 0-1.6.1-2.4.2-.9.1-1.8.4-2.6.6-.6.2-1.3.4-1.9.7-1.1.5-2.2.9-3.3 1.5-1 .6-2.1 1.1-2 2.6 0 .3-.2.6-.4.9-.7 1.1-.7 1.6.1 2.7 1 1.4 2 2.7 3.1 4.1 1.1 1.3 2.1 2.5 3.2 3.8m-44.3-5.7c.6.4 1.3.8 1.9 1.2 1.5 1 3 2.1 4.4 3.2 1.3 1 2.6 2.2 3.9 3.2 1.9 1.6 3.9 3.1 5.8 4.7.7.6.9.5 1.5-.2 1.1-1.1 2.2-2.2 3.5-3.2.8-.6 1.7-1 2.6-1.5.8-.4 1.6-1 2.5-1.2 1.4-.3 2.9-.4 4.4-.6 1.8-.2 3.6-.6 5.5-.4 2 .2 3.9.5 5.8 1.1.2.1.5 0 .7-.1-.1-.2-.1-.4-.2-.5-1.3-1.7-2.6-3.5-3.9-5.2-1-1.4-2.2-2.8-2.7-4.5-.2-.8-.8-1.2-1.7-1.4-.8-.2-1.6-.5-2.3-.8-1-.4-2-1-3-1.4-1.8-.7-3.5-1.3-5.4-1.3-1.1 0-2.2.4-3.3.5-1.8.2-3.5.2-5.1 1.2-1 .6-2.3.7-3.4 1.2-3.5 1.6-7 3.2-10.8 4.1-.5.1-1 .6-1.4 1 .2.3.4.6.7.9m29.8 9.3c1.2-.1 2.4-.2 3.6-.2 1.4.1 2.7.4 4.1.6.8.2 1.6.4 2.4.6s1.9-.4 2-1.1c0-.4-.3-1-.6-1.1-.6-.3-1.4-.5-2.1-.6-1-.2-2.1-.3-3.1-.4-1.3-.1-2.5-.1-3.8 0-1 0-2.1.3-3.1.3-1.9.1-3.7.5-5.3 1.6-.4.3-.8.4-1.2.7-1.2.9-2.3 1.8-3.4 2.8-.1.1-.1.5-.1.7.3 0 .6.1.8 0 .7-.4 1.4-.9 2.1-1.5 1.7-1.4 3.6-2.2 5.9-2.2.6.2 1.1-.1 1.8-.2m24.2-.7s-.1.1-.1.1c-.2.1-.4.3-.6.4.2.3.5.4.8.2.1-.1.3-.1.5-.1 3.3.1 6.6.1 9.9.2h6.1c.5 0 .9-.2 1.4-.3s.9-.3 1.3-.5c0-.1-.1-.2-.1-.2-.4 0-.7 0-1.1 0-1.7-.2-3.4-.4-5.2-.5-.9-.1-1.7-.1-2.6-.2-1.3-.1-2.6-.3-3.8-.1-2.1.1-4.2.6-6.5 1m11.1-2.9c.2 0 .4-.1.6 0 2.2.9 4.5.9 6.8 1.1.2 0 .6-.1.7-.2.3-.7-.2-1.1-.5-1.6-.1-.1-.4-.2-.6-.1-1.3 0-2.5.2-3.8.2-1.1.1-2.2 0-3.3 0-.1 0-.2.1-.3.2.1.1.2.2.4.4m-8.5 0c-.2-.1-.4-.2-.6-.2-1.1.2-2.3.4-3.4.7-1.3.4-2.7.8-4 1.3-.7.3-.6.9-.3 1.4.4.5.8.5 1.3.1.4-.4.9-.7 1.4-.9 1.8-.6 3.6-1.2 5.3-1.8.2-.1.3-.4.3-.6m-32.6 6.6c-.3.2-.6.4-.9.6-1 .8-2 1.5-3 2.3-.2.1-.1.5-.2.8.2-.1.5-.1.6-.2 1.3-.9 2.6-1.9 3.9-2.9.2-.2.4-.3.7-.4 1.4-.5 2.7-1.1 4.3-1.1.2 0 .4-.2.6-.3-.2-.1-.4-.3-.6-.4s-.4-.1-.6 0c-1.6.5-3.2 1-4.8 1.6m27.6-2.2c-.2-.1-.4-.3-.6-.2-.3.1-.5.3-.7.5 0 0 .1.2.1.2.4-.1 1 .4 1.2-.5m28.2-2.8c.3-.1.5-.3.8-.4 0 0-.1-.1-.1-.1-.3.1-.7.2-1 .3-.1 0-.1.1-.2.2.1 0 .3.1.5 0m-2.1-1.6h.6c.1 0 .2-.1.2-.1 0-.1-.1-.2-.1-.2-.2 0-.5.1-.7.3z" fill="#0d7236"/></svg>