<?xml version="1.0" encoding="utf-8"?>
<!-- Generator: Adobe Illustrator 26.2.1, SVG Export Plug-In . SVG Version: 6.00 Build 0)  -->
<svg version="1.1" id="Layer_1" xmlns="http://www.w3.org/2000/svg" xmlns:xlink="http://www.w3.org/1999/xlink" x="0px" y="0px"
	 viewBox="0 0 141.4 140.5" style="enable-background:new 0 0 141.4 140.5;" xml:space="preserve">
<style type="text/css">
	.st0{fill:#0D7236;}
</style>
<g>
	<path class="st0" d="M65.5,117.7c-0.1-2-0.5-3.9-0.4-5.9c0.1-1.7,0-3.5,0-5.2c0-0.5,0.1-1,0.1-1.6c0.1-1.9,0.1-3.8,0.1-5.8
		c0-0.9,0-1.9,0.1-2.8c0.1-1.4,0.3-2.7,0.5-4.1c0-0.1,0-0.1,0-0.2c0-1.5,0.1-3,0.1-4.5c0-0.1,0-0.2,0-0.4c-0.1-0.2-0.2-0.4-0.2-0.5
		c-0.1,0.1-0.2,0.3-0.3,0.4c-2.1,2.2-3.5,4.9-4.9,7.5c-0.5,1-0.9,2-1.4,3c-0.4,0.8-0.9,1.5-1.3,2.3c-0.5,1-1,2-1.4,3
		c-0.7,1.4-1.4,2.8-2.1,4.2c-0.1,0.2,0,0.4-0.1,0.5c-0.4,0.5,0.3,0.6,0.3,1c0,0.5,0,1,0,1.6c0,0.5,0.2,0.9,0.2,1.4
		c0.1,1,0.2,2,0.2,3c0.1,1.7,0.2,3.4,0.2,5.1c0,0.7,0,1.5,0,2.2c0.1,1.2,0.2,2.3,0.3,3.5c0,0.5,0.1,1,0.1,1.4c0,1.3,0,2.5,0,3.8
		c0,0.8,0.1,1.5,0.1,2.3c0,0.5-0.2,1-0.4,1.4c-0.1,0.2-0.4,0.5-0.6,0.5c-0.8,0-0.6,0.6-0.6,1c0,0.5-0.2,0.6-0.6,0.6
		c-0.6,0-0.7-0.4-0.7-0.8c-0.1-1.1,0-2.3,0-3.4c0-1.5,0-3.1,0-4.6c0-0.7-0.1-1.4-0.1-2c0-1,0.2-2.1,0.2-3.1c0-0.4-0.1-0.8-0.1-1.3
		c0-1.3,0-2.6,0-3.9c0-1.3-0.1-2.6-0.1-4c0-1,0-2,0.1-3.1c0-0.1,0-0.1-0.1-0.2c-0.1,0-0.2,0-0.2,0.1c-0.2,0.3-0.4,0.6-0.6,0.9
		c-1,1.6-1.9,3.2-2.9,4.7c-1.2,1.9-2.6,3.6-4.2,5c-0.6,0.6-1.2,1.1-1.7,1.7c-1.3,1.4-2.8,2.5-4.3,3.6c-1.9,1.4-4,2.5-6.1,3.6
		c-2.1,1.1-4.3,2-6.7,2.6c-1,0.2-2,0.2-3,0.4c-1.3,0.2-2.6,0.4-3.9,0.6c-0.7,0.1-1.3,0.2-2,0.3c-2.1,0.1-4.1,0.3-6.2,0.4
		c-0.2,0-0.5-0.1-0.7-0.1c-0.5,0.1-0.7,0.5-0.8,1c-0.1,0.8-0.3,1.6-0.7,2.4c-0.3,0.6-0.4,1.3-0.5,2c-0.1,0.5-0.7,1-1.4,1.1
		c-0.6,0.1-1.6-0.3-1.7-0.8c-0.1-0.5,0-1.2,0.2-1.7c0.3-0.8,0.7-1.5,1-2.2c0.2-0.6,0.2-1.3,0.3-1.9c0-0.1-0.1-0.2-0.2-0.3
		c-1.2-0.2-2.3-0.4-3.5-0.5c-0.6,0-1.3,0.3-1.9,0.5c-0.4,0.1-0.7,0-1-0.3c-0.3-0.4-0.2-0.7,0.3-0.9c0.2-0.1,0.5-0.3,0.5-0.5
		c-0.1-1.7,0.6-3.1,1.1-4.6c0.1-0.2,0.1-0.4,0.1-0.7c0-0.6,0.3-1,0.7-1.4c0.3-0.3,0.5-0.7,0.8-1c0.1-0.1,0.3-0.2,0.4-0.2
		c1.3-0.2,2.5-0.3,3.8-0.5c1.3-0.2,2.5-0.5,3.8-0.8c1.6-0.4,3.1-0.8,4.7-1.2c1.9-0.5,3.9-0.9,5.8-1.5c1.5-0.4,2.8-1.2,4-2.3
		c0.8-0.8,1.8-1.3,2.5-2.1c1.2-1.4,2.2-2.9,3.4-4.4c1.8-2.4,3-5.1,4.6-7.6c1-1.7,1.7-3.5,2.8-5.2c1.2-1.9,2.5-3.7,3.7-5.5
		c0.9-1.4,1.8-2.9,2.7-4.3c1.1-1.6,2.3-3.2,3.5-4.8c1.1-1.6,2.2-3.1,3.3-4.7c0,0,0.1-0.1,0.2-0.1c0.1-0.1,0.2-0.1,0.3-0.2
		c-0.1-0.1-0.1-0.1-0.2-0.2c0,0,0-0.1,0-0.2c0.3-0.4,0.7-0.9,1.1-1.3c0.8-0.8,1.5-1.7,2.3-2.4c1.1-1,2.4-1.9,3.6-2.8
		c0.8-0.7,1.7-1.4,2.5-2.1c0.4-0.3,0.8-0.7,1.3-1c0.3-0.2,0.4-0.5,0.1-0.7c-0.9-0.7-0.9-1.7-1-2.6c-0.1-1.1-0.1-2.2-0.1-3.3
		c0-0.6-0.1-1.1-0.4-1.6c-0.7-1.4-0.6-1.1,0.4-2.1c0.6-0.6,1.4-1.1,2-1.7c0.2-0.1,0.3-0.3,0.5-0.4c0.5-0.4,1-0.7,0.5-1.5
		c-0.2-0.3,0-0.8,0-1.2c0-0.3-0.1-0.7-0.1-1c0-0.7,0-1.5,0-2.2c0-0.9,0-1.8,0.1-2.7c0-0.5,0-0.9,0-1.4c0-0.4-0.1-0.7-0.1-1.1
		c0-1.4-0.1-2.8-0.1-4.1c0-1.6,0.1-3.2,0.2-4.8c0-0.4-0.1-0.8-0.5-0.9c-0.4-0.2-0.5-0.5-0.5-0.9c0-0.1-0.1-0.2-0.1-0.4
		c0,0.1-0.1,0.2-0.1,0.3c-0.5,1.1-1.3,1.6-2.6,0.9c-0.1-0.1-0.3-0.1-0.5-0.1c-0.9,0-1.5-0.5-1.8-1.3c-0.3-0.7,0-1.3,0.8-2
		c1-0.8,2-1.7,3-2.6c0.4-0.4,0.9-0.7,1.4-1.1c-0.1,0.2-0.2,0.4-0.3,0.6c0.2-0.1,0.4-0.2,0.6-0.4c0,0-0.1-0.2-0.2-0.3
		c0.1-0.1,0.2-0.2,0.3-0.3c0.1-0.1,0.2-0.1,0.3-0.1c0,0.1,0,0.2,0,0.3c0,0.1,0,0.2,0,0.2c0.1,0,0.2,0,0.2-0.1
		c0.2-0.2,0.5-0.4,0.1-0.6c0,0,0-0.1,0-0.2c0.1-0.1,0.3-0.2,0.4-0.3c0,0.2,0,0.5,0.3,0.2c0.1-0.1,0.3-0.2,0.4-0.3
		c0.1-0.1,0.2-0.2,0.3-0.4c-0.1,0-0.3,0-0.4,0c0.7-0.6,1.3-1.1,2-1.7c0,0.1,0,0.2-0.1,0.2c0.1,0,0.2,0.1,0.2,0.1
		c0.1-0.1,0.2-0.3,0.3-0.3c0.7,0,1.1-0.5,1.5-1c0.1-0.1,0.1-0.2,0.1-0.3c-0.1,0-0.2,0-0.3,0c0.1-0.1,0.3-0.2,0.5-0.3
		c0.1,0.1,0.2,0.3,0.2,0.3c0.2,0,0.4-0.1,0.5-0.2c0.1-0.1,0-0.3,0-0.4c-0.1,0.1-0.2,0.2-0.4,0.2c-0.1,0.1-0.2,0.1-0.3,0.1
		c0.9-0.7,1.7-1.4,2.6-2.1c0.6-0.5,1.3-1,1.9-1.6c1.4-1.3,2.8-2.7,4.2-4.1c2.1-2.1,4.2-4.2,6.4-6.3c0.9-0.9,1.9-1.8,2.9-2.7
		c0.4-0.3,0.9-0.4,0.4-1c-0.1-0.1,0.2-0.5,0.5-0.7c1-0.8,2-1.7,3.1-2.5c1.1-0.8,2.2-1.6,3.3-2.4c0.7-0.5,1.4-0.5,2.1,0.1
		c0.4,0.4,0.8,0.8,1.2,1.2c1,1.1,2.1,2,3.4,2.7c0.2,0.1,0.5,0.3,0.7,0.5c0.6,0.5,0.6,1.2-0.1,1.6c-0.3,0.2-0.7,0.5-1.1,0.6
		c-0.6,0.2-0.4,0.5-0.2,0.9c0.1,0.3,0.3,0.6,0.4,0.9c-0.2,0-0.3,0.1-0.4,0.1c0,0.1,0.1,0.1,0.1,0.2c0.1-0.1,0.3-0.2,0.4-0.2
		c0.5,0.8,1,1.5,1.6,2.3c0.2,0.3,0.5,0.5,0.9,0.3c0.9-0.3,1.8-0.5,2.7-0.7c0,0,0.1,0,0.1,0c0.2,0,0.4,0,0.7,0.1
		c-0.1-0.2-0.3-0.4-0.4-0.6c-0.7-0.9-1.6-1.4-2.6-1.9c-0.5-0.2-1-0.5-1.5-0.7c0,0,0-0.2,0-0.2c0.2,0,0.5,0,0.6,0.1
		c0.7,0.3,1.3,0.6,2,0.9c0.1,0.1,0.3,0,0.5,0c-0.1-0.1-0.2-0.2-0.3-0.3c-0.6-0.4-1.3-0.9-1.9-1.3c-0.1-0.1-0.1-0.1-0.2-0.2
		c0.1-0.1,0.3-0.3,0.4-0.3c0.4,0.1,0.9,0.1,1.2,0.3c1.5,0.9,2.9,1.9,4.4,2.9c2.1,1.5,4.2,3,6.3,4.6c0.9,0.7,1.8,1.4,2.7,2.2
		c1.9,1.6,3.7,3.3,5.5,4.9c1.5,1.3,3,2.7,4.4,4.1c1.2,1.1,2.4,2.3,3.5,3.5c0.4,0.4,0.5,1.1,0.7,1.6c0.1,0.2-0.1,0.5-0.1,0.7
		c0,0-0.2,0-0.2,0c-0.1,0-0.2-0.1-0.4-0.1c0.1,0.1,0.2,0.1,0.2,0.2c0,0.1,0.1,0.4,0,0.4c-0.5,0.4-1.4,0.3-2-0.1
		c-1.5-1.1-1.6-2.7-1.5-4.3c0-0.1-0.1-0.1-0.1-0.2c-0.3-0.3-0.7-0.6-1-0.9c-2.1-2-4.3-4.1-6.4-6.1c-1.6-1.4-3.2-2.7-4.8-4.1
		c-1.8-1.6-3.8-2.9-5.8-4.3c-0.8-0.6-1.6-1.3-2.4-1.9c-0.1-0.1-0.3-0.1-0.4-0.1c0.1,0.1,0.1,0.3,0.2,0.3c1.1,1,2.3,1.9,3.3,2.9
		c1.3,1.4,2.9,2.5,4.4,3.8c1.3,1.1,2.4,2.4,3.6,3.6c1.9,1.9,3.9,3.7,5.8,5.6c1.1,1,2.1,2.1,3.2,3.2c0.2,0.3,0.3,0.7,0.4,1.1
		c0.1,0.2,0.4,0.5-0.1,0.6c-0.1,0-0.2,0.2-0.2,0.3c-0.3,0.8-0.7,1.1-1.5,1.1c-1.8-0.1-3.5,0.4-5.2,0.7c-1.8,0.4-3.6,0.3-5.2-0.8
		c-0.3-0.2-0.7-0.5-1-0.8c-0.1-0.1-0.3-0.1-0.4-0.1c0,0.1,0.1,0.2,0,0.3c-0.2,0.3-0.3,0.6-0.5,0.9c-0.1,0.2-0.3,0.3-0.4,0.4
		c-0.2,0.2-0.4,0.3,0.1,0.5c0.4,0.2,0.5,0.6,0.4,1c-0.2,0.9-0.3,1.8-0.4,2.7c-0.1,1.3-0.2,2.5-0.2,3.8c0,0.3,0.1,0.5,0.1,0.8
		c0,1.7-0.1,3.5,0.1,5.2c0,0.2,0.1,0.5,0.1,0.7c0,0.1,0.2,0.2,0.3,0.1c1.2-0.8,2.5-1.6,2.9-3.1c0.2-0.6,0-1.4-0.2-2
		c-0.1-0.2-0.6-0.4-1-0.5c-0.7-0.2-1.3-0.6-1.6-1.3c-0.4-1,0.4-2.6,1.4-2.7c0.8-0.1,1.6-0.2,2.3-0.4c0.6-0.2,1.2-0.5,1.7-0.8
		c0.6-0.3,1.3-0.4,2-0.2c1,0.4,2.1,0.8,3.1,1.2c0.3,0.1,0.6,0.2,0.3,0.6c0,0,0,0,0,0.1c0.4,0.6-0.2,0.9-0.3,1.4
		c-0.1,0.6-0.1,1.2-0.1,1.8c0,0.5,0,1,0,1.5c0,1.3,0.1,2.6,0.1,3.9c0,0.2-0.1,0.4-0.1,0.7c0,0.5,0,1.1,0,1.6
		c0.1,1.1,0.2,2.2,0.2,3.3c0.1,1.5,0.1,3,0.1,4.5c0,0.8,0.2,1.5,0.4,2.3c0.1,0.4,0.5,0.5,0.8,0.5c0.7,0.1,0.7,0.1,0.6-0.6
		c-0.1-0.5-0.1-1-0.1-1.5c-0.1-1.4-0.1-2.8-0.1-4.3c-0.1-1.4-0.2-2.7-0.2-4.1c-0.1-1.3-0.2-2.7-0.2-4c-0.1-1.1-0.1-2.1-0.1-3.2
		c-0.1-2.8-0.1-5.7-0.1-8.5c0-0.3,0.1-0.7,0.2-0.8c0.2-0.1,0.6-0.1,0.8,0.1c0.2,0.2,0.5,0.5,0.3,0.9c0,0.1,0,0.2,0,0.2
		c0,2.1-0.1,4.1-0.1,6.2c0,1.5,0.1,3.1,0.2,4.6c0.1,1.3,0.3,2.6,0.3,3.9c0.1,1.4,0.2,2.7,0.2,4.1c0.1,1.7,0.2,3.4,0.2,5.1
		c0.1,1.2,0.1,2.5,0.3,3.7c0.1,0.8,0.3,1.5,0.5,2.3c0.1,0.5,0.1,1.1,0.2,1.7c0.2,1.2,0.5,2.5,0.7,3.7c0.2,1.2,0.5,2.3,0.7,3.5
		c0.2,1.3,0.4,2.6,0.5,3.9c0,0.1,0,0.1,0,0.2c-0.1,0.5,0.2,0.9,0.7,1c0.1,0,0.3,0.1,0.4,0.1c0.1,0.1,0.2,0.2,0.3,0.3
		c-0.1,0-0.2,0.1-0.4,0.1c-0.3,0-0.6,0-0.8,0c-0.1,0-0.2,0.1-0.2,0.2c0.1,0,0.2,0.1,0.3,0.1c0.1,0,0.3,0,0.4,0
		c0.2,0.1,0.3,0.2,0.4,0.4c-0.2,0.1-0.3,0.2-0.5,0.2c-0.1,0-0.3,0-0.5,0.1c0.1,0.1,0.2,0.2,0.3,0.3c0.1,0.1,0.1,0.2,0.1,0.3
		c0,0.3-0.1,0.6-0.1,1c0.2,1.5,0.3,3,0.6,4.4c0.4,2.1,0.8,4.2,1.2,6.2c0.4,1.8,0.9,3.6,1.3,5.5c0.3,1.2,0.6,2.4,0.8,3.6
		c0.3,1.4,0.5,2.9,0.7,4.3c0.3,1.4,0.6,2.7,0.9,4.1c0.3,1.4,0.6,2.8,1,4.2c0.6,2.3,1.1,4.5,1.7,6.8c0.3,1.2,0.7,2.4,0.5,3.6
		c0,0.4-0.2,0.7-0.3,1.1c-0.1,0.2-0.3,0.4-0.3,0.7c0,0.7-0.4,0.9-0.9,1.1c-0.5,0.2-1,0-1.3-0.4c-0.3-0.4-0.7-0.7-0.3-1.2
		c0.1-0.1-0.1-0.3-0.1-0.4c0-0.1-0.1-0.2-0.2-0.3c0.1,0,0.2,0,0.3,0.1c0.2,0.1,0.3,0.1,0.4-0.1c0.2-0.3,0.6-0.5,0.8-0.7
		c0.2-0.2,0.3-0.6,0.3-0.8c-0.5-2-1-4-1.6-5.9c-0.1-0.5-0.2-1.1-0.3-1.6c0-0.2-0.1-0.5-0.4-0.3c-1.4,1-3,1.7-4.6,2.2
		c-1.6,0.5-3.2,0.9-4.8,0.9c-0.4,0-0.3,0.3-0.2,0.4c0.1,0.8,0.2,1.6,0.3,2.4c0.2,1.3,0.4,2.6,0.6,4c0.1,0.4,0.1,0.9,0.1,1.3
		c0.1,1.3,0.1,2.6,0.1,3.9c0,1.2-0.9,1.7-2,1.4c-0.5-0.1-0.7-0.9-0.4-1.3c0.1-0.1,0.2-0.2,0.1-0.3c-0.1-0.6,0.3-1,0.7-1.2
		c0.4-0.2,0.4-0.5,0.3-0.9c-0.3-1.4-0.6-2.7-0.8-4.1c-0.2-1.1-0.3-2.3-0.5-3.5c-0.2-1.5-0.4-3-0.6-4.5c-0.2-1.6-0.4-3.2-0.6-4.8
		c-0.3-1.7-0.7-3.4-1-5.1c-0.1-0.7-0.2-1.5-0.4-2.3c-0.3-1.4-0.6-2.8-0.9-4.1c-0.4-1.9-0.8-3.9-1.3-5.8c-0.2-1-0.6-2-0.9-3.1
		c-0.1-0.3-0.2-0.6-0.2-0.8c0-0.5-0.3-0.5-0.6-0.4c-1.4,0.6-2.7,1.4-3.9,2.4c-1.2,1-2.5,1.9-3.7,2.9c-1,0.8-1.9,1.6-2.7,2.6
		c-0.4,0.5-0.9,1-0.7,1.9c0.2,0.8,0,1.7,0,2.5c0.1,2,0.3,4,0.5,6c0,0.6,0.1,1.2,0.1,1.8c0,1.4,0.3,2.8,0.6,4.1
		c0.3,1.7,0.7,3.5,0.5,5.3c0,0.2,0.1,0.5,0,0.7c-0.1,0.2-0.3,0.3-0.4,0.4c-0.3,0-0.7-0.1-1-0.1c-0.4,0-0.7-0.1-0.9,0.5
		c-0.1,0.6-0.4,1.2-0.6,1.7c-0.2,0.3-0.3,0.6,0.1,0.8c0,0-0.1,0.3-0.2,0.4c-0.1,0.1-0.3,0.1-0.5,0.1c-0.2,0.1-0.4,0.2-0.6,0.3
		c0.2,0,0.4,0,0.6,0c0.2,0,0.5,0,0.5,0.1c0.1,0.4,0,0.9-0.5,1c-1.1,0.3-2.3,0.4-3.5,0.1c-0.4-0.1-0.9,0-1.3,0
		c-0.3,0-0.6,0.1-0.9,0.1c-1.7,0-3.4,0.1-5.1,0.1c-1.2,0.1-2.3-0.3-3.4-0.7c-0.6-0.2-0.6-0.9-0.7-1.5c-0.2-1.7-0.3-3.3-0.5-5
		c0-0.2-0.1-0.4-0.2-0.5c-0.5-0.6-0.5-1.4-0.6-2.1c-0.1-0.8-0.1-1.6-0.1-2.5c-0.1-1.5-0.1-2.9-0.2-4.4c-0.1-1.1-0.3-2.3-0.3-3.4
		c0-1,0-2,0.1-2.9c0.1-1.2-0.3-2.3-0.5-3.5c0-0.2-0.1-0.6-0.1-0.6c0.3-0.1,0.5-0.1,0.8-0.2c0.2,0,0.6,0.3,0.7-0.2
		c0.1-0.5,0.1-0.9-0.4-1.2c-1.8-0.8-3.6-1.7-5.4-2.4c-1.7-0.7-3.3-1.7-4.8-2.7c-0.9-0.6-1.7-1.2-2.5-1.9c-1.8-1.5-3.5-3.1-5.2-4.7
		c-0.4-0.4-0.7-1-1-1.6c-0.2-0.4-0.3-0.8-0.4-1.3c-0.1-0.2-0.2-0.4-0.5-0.2c-0.4,0.4-1,0.6-1.3,1c-0.2,0.3-0.2,0.8-0.1,1.2
		c0.5,1.2,0.7,2.5,0.7,3.8c0,0.5-0.2,0.9-0.3,1.4c0,0.1-0.1,0.1-0.1,0.2c0-0.1,0-0.1-0.1-0.2c0-0.3-0.1-0.6-0.1-1
		c0.1-0.1,0.2-0.2,0.2-0.3c-0.1-0.7-0.2-1.4-0.3-2.1c0-0.2-0.1-0.4-0.1-0.5c0-0.1-0.1-0.1-0.1-0.1c0,0.1-0.1,0.1-0.1,0.2
		c-0.2,0.9-0.2,1.8,0.2,2.6c-0.2,0-0.5-0.2-0.5,0.3c0,1.3-0.1,2.7-0.2,4c-0.4,4-0.2,7.9-0.2,11.9c0,1.9,0.4,3.8,0.6,5.7
		c0,0.1,0,0.1,0,0.2c0,1.4,0.1,2.7,0.1,4.1c0,1.3-0.3,2.5-0.3,3.8c0,1.1-0.1,2.2,0.1,3.3c0.2,1,0,2.1-0.1,3.2
		c-0.1,0.6-0.5,1.2-0.6,1.9c-0.1,0.5,0,1,0,1.4c0,0.2-0.1,0.5-0.2,0.5c-0.5,0.2-1.2-0.4-1.2-0.9c0-0.1,0-0.2,0-0.2
		c0.1-0.7-0.1-1.2-0.9-1.4c-0.8-0.2-0.8-0.9-0.8-1.6c-0.1-2.1-0.1-4.2-0.1-6.2C65.4,118,65.4,117.9,65.5,117.7
		c0.1,0.2,0.1,0.3,0.2,0.5c0-0.1,0-0.1,0-0.2c0-0.2,0-0.4,0-0.6C65.7,117.6,65.6,117.6,65.5,117.7 M67.5,26.4c0.1,0,0.2,0,0.3,0
		c0.1-0.1,0.3-0.2,0.4-0.3c0-0.1,0-0.2,0-0.3C68,25.9,67.9,26,67.8,26c-0.1,0.1-0.2,0.2-0.4,0.4c-0.1,0.1-0.2,0.2-0.3,0.3
		c0,0,0.1,0.1,0.1,0.1C67.3,26.6,67.3,26.5,67.5,26.4 M89,14.2c0.3-0.6,0.3-0.6,0.6-0.6c0.2,0,0.4-0.2,0.5-0.3
		c0.1-0.1,0.2-0.3,0.2-0.4c0-0.1-0.2-0.1-0.3-0.2c-0.1-0.1-0.1-0.2-0.1-0.3c0.1-0.2,0.2-0.3,0.2-0.5c0-0.1,0.1-0.2,0.1-0.3
		c-0.1,0-0.2,0-0.3,0c-0.7,0.5-1.3,0.2-2-0.1c-0.4-0.2-0.7-0.7-1.3-0.6c0.3-0.2,0.5-0.6,0.9-0.3c0,0,0.2-0.1,0.2-0.1
		c0,0,0-0.1,0-0.1c0,0-0.1,0-0.1,0c-0.6,0-0.3-0.2-0.1-0.4c0.3-0.3,0.6-0.6,0.9-0.9c0.4-0.4,0.8-0.8,1.1-1.3c0.1-0.1,0.2,0,0.3,0
		C90,8,90,8.1,90,8.2c-0.6,0.7-1.2,1.4-1.7,2.1c-0.3,0.4-0.3,0.7,0.3,0.9c0.5,0.1,1,0.1,1.4,0.2c0.6,0.1,0.6-0.2,0.8-0.6
		c0.6-1.2,1.2-2.4,1.9-3.5c0.1-0.2,0.3-0.4,0.5-0.5c0.2,0.2,0.3,0.4,0.5,0.6c0.1,0.1,0.1,0.2,0.1,0.4c0.1,0.2,0.2,0.5,0.2,0.7
		c-0.2,0-0.3,0-0.5,0c0,0.1,0.1,0.2,0.1,0.3c0,0.1-0.1,0.2-0.2,0.3c-0.2,0.2-0.6,0-0.7,0.5c-0.6,2-1.4,3.9-2.6,5.6
		c-1.4,2.2-2.7,4.4-4.1,6.5c-0.1,0-0.2-0.1-0.4-0.1c0.1,0.1,0.2,0.2,0.2,0.3c-0.1,0.1-0.2,0.3-0.2,0.4c-1.5,2.3-2.9,4.7-4.4,7
		c-0.9,1.4-1.7,2.7-2.5,4.1c-0.1,0.2-0.1,0.7,0,0.8c0.3,0.2,0.7,0.3,1-0.1c0.5-0.7,0.9-1.5,1.4-2.2c1.5-2.4,3.1-4.8,4.6-7.2
		c0.7-1.1,1.2-2.2,1.8-3.3c0.6-1.1,1.3-2.2,1.9-3.3c0.5-0.8,0.9-1.7,1.4-2.6c0.8-1.5,1.7-2.9,2-4.6c0.1-0.4,0.1-0.9,0.3-1.3
		c0-0.1,0.3-0.2,0.4-0.2c0,0.1-0.1,0.2-0.1,0.2c0,0.1,0.1,0.2,0.1,0.2c0.3,0,0.6,0,0.8-0.1c0.1,0,0.1-0.3,0.2-0.5
		c0.1,0.5,0.5,0.6,0.8,0.6c1.1-0.2,2.2-0.5,3.3-0.8c0.2,0,0.3-0.2,0.4-0.4c0-0.3-0.7-1.1-1.1-1.1c-0.7,0-1.4,0-2.1,0
		c-0.5,0-0.9-0.2-1.3-0.4c-0.6-0.4-1.2-0.6-1.8-0.9c-0.1-0.1-0.3-0.1-0.4,0c-0.6,0.5-1.1,1-1.7,1.4c-0.1,0-0.2,0-0.3-0.1
		c-0.2-0.1-0.5-0.2-0.6-0.1c-1,1.1-2,2.2-3,3.3c-1.7,1.7-3.4,3.4-5.1,5.1c-0.1,0.1-0.1,0.2-0.1,0.3c0.1,0,0.3-0.1,0.4-0.1
		c0.5-0.6,1.1-1.1,1.6-1.7c0.3-0.3,0.5-0.5,0.9-0.2c0,0.2,0,0.5-0.1,0.6c-0.7,0.7-1.4,1.4-2.1,2.2c-0.1,0.1-0.2,0.2-0.1,0.2
		c0,0.1,0.2,0.2,0.2,0.2c1.3-0.1,2.6,0.7,3.9,0c0.1,0,0.2,0,0.3,0.1c0,0.1,0,0.3,0,0.3c-0.4,0.2-0.9,0.6-1.3,0.6
		c-1.1,0-2.2-0.2-3.3-0.3c-0.3,0-0.8,0-1,0.2c-0.5,0.4-0.9,1-1.3,1.5c-0.1,0.1-0.3,0.5,0.2,0.4c0.2,0,0.4,0.1,0.6,0.1
		c1.1,0,2.2,0.6,3.4-0.1c0.1,0,0.2,0,0.4,0.1c0,0.1-0.1,0.2-0.1,0.3c-0.2,0.2-0.5,0.5-0.8,0.5c-1,0.1-2.1,0.3-3.1,0.1
		c-1.5-0.2-1.5-0.3-2.5,0.7c-0.3,0.3-0.7,0.7-1.1,1c-0.1,0.1-0.2,0.1-0.3,0.1c0.1,0.1,0.3,0.2,0.4,0.2c0.9,0,1.8,0.1,2.6,0.4
		c0.5,0.2,1,0.2,1.6,0.2c0.2,0,0.4,0,0.6,0c-0.1,0.2-0.2,0.4-0.4,0.5c-0.1,0.1-0.3,0.1-0.5,0.1c-1.5,0-3,0-4.4-0.6
		c-0.1-0.1-0.3,0-0.4,0.1c-1.3,1.2-2.7,2.5-4,3.8c-0.3,0.3-0.6,0.5-0.9,0.8c-1.1,0.9-2.2,1.7-3.4,2.6c-0.3,0.2-0.3,0.4,0.1,0.5
		c0.5,0.2,0.9,0.4,1.4,0.5c1.2,0.2,2.4,0.4,3.6,0.5c0.9,0.1,1.8-0.1,2.8-0.1c0.1,0,0.2,0.1,0.2,0.1c-0.1,0-0.1,0.1-0.2,0.1
		c-0.6,0.1-1.3,0.3-1.9,0.3c-1.1,0-2.3-0.1-3.4-0.2c-1-0.1-2-0.3-2.8-0.9c-0.3-0.2-0.6-0.2-0.9,0c-0.4,0.4-0.9,0.7-1.3,1.1
		c-0.2,0.2-0.3,0.4-0.5,0.6c0.3,0.2,0.6,0.5,0.9,0.6c0.5,0.1,1,0,1.6,0c0.7,0,1.4-0.1,2-0.1c0.6,0,1.2,0.1,1.9,0.1
		c0.8,0,1.5-0.1,2.3-0.1c1.3,0.1,2.3-0.5,3.4-1.2c0.4-0.3,0.9-0.6,1.3-0.8c0.1-0.1,0.3-0.1,0.3-0.2c0.4-0.5,0.8-1.1,1.2-1.7
		c0.5-0.8,1.1-1.6,1.6-2.5c0.1-0.1,0.1-0.3,0.1-0.4c-0.1,0-0.1,0-0.2,0.1c-1.1,0.6-2.4,0.6-3.6,0.6c-1.5,0-3,0.3-4.4-0.2
		c-0.1,0-0.2-0.1-0.3-0.2c0.1-0.1,0.2-0.4,0.3-0.4c1.3-0.1,2.7-0.1,4-0.1c1.1,0,2.2,0.2,3.3,0.2c0.3,0,0.6-0.1,0.8-0.2
		c0.1,0,0.3,0,0.4-0.1c0.5-0.8,1-1.6,1.5-2.3c0.5-0.7,1-1.4,1.4-2.1c0.1,0.1,0.1,0.2,0.2,0.3c0-0.1,0.1-0.3,0.1-0.4
		c-0.1,0-0.2,0-0.3,0c0.8-1.4,1.7-2.8,2.5-4.2c0.4-0.6,0.8-1.2,1.2-1.8c0.1,0,0.3,0,0.4,0.1c0,0,0-0.1,0.1-0.2c-0.2,0-0.3,0-0.5,0
		c0.1-0.2,0.2-0.4,0.4-0.6c0.3-0.3,0.1-0.5-0.2-0.6c-1.2-0.3-2.4-0.6-3.6-1c0.1-0.3,0.2-0.5,0.4-0.7c0.1,0,0.3,0,0.4,0.1
		c0,0,0.1,0,0.2,0c-0.1,0-0.2,0-0.4-0.1c-0.1,0-0.2,0-0.2-0.1c0.2-0.2,0.5-0.4,0.7-0.5c0.1,0.1,0.2,0.1,0.3,0.2
		c0-0.1,0.1-0.1,0.1-0.2c-0.1,0-0.2-0.1-0.4-0.1c0.4-0.5,0.9-1,1.3-1.4c0.1,0.1,0.1,0.4,0.2,0.4c0.6,0.1,0.1,0.4,0.1,0.4
		c-0.4,0.4-0.9,0.9-1.4,1.3c-0.1,0.1-0.1,0.2-0.2,0.3c0.1,0,0.2,0,0.3,0.1c0.5,0.1,1,0.3,1.4,0.4c0.6,0.2,1.2,0.8,1.9,0.5
		c0.1,0,0.2-0.1,0.4-0.1c0,0,0-0.1-0.1-0.2C89.2,14.2,89.1,14.2,89,14.2 M67.6,97c0.1,0.1,0.1,0.3,0.2,0.4c0.1-0.1,0.1-0.2,0.1-0.3
		c0-0.1,0-0.3,0-0.4c-0.1,0.1-0.2,0.2-0.3,0.2c0-0.3,0-0.6,0-1c0-0.1,0-0.1,0-0.2c0,0,0.1,0,0.1,0.1c0.1,0,0.2,0.1,0.2,0.1
		c0-0.2,0-0.4,0-0.6c-0.1,0.1-0.1,0.2-0.2,0.2c0,0-0.1-0.1-0.1-0.1c0-0.9,0-1.8,0-2.7c0-0.3,0-0.5,0-0.8c0-0.1-0.1-0.1-0.2-0.2
		c0,0.1-0.1,0.1-0.1,0.2c-0.1,1.3-0.2,2.6-0.2,3.9c-0.1,2.3-0.1,4.6-0.1,7c0,3.5,0,6.9,0,10.4c0,0.1,0,0.3,0,0.4
		c0,0.1,0.3,0.1,0.3,0.1c0.1-0.1,0.3-0.3,0.3-0.5c0-0.7,0-1.4,0-2.1c0-1.7,0.1-3.5,0.1-5.2c0-1.4-0.2-2.7-0.2-4.1c0-1.5,0-3.1,0-4.6
		C67.5,97.1,67.6,97,67.6,97 M103.5,13.1c-0.6-0.8-1.2-1.6-1.7-2.5c-0.2-0.3-0.6-0.6-0.1-0.9c0,0,0-0.1,0-0.2c-0.1,0-0.1,0-0.2,0
		c-0.1,0-0.2,0-0.2,0.1c0.1-0.1,0.1-0.1,0.2-0.2c0-0.1,0.1-0.1,0.1-0.2c-0.1,0-0.2,0-0.3,0c-0.1,0-0.4,0.1-0.4,0.1
		c-0.4-0.7-0.8-1.3-1.2-2c0-0.1-0.1-0.1-0.1-0.1c0,0.1-0.1,0.2-0.1,0.2c0.1,0.4,0.2,0.9,0.5,1.2c1.2,1.8,2.2,3.8,3.2,5.8
		c1.4,2.7,2.9,5.4,4.3,8.1c0.7,1.3,1.3,2.5,2,3.8c0.9,1.6,1.7,3.1,2.6,4.7c0.3,0.5,0.8,1,1.2,1.5c0.1,0.1,0.4,0.2,0.6,0.1
		c0.6-0.3,0.8-0.9,0.4-1.6c-0.3-0.7-0.7-1.3-1-2c-0.7-1.4-1.3-2.9-2.1-4.3c-0.9-1.6-1.9-3-2.9-4.5c-1.1-1.6-2.3-3.2-3.5-4.9
		c-0.1-0.2-0.3-0.3,0-0.5c0,0,0-0.2,0-0.3c-0.1,0-0.2,0-0.2,0c-0.1,0.2-0.3,0.2-0.4,0c-0.2-0.5-0.5-0.9-0.7-1.4
		c0.1-0.1,0.2-0.1,0.3-0.2c-0.1,0-0.1-0.1-0.1,0C103.6,12.9,103.6,13,103.5,13.1 M96.3,60.3c0.1,0.1,0.1,0.3,0.2,0.4
		c0.1-0.2,0.1-0.3,0.2-0.5c-0.1,0-0.2,0-0.4,0c0-1.1,0.1-2.2,0.1-3.4c0-1.3,0.1-2.6,0.1-3.9c0-0.8,0.1-1.7,0.2-2.5
		c0-0.3,0.2-0.5,0.5-0.3c0.4,0.2,0.4,0.6,0.4,1c0,1.1-0.2,2.3-0.2,3.4c0,1.2-0.2,2.3-0.2,3.5c0,0.6-0.1,1.2-0.2,1.8
		c-0.1,1.6-0.1,3.3-0.1,4.9c0,1.9,0,3.8,0,5.7c0,0.3,0.1,0.7-0.5,0.7c-0.1,0-0.2,0.2-0.3,0.2c0.1,0,0.2,0.1,0.3,0.1
		c1.4-0.1,2.8-0.2,4.2-0.2c0.1,0,0.2-0.2,0.2-0.3c0.1-1.2,0.1-2.3,0.1-3.5c0-0.1,0-0.2,0-0.2c0,0.1,0.1,0.1,0.1,0.2
		c0.1,0.1,0.2,0.2,0.2,0.3c0-0.1,0.1-0.3,0.1-0.4c0-0.4,0-0.8,0-1.2c0-0.3-0.1-0.6-0.1-0.8c-0.1,0.3-0.1,0.5-0.2,0.8
		c0,0,0,0.1,0,0.1c0,0.3,0,0.5,0,0.8c-0.1-0.3-0.1-0.5-0.2-0.8c0,0,0,0,0-0.1c0-4.5-0.1-8.9-0.1-13.4c0-0.9,0-1.9,0.1-2.8
		c0-0.6-0.2-0.7-0.7-0.7c-2,0.1-4,0.1-6,0.1c-0.1,0-0.2,0-0.3,0c-0.1,0.1-0.3,0.2-0.3,0.4c-0.1,1.4-0.3,2.9-0.4,4.3
		c-0.1,1.5-0.2,3.1-0.2,4.6c0,1-0.1,2-0.1,3c-0.1,2.2-0.2,4.4-0.2,6.6c0,0.7,0,1.4,0,2c0,0.4-0.2,0.7-0.3,1.1c0,0.1,0.1,0.2,0.1,0.2
		c1.1,0.1,2.1,0.1,3.2,0.1c0.1,0,0.2-0.2,0.2-0.3c0-0.5-0.1-1-0.1-1.5c0-1.4,0.1-2.8,0.1-4.2c0-0.6,0-1.3,0-1.9c0-0.1,0-0.2,0-0.3
		c0,0.1,0,0.3,0.1,0.4c0.1,0.1,0.1,0.3,0.2,0.4c0-0.3,0.1-0.6,0.1-0.8c0-0.1-0.1-0.2-0.1-0.3c-0.4,0.2-0.3-0.1-0.3-0.3
		c0-0.7,0-1.4,0-2C96.2,60.6,96.3,60.4,96.3,60.3 M93.4,13c-0.2,0-0.4,0.1-0.6,0.1c0.1,0.1,0.1,0.2,0.2,0.3
		C93.1,13.3,93.3,13.2,93.4,13c0,0.1,0,0.1,0,0.1c-0.1,0.3-0.3,0.7-0.4,1c-0.5,1.1-1,2.1-1.5,3.2c0,0.1,0,0.2,0,0.3
		c0.1,0,0.1,0,0.2,0c0.1,0,0.2,0,0.4,0c2,0,4-0.1,6-0.1c0.1,0,0.3-0.1,0.4-0.1c1-0.2,2-0.4,3-0.6c0.1,0,0.3,0.1,0.4,0.3
		c0,0,0,0.3-0.1,0.3c-0.1,0-0.3-0.1-0.4,0c-0.1,0-0.2,0-0.3,0.1c-0.1,0.1-0.2,0.3-0.3,0.3c-1.1,0.2-2.1,0.5-3.2,0.6
		c-2,0.2-4,0.2-6,0.2c-0.6,0-0.9,0.2-1.1,0.7c-0.9,1.7-1.9,3.5-2.8,5.2c0,0.1,0,0.2,0,0.2c0.3,0.1,0.6,0.1,1,0.1
		c0.9-0.1,1.8-0.2,2.7-0.2c0.6,0,1.2-0.1,1.8-0.1c1.6-0.1,3.1-0.3,4.7-0.4c1.1-0.1,2.2-0.1,3.4-0.1c1.5-0.1,2.9-0.2,4.4-0.3
		c0.2,0,0.4,0.1,0.6,0.2c-0.2,0.1-0.4,0.4-0.6,0.4c-1.3,0.2-2.7,0.4-4,0.5c-2,0.2-4,0.3-6,0.4c-0.7,0-1.4,0.1-2.2,0.1
		c-0.5,0-1,0.1-1.6,0.1c-1.4,0.2-2.8,0.2-4.2,0c-0.2,0-0.6,0-0.7,0.2c-0.7,1.1-1.3,2.2-2.3,3.1c-0.1,0.1,0,0.2,0,0.3
		c0.1,0,0.1,0,0.2,0c0.4-0.1,0.8-0.3,1.3-0.3c2.4,0,4.8,0,7.2,0c2.1,0,4.3-0.1,6.4-0.1c0.8,0,1.6-0.2,2.4-0.3
		c1.1-0.1,2.2-0.2,3.3-0.3c0.1,0,0.2,0.1,0.3,0.2c-0.1,0.1-0.2,0.2-0.3,0.2c-0.8,0.1-1.7,0.2-2.5,0.4c-1.7,0.2-3.5,0.7-5.2,0.7
		c-4.2,0.1-8.4,0-12.6-0.1c-0.1,0-0.2,0-0.2,0c-0.1,0-0.3,0-0.4,0.1c-0.3,0.4-0.6,0.9-0.8,1.3c-0.1,0.2,0,0.6,0,0.6
		c0.4,0.1,0.8,0.3,1.2,0.3c0.6,0,1.2-0.2,1.8-0.2c1.5,0,3.1,0,4.6,0c1.2,0,2.4-0.1,3.6-0.3c1.4-0.3,2.9-0.4,4.3-0.8
		c1.5-0.4,3-0.5,4.5-0.4c0.2,0,0.3,0.2,0.5,0.2c-0.2,0.1-0.3,0.2-0.5,0.2c-0.6,0.1-1.3,0.1-1.9,0.1c-0.4,0-0.8,0.1-1.2,0.2
		c-1,0.2-2,0.5-3,0.7c-0.8,0.2-1.7,0.2-2.5,0.4c-1.3,0.4-2.7,0.3-4.1,0.4c-0.7,0.1-1.4-0.1-2.1-0.1c-1.2,0-2.4,0.1-3.6,0.1
		c-0.6,0-1.2-0.3-1.8-0.4c-0.2,0-0.5,0.1-0.6,0.2c-0.1,0.1-0.1,0.4,0,0.5c0.5,0.6,1.1,1.2,1.7,1.8c0.2,0.2,0.5,0.4,0.8,0.4
		c1.2-0.1,2.3-0.3,3.5-0.3c2.4,0.1,4.7-0.3,7-0.5c1.9-0.1,3.7-0.1,5.6-0.3c1.1-0.1,2.1,0.3,3.2-0.1c0.3-0.1,0.6-0.1,1-0.1
		c1-0.1,2-0.3,2.8-0.9c0.6-0.4,1.2-0.9,1.8-1.3c0.5-0.3,0.5-0.5,0.3-1c-0.7-1.1-1.4-2.3-2-3.4c-1.5-2.7-3-5.5-4.4-8.3
		c-0.9-1.8-1.8-3.6-2.7-5.4c-0.6-1.2-1.3-2.4-1.9-3.6c-0.1-0.1-0.3-0.2-0.5-0.2c-0.5,0.2-0.9,0.5-1.5,0.7c-1.1,0.4-2.2,0.9-3.5,0.4
		c-0.1,0-0.2,0.1-0.2,0.1c-0.1-0.1-0.2-0.3-0.3-0.4c0,0.1-0.1,0.3-0.1,0.4c0,0.1,0.2,0.1,0.3,0.2c0.1,0.1,0.2,0.3,0.3,0.4
		c0.1,0.1,0,0.3,0,0.4c-0.4-0.1-0.1,0.3-0.2,0.3c0.2,0.1,0.3,0.2,0.4,0.1c0.2,0,0.4-0.2,0.6-0.2c0.5-0.1,1-0.1,1.4-0.1
		c1,0,2.1-0.1,3.1-0.1c0.1,0,0.2,0.2,0.4,0.3c-0.1,0.1-0.3,0.1-0.4,0.2c-0.5,0.1-0.9,0.1-1.4,0.1c-1,0.1-2,0.3-3,0.3
		c-0.4,0-0.8-0.1-1.2-0.1c-0.1,0-0.2,0.2-0.3,0.3C93.8,12.8,93.5,12.9,93.4,13 M105.6,101.3c-0.2-1.1-0.4-2.2-0.7-3.3
		c0-0.1-0.2-0.3-0.2-0.3c-1,0-1.9,0-2.9,0c-0.2,0-0.5,0-0.7,0c-0.8,0-1.6-0.1-2.5-0.1c-1,0.1-1.9,0.3-2.9,0.4
		c-0.7,0-1.4-0.1-2.1-0.2c-0.3,0-0.5,0-0.5,0.4c-0.1,1.4-0.3,2.7-0.3,4.1c-0.1,1.8-0.1,3.6-0.1,5.3c0,0.1,0,0.3,0,0.4
		c-0.2,1.4-0.3,2.7,0.4,4c0.1,0.3,0.2,0.7,0.2,1c0.1,1.6,0,3.3,0.1,4.9c0.1,1,0.3,2,0.4,2.9c0.1,0.9,0.2,1.8,0.4,2.7
		c0,0.2,0.2,0.4,0.4,0.4c0.6,0.1,1.3,0.2,1.9,0.2c1.4,0,2.8-0.1,4.1-0.1c0.3,0,0.6,0,0.9,0c0.3,0,0.8,0.1,0.7-0.5
		c0-0.1,0.2-0.2,0.3-0.2c0.8-0.2,1.7-0.3,2.5-0.5c0.3-0.1,0.7-0.5,0.7-0.6c-0.1-0.4,0.1-0.6,0.3-0.9c0.3-0.4,0.6-0.8,0.8-1.3
		c0.4-0.9,0.2-2,1-2.7c0,0,0-0.1,0-0.2c0-1.3,0.1-2.6,0-3.9c-0.1-1.7-0.3-3.4-0.5-5.1c-0.1-1.2-0.2-2.3-0.2-3.5
		c0-0.1-0.1-0.2-0.1-0.4c0,0.1-0.1,0.2-0.1,0.3c0,0.3-0.1,0.6-0.1,0.8c-0.1,1-0.2,2.1-0.2,3.1c0,0.1-0.1,0.2-0.2,0.3
		c-0.1-0.1-0.2-0.3-0.2-0.4c-0.1-1.6-0.1-3.1-0.1-4.7c0-0.5,0-1,0-1.5c0.1-0.7,0.3-1.3-0.2-2c-0.1-0.1-0.1-0.5,0.1-0.6
		c0.4-0.7,0.4-1.4,0.3-2.1c0-0.2-0.2-0.5-0.3-0.5c-0.3,0-0.7,0.1-1,0.2c0,0,0,0.2,0,0.3C105.3,98.9,105.5,100.1,105.6,101.3
		 M48.8,105.5c-0.3,0.4-0.5,0.8-0.8,1.1c-0.9,1.2-1.9,2.3-2.7,3.6c-0.5,0.8-0.8,1.8-1.3,2.6c-1.1,1.8-2.2,3.7-3.4,5.4
		c-0.7,1.1-1.6,2.1-2.7,2.9c-1.3,0.8-2.5,1.7-3.9,2.4c-1.1,0.6-2.2,1.3-3.5,1.5c-1.1,0.2-2.2,0.5-3.3,0.8c-1.7,0.4-3.3,1-5.1,1
		c-0.5,0-1,0.1-1.6,0.2c-1,0.1-2,0.4-2.9,0.4c-1.2,0-2.5-0.2-3.7-0.2c-0.9,0-1.8,0-2.7,0c-0.7,0-1.4,0.1-2.1,0.1
		c-1.3,0-2.5,0.1-3.8,0.1c-1.3,0-1.9,0.9-2.4,1.7c-0.4,0.7-0.4,1.6-0.7,2.4c-0.3,0.7,0.2,0.7,0.6,0.7c0.3,0,0.6,0,0.9,0
		c0.2,0,0.4,0,0.6,0c1.7,0.3,3.4,0.6,5.1,0.6c0.4,0,0.9,0.2,1.3,0.2c1.3-0.1,2.5-0.3,3.8-0.3c1.5,0,3-0.3,4.4-0.5
		c1.7-0.2,3.3-0.5,5-0.6c2-0.2,3.8-0.9,5.6-1.6c1.7-0.7,3.3-1.7,4.9-2.5c1.9-0.9,3.6-2.2,5.2-3.5c1.5-1.2,2.8-2.7,4.3-4
		c1.6-1.4,2.8-3.2,4-4.9c0.7-1,1.2-2.2,1.9-3.2c1.6-2.2,2.9-4.7,4.1-7.1c0.7-1.5,1.4-3,2.2-4.5c0.6-1.3,1.4-2.6,2-3.8
		c1.1-2.1,2.1-4.2,3.3-6.1c1.1-1.7,2.3-3.4,3.6-4.9c0.8-1,1.8-1.8,2.8-2.7c0.7-0.6,1.5-1.1,2.3-1.7c1-0.8,2-1.6,3-2.4
		c0.8-0.7,1.7-1.2,1.9-2.4c0.5-2,0.6-3.9,0.3-6c0,0-0.1-0.1-0.1,0c-0.6,0.3-1.1,0.6-1.6,0.9c-1.1,0.9-2.2,1.8-3.3,2.7
		c-1.2,1-2.5,2-3.4,3.3c-1.5,2.1-3,4.2-4.4,6.4c-1.8,2.9-3.7,5.8-5.4,8.7c-1.6,2.7-3,5.4-4.5,8.1c-1,1.8-2.2,3.4-3.6,4.9
		c-0.1,0-0.2,0-0.4,0C48.6,105.4,48.7,105.4,48.8,105.5 M59,74.2c-1.2,0.7-2.1,1.7-3,2.7c-0.7,0.8-1.5,1.4-2.1,2.3
		c-1.2,1.6-2.2,3.2-3.3,4.8c-1.1,1.6-2.1,3.2-3.2,4.7c-1.3,2-2.7,4-4,6.1c-1.5,2.3-2.9,4.6-4.3,6.9c-1.1,1.9-2,3.8-3.1,5.7
		c-0.8,1.4-1.5,2.7-2.4,4c-0.9,1.3-1.8,2.6-2.8,3.8c-1,1.2-2.2,2.3-3.3,3.3c-0.4,0.4-0.9,0.6-1.2,0.9c-1.1,1.1-2.4,1.7-3.7,2.2
		c-1.4,0.5-2.8,0.7-4.3,1c-2.2,0.5-4.3,1.3-6.5,1.7c-1.3,0.2-2.6,0.6-3.9,0.8c-1.2,0.2-2.5,0.4-3.7,0.6c-0.1,0-0.3,0.2-0.4,0.4
		c0.1,0,0.3,0.1,0.4,0.1c1.2-0.1,2.4-0.2,3.6-0.2c2.4,0,4.8,0.2,7.2,0.2c1.1,0,2.2,0,3.3,0c0.5,0,0.9-0.2,1.4-0.2
		c0.8-0.1,1.6-0.2,2.4-0.4c0.8-0.1,1.6-0.2,2.3-0.3c1.1-0.2,2.3-0.6,3.4-0.9c1.4-0.3,2.8-0.6,4-1.3c1.7-0.9,3.3-1.8,4.8-2.9
		c0.6-0.5,1.4-0.9,1.8-1.5c1.2-1.7,2.4-3.4,3.5-5.1c0.4-0.6,0.9-1.2,0.9-1.8c0.1-0.8,0.4-1.3,0.7-1.9c1.4-2.5,2.9-5,4.4-7.5
		c0.9-1.6,1.8-3.2,2.7-4.7c1.1-1.8,2.3-3.6,3.4-5.3c1.1-1.6,2.1-3.3,3.3-4.8c1.1-1.3,2.1-2.6,2.9-4.1c0.9-1.7,2.1-3.3,3.5-4.7
		c0.9-0.9,1.6-1.9,2.4-2.9c1-1.2,1.9-2.5,3-3.7c1.3-1.5,2.9-2.7,4.7-3.5c0.2-0.1,0.3-0.2,0.5-0.3c-0.2,0-0.4,0-0.6,0
		c-0.1,0-0.1,0-0.2,0c-0.9-0.2-1.7-0.5-2.3-1.1c-0.7-0.7-1.3-1.9-1.6-3c-0.3-1.3-0.8-2.6-1.1-3.8c-0.2-0.6-0.6-0.8-1.2-0.9
		c-0.5-0.1-0.9-0.2-1.3,0.2c-0.6,0.7-0.8,1.6-0.7,2.5c0.1,0.8,0.1,1.6,0,2.3c-0.2,0.8,0,1.5,0.5,2.1c0.2,0.2,0.4,0.7,0.9,0.4
		c0,0,0.2,0.1,0.3,0.2c0,0.1,0,0.2-0.1,0.3c-0.2,0.3-0.5,0.5-0.8,0.8c-0.1,0.2-0.1,0.5-0.3,0.6c-1.7,0.7-2.8,2.2-4.2,3.3
		C60.8,72.8,59.9,73.5,59,74.2 M69,39.4c0,0.1,0.1,0.2,0.1,0.3c0.1,1.5,0.3,3.1,0.4,4.7c0.1,1.5,0.1,3.1,0.1,4.6
		c0,0.8,0.1,0.8,0.8,0.5c0.2-0.1,0.3-0.2,0.5-0.2c1.4-0.4,2.7-1,4.3-0.9c0.6,0.1,1.3,0,1.9,0c0.3,0,0.3-0.1,0.3-0.3
		c0-0.3,0-0.6-0.1-0.9c0.1,0.3,0.1,0.6,0.2,0.9c0.1,0.2,0.1,0.4,0.5,0.3c1-0.4,2-0.9,3-1.2c0.6-0.2,0.7-0.6,0.7-1.1
		c0.1-2.3,0.2-4.6,0.2-6.9c0-0.5,0-1.1,0-1.6c0-0.6-0.1-1.2-0.6-1.6c-0.1-0.1,0-0.4,0-0.4c0.5-0.3,1.7,0.3,1.7,0.9
		c0,0.9,0,1.8,0,2.7c-0.1,2.2-0.2,4.4-0.4,6.6c0,0.3,0,0.6,0,0.9c0,0.4-0.2,1,0,1.3c0.7,0.9,0.3,1.8,0.3,2.7c0,0.6-0.1,1.2-0.1,1.8
		c-0.1,2-0.3,4-0.3,6c0,0.7,0.1,1.5,0.1,2.2c0,0.6-0.2,1.3-0.2,1.9c0.1,1.7,0.2,3.3,0.2,5c0,0.2,0.1,0.3,0,0.5
		c-0.6,1.1,0,2.3-0.2,3.4c-0.1,0.7,0.1,1.4,0.2,2.1c0,1,0,2.1,0,3.1c0,0.4-0.2,0.8-0.2,1.3c0,0,0.2,0.1,0.2,0.1c0.1,0,0.3,0,0.4,0
		c-0.1,0.2-0.1,0.3-0.2,0.4c-0.5,0.7-0.5,0.7-0.1,1.5c0.4,0.8,0.7,1.6,1.1,2.4c0.1,0.2,0.4,0.4,0.6,0.5c0.3,0.1,0.6,0.1,0.9,0.2
		c0.1,0,0.2,0,0.3,0c0-0.1-0.1-0.2-0.1-0.3c-0.5-1.1-1.2-2.1-1.3-3.4c0-0.9-0.8-1.7-0.2-2.7c0,0,0-0.1,0-0.2c-0.6-0.6-0.4-1.3-0.4-2
		c0-0.6,0.1-1.2,0.1-1.7c0.1-2.5,0.2-5,0.2-7.5c0-1.2-0.1-2.3-0.1-3.5c0-0.7,0.1-1.4,0.1-2c0-1.6-0.2-3.2-0.2-4.8
		C84,53,84,51,84,48.9c0-0.9,0.1-1.8,0.1-2.7c0.1-3.1,0.1-6.3,0.1-9.4c0-0.5,0.2-0.7,0.7-0.6c0.2,0,0.4,0.1,0.6,0.2
		c0.3,0.1,0.5,0.2,0.3,0.7c-0.2,0.4-0.1,0.8-0.1,1.3c0,1.9,0,3.8,0,5.7c0,1.5-0.1,3-0.2,4.5c0,0.5,0.1,0.6,0.6,0.5
		c0.7-0.2,1.4-0.2,2.2-0.3c0.3,0,0.7,0.1,1,0.1c0.1,0,0.4-0.3,0.4-0.4c-0.1-0.7-0.2-1.5-0.3-2.2c-0.1-0.9-0.3-1.8-0.3-2.7
		c0-1,0.3-1.9,1.3-2.3c0.4-0.2,0.9-0.4,1.4-0.4c2-0.2,3.9-0.3,5.9-0.4c1.7-0.1,3.5-0.2,5.2-0.2c0.1,0,0.1,0,0.2,0
		c0.6,0,1.3-0.1,1.9,0.1c1.1,0.3,1.5,1.4,1.7,2.3c0.4,1.5,0.5,3.2,0.2,4.8c-0.1,0.6,0,0.7,0.6,0.7c0.6,0,1.3-0.1,1.9,0
		c0.7,0.1,0.7,0.1,0.7-0.6c0-3.2-0.1-6.3-0.1-9.5c0-1,0.1-2.1,0.1-3.1c0-0.7,0.1-0.7,0.7-0.4c0.4,0.2,0.5,0.4,0.5,0.9
		c0,2.9,0,5.9,0,8.8c0,1.2,0.1,2.5,0.2,3.7c0,0.1,0.2,0.2,0.2,0.3c0.5,0.1,1,0.1,1.4,0.1c0.1,0,0.3-0.2,0.3-0.4
		c0-0.4-0.1-0.8-0.1-1.1c0-1.7,0-3.4,0-5.1c0-0.4,0.1-0.8,0.1-1.3c0-0.4-0.1-0.7-0.1-1.1c0.2-1.6,0.4-3.2,0.7-4.7
		c0.1-0.6,0.2-0.9-0.6-0.8c0,0-0.1,0-0.2-0.1c-0.6-0.7-1.3-1.3-1.9-2c-0.1-0.2-0.3-0.3-0.4-0.4c-0.2,0.2-0.4,0.4-0.5,0.6
		c-0.2,0.3-0.2,0.7-0.5,0.9c-0.7,0.6-1.3,1.3-2.3,1.3c-0.3,0-0.6,0.1-0.8,0.1c-0.8,0.1-1.7,0.4-2.5,0.4c-1.5,0.1-3,0.1-4.5,0.1
		c-1.5,0-3,0-4.5,0.2c-1.8,0.3-3.6,0.4-5.4,0.5c-1.5,0.1-3,0.1-4.6,0.1c-0.4,0-0.9-0.2-1.1-0.5c-0.5-0.5-0.9-1.2-1.3-1.8
		c-0.2-0.2-0.4-0.4-0.5-0.6c-0.2,0.2-0.5,0.4-0.6,0.6c-0.4,0.6-0.8,1.3-1.2,2c-0.1,0.1-0.4,0.3-0.5,0.2c-0.9-0.4-1.8-0.6-2.5-1.3
		c-0.2-0.2-0.4-0.2-0.6,0C76,34.7,75,35,73.9,35c-1.3,0-2.7,0-4,0c-1.5,0-3,0-4.5,0c-0.2,0-0.5,0-0.7,0c0.2,0.2,0.4,0.4,0.7,0.5
		c1,0.4,1.4,1.1,1.3,2.1c-0.1,1.2-0.2,2.4-0.2,3.6c0,1.2,0,2.5,0,3.7c0,0.8,0.1,1.7,0.1,2.5c0,1.3,0.1,2.7,0,4
		c0,1.1-0.2,2.1-0.4,3.1c0,0.2-0.1,0.4-0.2,0.7c0,0.1,0,0.2,0,0.4c0.1-0.1,0.2-0.1,0.3-0.2c0.4-0.5,0.9-0.9,1.3-1.4
		c0.1-0.2,0.2-0.4,0.3-0.6c0.1-1.6,0.3-3.2,0.4-4.8c0-1.4-0.1-2.7-0.1-4.1c0-1.1-0.1-2.2-0.1-3.3c0-1.3-0.1-2.6-0.1-4
		c0-0.4,0-0.9,0.1-1.3c0-0.2,0.3-0.3,0.4-0.5c0.1,0.2,0.4,0.3,0.4,0.5C68.9,37,68.9,38.2,69,39.4 M127.9,67.1
		C127.9,67.1,127.9,67.1,127.9,67.1c0-0.9,0.1-1.8,0.1-2.7c0-0.5-0.2-1-0.1-1.4c0.1-0.9-0.3-1.4-0.9-1.9c-0.1-0.1-0.2-0.1-0.3-0.1
		c0,0.1,0,0.2,0,0.3c0,0.2-0.1,0.5-0.1,0.7c0,0-0.1,0-0.2,0c0,0,0-0.1,0-0.1c0.2-0.2,0.2-0.4-0.2-0.4c-0.3,0-0.5,0.1-0.6,0.4
		c-0.1,0.2-0.2,0.4-0.2,0.6c-0.1,0.5-0.4,0.5-0.7,0.4c-0.4-0.1-0.7-0.2-0.6-0.8c0.1-0.8,0.7-1.4,1.3-1.8c0.6-0.4,0.5-0.7,0.4-1.2
		c-0.2-0.8-0.5-1.5-0.6-2.3c-0.2-1.1-0.2-2.2-0.3-3.3c-0.1-1.3-0.3-2.6-0.3-3.9c-0.1-2.2-0.2-4.5-0.2-6.7c0-0.4,0.1-0.7,0-1.1
		c-0.2-0.7,0-1.3,0.2-2c0.1-0.2,0-0.6-0.1-0.6c-0.4-0.1-0.8-0.3-1.2-0.2c-1,0.3-1.9,0.7-2.8,1c-0.2,0.1-0.3,0.3-0.3,0.5
		c0,0.6,0.2,1.1,0.2,1.7c0.1,1.1,0.1,2.3,0.1,3.4c0,0.4-0.2,0.8-0.5,1.1c-0.4,0.5-0.9,0.9-1.3,1.5c-0.2,0.2-0.5,0.5-0.3,0.9
		c0,0-0.2,0.3-0.3,0.3c-0.6,0-1.2-0.1-1.8-0.1c-1.1-0.1-1.3,0.2-1,1.3c0,0.1,0,0.2,0,0.2c0,1.7,0.1,3.3,0.1,5c0,1.1,0.1,2.2,0.1,3.3
		c0,0.5,0.1,1,0.1,1.6c0,0.2,0,0.6,0.4,0.5c0.4-0.1,0.8-0.4,1.3-0.4c0.9-0.1,1.8-0.1,2.4,0.7c0.4,0.5,0.6,1.2,0.6,1.8
		c0.1,1.4,0.1,2.8,0.1,4.3c0,0.2,0.1,0.3,0.1,0.5c0.1,0.5,0.2,1.1,0.1,1.6c0,0.7-0.1,0.7,0.6,0.6c0.2,0,0.4-0.1,0.6-0.1
		c1.6,0,3.3-0.1,4.9-0.1c0.3,0,0.7-0.1,1-0.1c0.1,0,0.3-0.2,0.3-0.3C127.8,68.8,127.8,68.1,127.9,67.1 M81.4,58c0-0.9,0-1.8,0-2.7
		c0-0.7,0.1-1.5,0.1-2.2c0-1,0-2,0-3c0-0.6-0.1-0.7-0.6-0.7c-0.9,0.1-1.9,0-2.8,0c-0.3,0-0.7-0.1-0.7,0.4c0,0.1-0.1,0.1-0.1,0.2
		c0-0.1,0-0.2,0-0.2c0.1-0.3-0.1-0.4-0.4-0.4c-1.5,0.4-3.1,0.8-4.6,1.2c-0.4,0.1-0.8,0.1-1.2,0.1c-0.5,0-0.9,0-1.4,0
		c-0.1,0-0.2,0.1-0.2,0.2c-0.1,0.6-0.2,1.2-0.2,1.8c0,0,0.2,0.2,0.2,0.1c0.6-0.2,1.1-0.5,1.7-0.8c0.9-0.5,1.9-0.6,2.8-0.1
		c1.8,1.2,2.6,3,2.6,5.1c0,1.7-0.2,3.5-0.2,5.2c-0.1,1.3-0.1,2.6-0.1,3.9c0,0.4,0.3,0.8,0.4,1.2c0.1,0.5,0.2,1.1,0.6,1.5
		c0.2,0.2,0.3,0.5,0.4,0.8c0.2,0.9,0.2,0.9,1,0.7c0.2-0.1,0.4-0.2,0.6-0.2c0.3-0.1,0.6,0,0.5,0.5c-0.1,0.4-0.2,0.7-0.6,0.6
		c-0.3,0-0.6,0-0.9,0c-0.2,0-0.6,0.2-0.6,0.3c0,0.4-0.2,0.4-0.5,0.4c-0.3,0-0.4,0-0.2,0.3c0,0.1,0,0.2,0,0.3
		c-0.1,0.8-0.2,1.6-0.2,2.4c0,0.3,0.1,0.5,0.1,0.8c0,0.4-0.1,0.8-0.1,1.3c0,0.9,0.2,1.1,1.2,1.1c0.2,0,0.4-0.1,0.4,0.3
		c0,0.1,0.3,0.2,0.4,0.2c0.4,0.1,0.7,0.1,1.1,0.1c0.3,0,0.7,0.1,1,0.2c0.1,0,0.2-0.1,0.2-0.2c0.1-0.9,0.2-1.8,0.2-2.7
		c0-1.1,0-2.2,0-3.4c0-0.9-0.2-1.9-0.2-2.8c0-0.8,0.1-1.7,0.1-2.5c0-1.6,0.1-3.2,0.1-4.9C81.4,61,81.4,59.6,81.4,58 M116.8,23.3
		c-1.3,0.4-2.5,0.8-3.8,1.1c-0.4,0.1-0.4,0.2-0.3,0.5c0.2,0.5,0.4,0.9,0.6,1.4c0.5,1.1,0.5,1,1.6,0.7c1.3-0.4,2.6-0.7,3.9-0.9
		c0.6-0.1,1.2,0,1.8,0.1c0.1,0,0.2,0.2,0.3,0.3c-0.1,0-0.3,0.1-0.4,0.1c-1,0.2-2,0.3-3,0.6c-0.8,0.2-1.6,0.5-2.5,0.7
		c-0.9,0.2-0.9,0.2-0.5,1c0.2,0.3,0.4,0.5,0.8,0.4c0.8-0.2,1.6-0.4,2.4-0.6c1.3-0.3,2.7-0.6,4-0.8c0.6-0.1,1.2-0.1,1.7-0.1
		c0.1,0,0.3,0.2,0.4,0.3c-0.1,0.1-0.2,0.2-0.3,0.2c-0.2,0.1-0.4,0.2-0.6,0.2c-1.5,0.3-3,0.6-4.6,0.9c-0.9,0.2-1.8,0.4-2.6,0.6
		c-0.1,0-0.3,0.1-0.4,0.2c0.1,0.1,0.2,0.1,0.3,0.2c0.3,0.2,0.7,0.3,0.9,0.6c0.7,0.7,1.6,1.1,2.6,1.2c1.4,0.1,2.7-0.3,4-0.5
		c1.1-0.2,2.1-0.5,3.2-0.2c0.6,0.1,1.1-0.1,1.5-0.6c0.1-0.2,0.1-0.6,0-0.7c-0.4-0.5-0.8-1-1.3-1.4c-3.2-3.1-6.4-6.2-9.6-9.3
		c-0.6-0.6-1.2-1.3-1.9-1.9c-0.9-0.8-1.8-1.5-2.7-2.3c-1-0.9-2-1.9-2.9-2.8c-0.6-0.6-1.3-0.9-2.1-0.8c-1,0.1-2,0.4-2.9,0.6
		c-0.1,0-0.2,0.1-0.2,0.2c0,0,0,0.1,0.1,0.1c0.6,0.1,0.6,0.6,0.8,0.9c0.6,0.9,1.3,1.9,2,2.8c0.1,0.1,0.4,0.2,0.5,0.2
		c0.7-0.2,1.3-0.6,2-0.8c0.7-0.2,1.4-0.3,2.1-0.5c0.1,0,0.2,0.2,0.4,0.3c-0.1,0.1-0.2,0.2-0.3,0.2c-0.2,0.1-0.5,0.1-0.8,0.2
		c-0.9,0.4-1.8,0.8-2.8,1.2c-0.3,0.1-0.5,0.2-0.3,0.5c0.4,0.5,0.8,1.1,1.1,1.6c0.3,0.4,0.6,0.5,1.1,0.3c0.5-0.2,0.9-0.5,1.4-0.6
		c0.5-0.2,0.9-0.3,1.4-0.3c0.2,0,0.5,0.2,0.6,0.4c0.1,0.1-0.1,0.4-0.1,0.6c0,0-0.1,0.1-0.2,0.1c0-0.1,0-0.1,0-0.2
		c0.1-0.4-0.1-0.6-0.5-0.4c-0.9,0.4-1.8,0.8-2.7,1.3c-0.1,0-0.1,0.3-0.1,0.4c0.6,1,1.3,2,2,3.1c0.2,0.4,0.4,0.4,0.7,0.3
		c0.4-0.1,0.8-0.3,1.3-0.4c1.3-0.4,2.6-0.8,3.9-0.8c0.4,0,0.9,0,1.3,0.1c0.2,0,0.3,0.3,0.4,0.5c-0.1,0-0.3-0.1-0.4-0.1
		c-0.2,0-0.4-0.1-0.6,0C118,23,117.5,23.2,116.8,23.3 M106.2,86.3c-0.9,1.1-1.9,2.3-2.8,3.4c-1.7,2-3,4.2-4.3,6.5
		c-0.1,0.1,0,0.4,0.1,0.5c0.3,0,0.7,0,1,0c0,0,0-0.4,0.1-0.6c0.1-0.2,0.2-0.4,0.3-0.6c1.6-2.1,3.1-4.1,4.7-6.2
		c0.3-0.4,0.8-0.7,0.6-1.4c0-0.1,0.4-0.4,0.5-0.4c0.3,0.3,0.5,0,0.6-0.2c0.7-0.7,1.3-1.4,2-2.1c0.8-0.9,1.7-1.9,2.4-2.9
		c1-1.4,1.9-2.8,2.7-4.3c0.3-0.6,0.6-1.2,0.4-1.9c-0.1-0.4-0.2-0.8-0.2-1.3c0.1-2.3,0.1-4.6,0.1-7c0-0.7-0.1-1.4-0.1-2
		c-0.1-1.2-0.2-2.4-0.2-3.6c0-1.3-0.2-2.7-0.3-4c-0.2-1.9-0.2-3.8-0.3-5.8c0-0.9,0-1.7,0-2.6c0-0.2-0.1-0.6-0.3-0.6
		c-0.5-0.1-1-0.1-1.5,0c0,0,0,0.5,0,0.8c0,0.1,0,0.1,0,0.2c0.1,1.7,0.3,3.3,0.4,5c0.1,1.5,0.1,3,0.1,4.6c0,1.3,0,2.7,0,4
		c0,0.3,0,0.5,0,0.8c0.1,0.8,0.2,1.5,0.2,2.3c0,1-0.2,2-0.2,3c0,0.8,0,1.7,0,2.5c0,1-0.5,1.8-1.1,2.6c-0.3,0.4-0.6,0.2-0.6-0.1
		c-0.1-0.5,0-1,0-1.4c0-0.6,0.1-1.2,0.2-1.8c0-0.1-0.1-0.2-0.1-0.2c0,0.1-0.1,0.1-0.1,0.2c-0.2,0.4-0.3,0.8-0.5,1.2
		c0,0.1-0.2,0.1-0.3,0.2c0-0.1-0.1-0.3,0-0.3c0.4-0.5-0.2-0.4-0.4-0.5c-0.2-0.1-0.5-0.1-0.5,0.3c0,0.2-0.2,0.3-0.3,0.5
		c-0.1,0.1-0.2,0.1-0.2,0.1c0.1,0,0.2,0.1,0.2,0.1c0.1,0.1,0.2,0.2,0.2,0.4c0,0-0.1,0.1-0.1,0.1c-0.1,0-0.2,0-0.3,0
		c0.1,0.1,0.2,0.2,0.3,0.3c0.1,0.1,0,0.2,0.1,0.3c-0.1,0-0.3,0.1-0.3,0c-0.2-0.3-0.3-0.6-0.4-0.9c-0.1-0.4-0.1-0.7-0.1-1.1
		c0-0.1-0.3-0.3-0.4-0.3c-1.4,0.1-2.7,0.3-4.1,0.5c-0.4,0-0.5,0.1-0.5,0.5c0,0.4,0,0.9-0.1,1.3c0,0.1-0.3,0.3-0.5,0.3
		c-0.2,0-0.5-0.2-0.6-0.4c-0.1-0.3-0.1-0.6-0.2-1c0-0.1-0.2-0.3-0.3-0.3c-1.3,0.1-2.7-0.4-3.9,0.5c-0.1,0-0.2,0-0.3,0
		c-0.4-0.4-0.9-0.2-1.4-0.2c-0.8,0-1.6-0.1-2.4-0.1c-0.1,0-0.3,0.1-0.3,0.2c-0.1,0.7-0.1,1.3-0.1,2c0,0.3,0,0.7,0,1
		c0.3,0,0.6-0.1,0.8-0.1c0.2,0,0.4,0,0.6,0c1,0,2-0.1,2.9-0.1c1.6-0.1,3.3-0.2,4.9-0.2c1.7,0,3.5,0.1,5.2,0.1c0.1,0,0.2,0,0.2,0
		c1.3,0.3,2.6,0,3.9,0.2c0,0,0.1,0,0.1-0.1c0.3-0.4,0.6-0.2,0.9,0c0.2,0.1,0.4,0.3,0.6,0.4c-0.2,0.2-0.4,0.5-0.6,0.6
		c-0.2,0.1-0.4,0.2-0.6,0.2c-0.4,0-0.5,0.3-0.5,0.6c-0.2,2-0.8,3.7-2.1,5.2c-0.1,0.1-0.1,0.3,0,0.4c0.3,0.5,0.1,1.1-0.5,1
		c-0.9-0.1-1.2,0.4-1.6,1C106.7,85.7,106.5,86,106.2,86.3 M102.3,56.6c0,1.5,0.1,2.9,0.1,4.4c0,1,0,2.1,0,3.1c0,0.3-0.1,0.7-0.2,1
		c0,0.1-0.1,0.2-0.2,0.3c0-0.1,0-0.3,0-0.4c0-0.2-0.1-0.3-0.2-0.5c0,0.1-0.1,0.3-0.1,0.4c0,0.3,0.1,0.6,0.1,1c0,1,0,2,0,3
		c0,0.1,0,0.1,0.1,0.2c0-0.1,0-0.1,0-0.2c0.2-1.1,0-2.3,0.4-3.5c0-0.1,0.1-0.1,0.1-0.2c0,0.1,0,0.1,0,0.2c0,0.8,0.1,1.6,0.1,2.4
		c0,0.9,0,1.8,0,2.7c0,0.2,0,0.4,0.3,0.3c0.7-0.1,1.3-0.2,2-0.2c0.7-0.1,1.5-0.1,2.2-0.1c0.3,0,0.5-0.1,0.4-0.5
		c-0.1-0.2-0.1-0.3-0.1-0.5c0-0.6,0.1-1.2,0.1-1.8c0-0.9-0.1-1.7-0.1-2.6c0-3.5-0.1-7-0.1-10.5c0-1.5-0.1-3-0.1-4.5
		c0-0.4,0.2-0.4,0.4-0.3c0.2,0.1,0.5,0.3,0.5,0.5c0.2,0.5,0.5,1.1,0.5,1.7c0.1,2,0.1,4,0.1,5.9c0,1.3-0.1,2.6-0.1,3.9
		c0,1,0.1,2,0.1,3c0,0.8-0.1,1.6-0.1,2.4c0,0.3,0,0.3-0.2,0.2c-0.1,0-0.2,0-0.2,0.1c0,0.1,0,0.2,0.1,0.2c0.8,0.2,0.3,0.9,0.4,1.3
		c0.1,0.5,0,1,0.1,1.5c0.1,0.2,0.4,0.4,0.7,0.6c0.1,0.1,0.2,0.1,0.3,0.2c0-0.1,0-0.2,0.1-0.3c0.1-1.4,0.3-2.7,0.4-4.1
		c0.1-1.4,0.2-2.8,0.2-4.2c0.1-1,0.2-2,0.2-3c0-0.8-0.2-1.6-0.2-2.4c-0.1-1.5-0.2-3.1-0.2-4.6c0-1-0.1-2.1-0.1-3.1
		c0-0.3-0.1-0.4-0.4-0.5c-0.5,0-1.1-0.2-1.6-0.2c-0.7,0-1.5-0.2-2.2,0.2c-0.3,0.2-0.7,0.3-1,0.5c-0.2,0.1-0.3,0.1-0.3-0.2
		c0.1-0.5-0.1-0.6-0.6-0.6c-0.3,0-0.6,0-1,0c-0.7,0-0.8,0.1-0.6,0.8c0,0.2,0,0.3,0,0.5C102.3,52.4,102.3,54.4,102.3,56.6 M93.1,81.4
		c-0.1,0.1-0.1,0.3-0.2,0.4c-0.1-0.2-0.1-0.3-0.2-0.5c0-0.1,0-0.3,0-0.4c0-0.1,0-0.2-0.1-0.2c-0.1,0.1-0.1,0.2-0.2,0.2
		c0,0.3,0,0.5,0,0.8c-0.1,0.6-0.2,1.1-0.2,1.7c0,0.1,0.1,0.3,0.2,0.3c1,0.1,2,0.1,3,0.1c1,0,2-0.1,3-0.2c1-0.1,2-0.2,3-0.2
		c1.7-0.1,3.3-0.2,5-0.4c0.3,0,0.7-0.2,0.9-0.4c1.2-1.2,2.1-2.6,2.6-4.3c0.2-0.8,0.2-0.8-0.6-0.9c-1.6-0.2-3.2-0.4-4.8-0.5
		c-1.5-0.1-3,0.1-4.6,0.1c-0.7,0-1.4,0.1-2,0.1c-1.5,0.1-3,0.2-4.5,0.2c-1.7,0-1.7,0-1.6,1.7c0,0.2,0.2,0.4,0.3,0.5
		c0.2,0.2,0.4,0.3,0.6,0.5c0,0,0.1,0,0.2-0.1c0.1-0.1,0.2-0.3,0.3-0.4c0,0.2,0.1,0.3,0.1,0.5C93.3,80.5,93.2,80.9,93.1,81.4
		 M90.6,45.1c0.2,1,0.4,2,0.5,3c0.1,0.4,0.2,0.7,0.6,0.6c0.8-0.1,1.6-0.2,2.4-0.2c1.3-0.1,2.6-0.1,4-0.1c0.7,0,1.5,0,2.2,0
		c0.3,0,0.8-0.2,0.9-0.5c0.2-0.5,0.4-0.4,0.7-0.1c0.2,0.2,0.4,0.5,0.6,0.5c0.6,0,1.3,0,1.9-0.1c0.1,0,0.2-0.2,0.2-0.3
		c-0.5-0.5,0-0.6,0.3-0.8c0.2-0.1,0.3-0.3,0.4-0.4c0-0.5,0-1.1,0-1.6c0.1-1.4-0.5-2.6-1.2-3.7c-0.1-0.2-0.3-0.4-0.6-0.4
		c-1.4-0.2-2.7,0-4.1,0.2c-0.6,0.1-1.2,0-1.8,0c-0.5,0-1.1-0.1-1.6-0.1c-1.4,0.1-2.9,0.3-4.3,0.5c-0.4,0-0.7,0.1-0.9,0.6
		C90.5,43.1,90.6,44,90.6,45.1 M63.3,64.6c0.1,0.8,0.2,1.7,0.2,2.5c0,0.2,0.1,0.4,0.1,0.5c0.1,0.1,0.2,0.2,0.3,0.3
		c0.1-0.1,0.1-0.2,0.2-0.4c0-0.5,0-0.9,0-1.4c0.1-0.7,0.2-1.4,0.2-2.1c0-0.4,0-0.9,0-1.3c0-0.9,0-1.8,0.1-2.6
		c0.2-0.9,1.3-1.8,2.1-1.6c0.4,0.1,0.9,0.2,1.3,0.4c0.9,0.4,1.5,0.9,1.8,1.9c0.5,1.9,0.9,3.8,1.9,5.5c0.4,0.7,1.6,1.3,2.4,0.9
		c0.1,0,0.2-0.1,0.3-0.1C74.1,67,74,67,73.9,67c-0.2-0.1-0.3-0.2-0.5-0.3c0.2-0.1,0.3-0.2,0.5-0.2c0.3,0,0.7,0,0.8-0.4
		c0.1-0.8,0.3-1.6,0.4-2.4c0.1-2.4,0.1-4.8,0.1-7.3c0-1.2-0.3-2.3-1-3.2c-0.2-0.2-0.5-0.4-0.8-0.6c-0.7-0.3-1.3-0.1-1.9,0.2
		c-1.3,0.7-2.8,1.1-3.8,2.3c-0.5,0.6-1.2,1.1-1.8,1.6c-1.1,1-2.2,2-3.2,3c-0.2,0.2-0.1,0.4,0,0.7c0.3,0.7,0.9,1.3,0.6,2.3
		C63.1,63.3,63.3,63.9,63.3,64.6 M115.2,88.3c0.4-0.2,0.7-0.4,1.1-0.6c1-0.5,2-1,3-1.5c0.2-0.1,0.4-0.4,0.3-0.5
		c-0.2-1.2-0.3-2.4-0.7-3.6c-0.5-1.7-0.6-3.4-0.6-5.1c0-0.3,0-0.7,0-1c-0.3,0-0.6,0.1-0.8,0.1c-0.6,0-1.2-0.1-1.5,0.6
		c0,0.1-0.2,0.1-0.4,0.2c0-0.1,0-0.3,0-0.4c0-0.1,0-0.2-0.1-0.3c-0.1,0-0.3-0.1-0.3,0c-0.1,0-0.1,0.2-0.1,0.3c0,0.3,0,0.5,0.1,0.8
		c0.3,1-0.1,1.8-0.6,2.5c-0.6,1-1.3,2-2,3c-1.1,1.7-2.3,3.2-3.7,4.6c-0.7,0.7-1.4,1.4-2.1,2.1c-0.2,0.2-0.3,0.4-0.3,0.6
		c0,0.7,0.1,1.3,0.2,2c0,0.1,0.2,0.3,0.2,0.4c0-0.1,0.1-0.2,0.1-0.3c0-0.2,0.1-0.4,0.1-0.6c0,0,0.1-0.1,0.2-0.1
		c0.1,0.3,0.3,0.6,0.4,0.9c-0.1,0-0.3,0.1-0.3,0.1c-0.2,0.3-0.4,0.6-0.8,0.6c0,0-0.1,0.2-0.1,0.3c0,0.2,0,0.3,0,0.5
		c0,0.2,0,0.3,0,0.5c0.1-0.1,0.3-0.1,0.4-0.2c1.1-0.9,2.1-1.8,3.3-2.6C111.9,90.4,113.6,89.4,115.2,88.3 M95.7,93.7
		c0.5,0.8,0.9,1.5,1.4,2.3c0.1,0.1,0.1,0.2,0.2,0.3c0.1-0.1,0.3-0.2,0.4-0.3c0.5-0.9,1-1.9,1.6-2.8c1.7-2.8,3.7-5.4,6-7.8
		c0.2-0.2,0.3-0.4,0.5-0.7c-0.3,0-0.5,0-0.8,0c-2,0.1-4,0.2-6,0.4c-0.5,0-1,0.1-1.6,0.1c-0.5,0-1,0.1-1.4,0.1
		c-1.1,0-2.3-0.1-3.4-0.2c-0.4,0-0.4,0.1-0.2,0.4c0.2,0.3,0.2,0.6,0.2,1c0,1.1-0.4,2.3,0.6,3.2c0.1,0.1,0.1,0.4,0.2,0.6
		c0,0.1,0,0.3,0.1,0.4C94.1,91.6,94.9,92.6,95.7,93.7 M92.5,55c0.1-0.8,0.1-1.6,0.2-2.3c0.1-0.6,0.1-1.3,0.2-1.9c0.2-1,0-1.2-1-1.2
		c-0.1,0-0.2,0-0.2,0c-0.5,0-0.6,0.1-0.5,0.6c0.1,0.3,0,0.7-0.2,0.9c-0.2,0.2-0.7,0.2-1,0.2c-0.2,0-0.2-0.5-0.3-0.7
		c-0.1-0.2-0.1-0.4-0.1-0.5c0-0.1-0.1-0.2-0.2-0.2c0,0.1-0.1,0.2-0.1,0.3c0,0.8,0.1,1.5,0.1,2.3c0,1,0,2,0,3c0,0.8-0.1,1.6-0.1,2.5
		c0,2.4,0,4.8,0,7.2c0,0.2-0.2,0.4-0.1,0.5c0.3,0.4-0.7,0.8,0,1.2c-0.1,0.1-0.2,0.1-0.2,0.2c-0.1,0.1-0.1,0.2-0.1,0.3
		c0,0,0.1,0.1,0.2,0.1c0.2,0,0.2,0,0.2,0.1c0,1.3,0,2.6,0,3.8c0,0.1,0.2,0.4,0.2,0.4c0.7,0,1.4,0,2.2,0c0.1,0,0.2-0.1,0.2-0.2
		c0.1-1.1,0.3-2.3,0.4-3.4c0.1-2.1,0.1-4.3,0.1-6.4c0-0.7,0-1.5,0-2.2C92.4,57.8,92.4,56.4,92.5,55 M88.5,53.1c0-0.8,0-1.6,0-2.4
		c0-0.8,0-0.8-0.8-0.9c-0.1,0-0.2-0.1-0.3-0.1c-0.6,0.1-1.3,0.2-1.9,0.4c-0.1,0,0,0.6,0.1,0.9c0,0,0,0.1,0,0.1
		c0.1,2.1,0.2,4.3,0.2,6.4c0.1,2.4,0.1,4.8,0.1,7.2c0,1.1-0.1,2.2-0.1,3.2c0,1.3,0,2.6,0,3.8c0,0.1,0.1,0.3,0.2,0.3
		c0.6-0.1,1.2-0.1,1.8-0.2c0.2,0,0.4-0.2,0.4-0.4c0.1-1.4,0.2-2.8,0.3-4.2c0-1.2,0-2.5,0-3.7c0-0.6,0.1-1.2,0.1-1.9
		C88.5,58.9,88.5,56,88.5,53.1 M135.4,104.9c-0.3-1.8-0.7-3.5-1-5.3c0-0.2-0.3-0.6-0.4-0.6c-1.1,0.1-2.3,0.3-3.4,0.6
		c-1.5,0.3-2.9,0.6-4.4,1c-0.4,0.1-1,0-0.9,0.7c0.1,0.7,0.3,1.4,0.4,2.1c0.2,1.1,0.4,2.3,0.6,3.4c0.1,0.4,0.2,0.5,0.6,0.4
		c2.6-0.6,5.2-1.6,7.9-1.8C134.9,105.4,135.6,105.7,135.4,104.9 M123.7,93.6c1.8-0.7,3.7-1.1,5.7-1.2c0.9,0,1.8-0.2,2.7-0.4
		c0.1,0,0.3-0.2,0.3-0.3c-0.3-1.6-0.6-3.2-0.9-4.8c-0.1-0.3-0.2-0.6-0.6-0.5c-0.3,0.1-0.5,0.1-0.8,0.1c-1.6,0.1-3.2,0.2-4.8,0.2
		c-1.1,0-2.1,0.3-2.9,1.1c-0.2,0.2-0.3,0.3-0.2,0.6c0.3,1.1,0.6,2.2,0.9,3.2C123.3,92.4,123.4,93,123.7,93.6 M136.5,110.2
		c-0.1-0.4-0.2-0.8-0.2-1.2c0-0.6-0.7-1.2-0.1-1.8c0,0,0-0.1,0-0.1c-0.5,0-0.2-0.4-0.3-0.6c-0.1-0.2-0.3-0.5-0.4-0.5
		c-1.5,0.3-3,0.7-4.4,1.1c-1.2,0.3-2.5,0.6-3.7,1c-0.3,0.1-0.7,0-0.6,0.6c0.2,0.9,0.2,1.8,0.4,2.7c0.1,0.6,0.2,1.3,0.4,1.9
		c0,0.1,0.3,0.3,0.4,0.3c0.4-0.1,0.8-0.3,1.3-0.4c2.1-0.5,4.2-1,6.3-1.5c1.4-0.3,1.5-0.2,1.3-1.4
		C136.6,110.3,136.6,110.3,136.5,110.2 M132.7,93.2c0-0.3-0.1-0.5-0.4-0.4c-1.2,0.5-2.5,0.5-3.8,0.7c-1.5,0.3-3,0.5-4.4,0.9
		c-0.1,0-0.3,0.3-0.3,0.4c0.4,1.6,0.8,3.3,1.1,4.9c0.1,0.4,0.3,0.3,0.5,0.3c0.7-0.2,1.3-0.4,2-0.6c1.9-0.3,3.8-0.6,5.6-0.8
		c0.8-0.1,1-0.3,0.8-1C133.5,96.1,133.1,94.7,132.7,93.2 M87,90.8c0.2,0.1,0.4,0.2,0.7,0.3c0.7,0.4,1.4,0.8,2.2,1.1
		c0.1,0.1,0.3,0.1,0.5,0.1c0-0.1-0.1-0.2-0.1-0.2c-1.5-1.7-3-3.3-4.4-5c-0.7-0.9-1.4-1.8-2.1-2.7c-0.1-0.2-0.4-0.3-0.6-0.3
		c-0.8,0-1.6,0.1-2.3,0.1c-1.6-0.1-3.2-0.2-4.8-0.3c-0.2,0-0.5,0.1-0.5,0.2c0,0.2,0.1,0.5,0.2,0.7c0.1,0.1,0.2,0.1,0.3,0.2
		c1,0.5,2.1,1,3.1,1.6c1.5,0.9,3,1.8,4.5,2.6C84.7,89.7,85.8,90.2,87,90.8 M128.3,77.4c0.5,0,1,0,1.4,0.2c0.5,0.2,0.4,0,0.4-0.3
		c-0.1-1.1-0.2-2.3-0.4-3.4c-0.1-0.8-0.2-1.5-0.2-2.3c0-0.1-0.1-0.2-0.2-0.4c0,0-0.1,0-0.2,0c0,0.1,0.1,0.2,0,0.4
		c0,0.5,0.1,1.1-0.1,1.3c-0.6,0.5-1.3,0.8-2,1.1c-0.1,0.1-0.4-0.2-0.6-0.3c0.1-0.1,0.2-0.2,0.3-0.2c0.1-0.1,0.2-0.2,0.3-0.3
		c-0.1,0-0.2-0.1-0.3-0.1c-0.1,0-0.3,0-0.4,0.1c-0.6,0.1-1.1,0.4-1.7,0.1c-0.2-0.1-0.6-0.2-0.9-0.1c-1,0.1-2.1,0.3-3.1,0.3
		c-0.4,0-0.4,0.2-0.4,0.5c0,1.1-0.1,2.2-0.1,3.2c0,0.3,0,0.4,0.4,0.3c1.2-0.2,2.4-0.3,3.6-0.4c0.8,0,1.7,0.1,2.5,0.1
		c0.1,0,0.4-0.1,0.4-0.2c0.1-0.3,0.1-0.6,0.1-1c0-0.2-0.1-0.3-0.1-0.5c-0.1,0.1-0.2,0.2-0.3,0.4c-0.1,0.1-0.2,0.2-0.2,0.2
		c-0.1-0.1-0.2-0.3-0.2-0.3c0.3-0.5,0.6-0.9,0.9-1.3c0,0,0.2,0,0.2,0.1c0.6,0.5,0.9,1.8,0.6,2.5C128.1,77.2,128.2,77.3,128.3,77.4
		 M98.5,2.1c-0.4-0.3-0.8-0.6-1.1-1c-0.3-0.3-0.4-0.1-0.5,0.1c-0.1,0.1-0.2,0.2-0.3,0.3c-0.1-0.2-0.3-0.3-0.4-0.5
		c0-0.1,0-0.1-0.1-0.2c0,0-0.1,0.1-0.1,0.1c-0.4,1.1-1.4,1.5-2.3,2.1c-0.1,0.1-0.2,0.1-0.2,0.1c0-0.1,0-0.2,0-0.3c0-0.1,0-0.3,0-0.4
		c0,0-0.1,0-0.1,0c-0.1,0.1-0.1,0.3-0.2,0.4c0,0.1,0,0.2,0,0.3c0,0.1,0,0.3-0.1,0.3c-0.5,0.4-1,0.7-1.4,1c-0.5,0.4-1,0.7-1.5,1.1
		c-0.2,0.2-0.2,0.5-0.5,0.1c0,0-0.1,0-0.1,0c0,0.1,0,0.2,0,0.2c0.2,0.5,0.8,0.6,1.2,0.2c0.4-0.3,0.9-0.7,1.3-1.1
		c0.3-0.3,0.4,0,0.6,0.1c0.6,0.4,1.2,0.8,1.8,1.2c0.1,0.1,0.2,0,0.4,0c1.2,0,2.4-0.1,3.7-0.1c0.7,0,0.7,0,0.6-0.7
		c0-0.1,0.2-0.4,0.3-0.4c0.4,0.1,0.8,0.3,1.1,0.5c0.7,0.5,0.9,0.5,1.6-0.1c0.3-0.2,0.4-0.5-0.1-0.6c-0.2-0.1-0.4-0.2-0.6-0.4
		C100.4,3.8,99.5,3,98.5,2.1 M74.9,79.1c-0.7,0.5-1.3,1.1-2,1.6c-0.4,0.3-0.4,0.5-0.2,0.9c0.2,0.3,0.5,0.5,0.5,0.8
		c0,0.8,0.6,1.1,1,1.6c0.1,0.1,0.3,0.1,0.4,0.2c0-0.1,0-0.3,0-0.4c-0.2-0.7,0-0.9,0.7-0.9c0.6,0,1.3,0.1,1.9,0.1c1.6,0,3.3,0,4.9,0
		c1,0,1.1,0,0.7-1c-0.4-0.9-0.4-2.1-1.8-2.1c-0.7,0-1.4-0.4-2.1-0.3c-0.5,0-0.9,0-1.4-0.1c-0.5-0.1-1-0.1-1.5-0.3
		C75.5,78.8,75.2,78.6,74.9,79.1 M115.8,67c0,0.7,0.1,1.4,0.1,2c0,1.1-0.1,2.1-0.1,3.2c0,0.7,0.1,1.3,0.1,2c0,0.2-0.1,0.5-0.3,0.6
		c-0.3,0.2-0.6,0.2-0.9,0.4c0.3,0,0.7-0.1,1-0.1c0.7,0,1.5,0.1,2.2,0.1c0.3,0,0.5,0,0.5-0.4c0-0.8,0-1.6,0-2.4
		c0-0.7-0.1-1.4-0.1-2.1c0-0.9,0-1.8,0-2.7c-0.1-1.3-0.1-2.6-0.2-3.9c0-0.5-0.1-0.9-0.3-1.3c-0.2-0.4-0.6-0.8-0.9-0.9
		c-0.3,0-0.7,0.5-0.9,0.8c-0.2,0.5-0.3,1.1-0.3,1.6C115.7,65,115.7,66,115.8,67 M127.5,116.3c0,0.3,0.1,0.6,0.1,0.8
		c0,0.3,0.1,0.3,0.4,0.3c0.4-0.1,0.8-0.2,1.2-0.4c2-0.6,4-1.1,6-1.7c0.7-0.2,1.4-0.7,2.1-1.1c0.1-0.1,0.2-0.3,0.2-0.4
		c-0.1-0.5-0.3-1-0.4-1.4c-0.1-0.2-0.2-0.2-0.5-0.2c-2.5,0.7-5,1.3-7.5,2C127.5,114.6,127.5,114.6,127.5,116.3 M124,82.6
		c1.2-1.1,2-2.3,2.8-3.7c0.3-0.5,0.2-0.7-0.4-0.7c-0.3,0-0.7,0-1,0c-0.5,0-1.1-0.1-1.6-0.1c-1,0-2.1,0-3.1,0c-0.2,0-0.4-0.1-0.4,0
		c-0.1,0.1-0.1,0.3-0.1,0.5c0.1,0.7,0.3,1.5,0.4,2.2c0.2,1.2,0.4,2.4,0.6,3.6c0.1,0.3,0.3,0.4,0.5,0.2C122.5,84,123.2,83.3,124,82.6
		 M86.8,82.3c0.3,0.5,0.6,1.1,1,1.6c0.1,0.2,0.4,0.6,0.6-0.1c0-0.1,0.3-0.3,0.4-0.3c0.5,0,1,0.1,1.5,0c0.1,0,0.2-0.2,0.2-0.3
		c-0.1-1.4-0.2-2.9-0.3-4.3c0-0.4,0-0.8,0-1.1c0-0.3,0-0.4-0.3-0.4c-0.6,0-1.1,0-1.7-0.1c-0.6-0.1-1.1-0.1-1.7,0.3
		c-0.2,0.1-0.5,0.2-0.7,0.4c-0.1,0.1-0.3,0.3-0.2,0.4C85.9,79.7,86,81,86.8,82.3 M80.1,88.9c0.7,0.6,1.4,1.1,2.1,1.7
		c0.1,0,0.1,0.1,0.1,0.2c-0.1,0-0.1,0-0.2-0.1c-0.5-0.3-0.9-0.5-1.4-0.8c-0.1-0.1-0.2-0.1-0.4-0.2c0.1,0.2,0.1,0.4,0.2,0.4
		c1.7,1.1,3.4,2.3,5.2,3.1c1.7,0.8,3.5,1.5,5.1,2.3c0.3,0.2,0.5,0.1,0.4-0.3c-0.1-0.5-0.2-0.9-0.3-1.4c0-0.1-0.2-0.2-0.3-0.3
		c-0.7-0.4-1.5-0.9-2.2-1.2c-1-0.5-1.9-1.2-3.2-1.2c-0.3,0-0.6-0.2-0.9-0.4c-1.1-0.7-2.2-1.4-3.4-2.2c-0.6-0.4-1.2-0.7-1.8-1.1
		c-0.1,0-0.2,0-0.3,0c0,0.1,0.1,0.2,0.1,0.3C79.3,88.2,79.7,88.6,80.1,88.9 M91.6,75.4c0-0.2,0-0.4,0-0.6c0-0.6,0.2-1.4-0.1-1.7
		c-0.4-0.3-1.1-0.1-1.7-0.1c-0.1,0-0.1,0-0.2,0c-0.1,0.1-0.3,0.3-0.4,0.4C89.1,73.7,89,74,89,74c-0.2,0-0.6-0.1-0.6-0.3
		c-0.2-0.4-0.3-0.3-0.6-0.3c-0.5,0.1-1.1,0.4-1.6,0c0,0-0.3,0.1-0.3,0.1c0,0.5,0,1.1,0,1.6c0,0.4,0.1,0.9,0.4,1.1
		c0.3,0.2,0.8-0.1,1.2-0.1c1.1,0,2.3,0.1,3.4,0.1C91.6,76.3,91.7,76.4,91.6,75.4 M127.9,83.3c-0.6,0.6-1.2,1.2-1.8,1.8
		c-0.2,0.2-0.4,0.2-0.6,0.4c-0.1,0.1-0.2,0.1-0.3,0.2c0.1,0.1,0.2,0.2,0.4,0.1c0.4,0,0.8-0.1,1.1-0.1c1.3,0,2.6,0,3.9,0
		c0.5,0,0.7-0.2,0.6-0.6c-0.2-1.2-0.4-2.4-0.6-3.5c0-0.2-0.1-0.4-0.1-0.5c-0.2,0.1-0.5,0.2-0.6,0.4C129.2,82,128.6,82.6,127.9,83.3
		 M103.4,94c-0.5,0.7-0.9,1.3-1.4,2c-0.1,0.1-0.2,0.3-0.3,0.4c0.2,0.1,0.4,0.2,0.6,0.2c0.5,0,1,0,1.4,0c0.1,0,0.3-0.1,0.4,0
		c0.7,0.6,1.5,0.2,2.3,0.2c0.1,0,0.2-0.1,0.2-0.2c0-0.4,0.1-0.8-0.3-1.1c-0.4-0.3-0.6-0.7-0.5-1.2c0.1-1,0.2-1.9,0.2-2.9
		c0-0.2-0.1-0.3-0.1-0.5c-0.1,0.1-0.3,0.1-0.4,0.3C104.8,92.1,104.1,93,103.4,94 M128.4,81.6c0.4-0.4,0.9-0.7,1.3-1.1
		c0.5-0.4,0.8-1.2,0.6-1.8c0-0.1-0.2-0.2-0.3-0.2c-0.6-0.1-1.2-0.1-1.8-0.1c-0.1,0-0.3,0.2-0.4,0.3c-0.1,0.3-0.1,0.7-0.3,1
		c-1.2,2.5-3,4.6-5.3,6.2c-0.2,0.1-0.3,0.3-0.4,0.4c0.2,0,0.5,0,0.7,0c0,0,0.1-0.1,0.1-0.1c0.4-0.3,0.8-0.7,1.3-1
		C125.4,84,126.9,82.8,128.4,81.6 M88,86.1c-0.2-0.3-0.4-0.5-0.5-0.8c-0.4-1.1-1.4-1.2-2.4-1.3c-0.4,0-0.4,0.2-0.3,0.5
		c0.2,0.3,0.4,0.6,0.6,0.9c1.8,2,3.6,4,5.5,6.1c0.1,0.1,0.2,0.1,0.3,0.1c0.1,0,0.1-0.2,0.1-0.3c0-0.1,0-0.3-0.1-0.4
		c-0.1-0.4-0.1-1-0.3-1.3C90.1,88.4,89.1,87.3,88,86.1 M118.5,41.2c-0.2-0.6,0.1-1.1,0.6-1.4c1.6-0.9,3.2-1.6,5.1-1.2
		c0.1,0,0.3,0,0.4-0.1c-0.1-0.1-0.2-0.2-0.3-0.3c-0.6-0.3-1.3-0.5-1.8-0.7c-0.7-0.3-1.2-0.2-1.8,0.2c-0.6,0.5-1.3,0.9-2.2,1
		c-0.6,0-1.3,0.2-1.7,0.8c-0.3,0.4-0.4,1-0.1,1.5c0.3,0.6,0.9,0.6,1.5,0.7C118.5,41.7,118.6,41.5,118.5,41.2 M64.8,31
		c0.2-0.1,0.3-0.3,0.5-0.4c0.9-0.8,1.9-1.5,2.8-2.3c1.2-1,2.4-2,3.6-3c0.9-0.8,1.7-1.6,2.5-2.4c0.1-0.1,0.1-0.2,0.2-0.3
		c-0.1,0-0.3,0-0.4,0.1c-0.8,0.7-1.6,1.4-2.4,2.1c-0.9,0.8-1.9,1.5-2.8,2.3c-1.2,1-2.5,2-3.7,3.1c-0.9,0.8-1.8,1.6-2.7,2.5
		c-0.1,0.1-0.1,0.1-0.2,0.2c0.1,0,0.2,0,0.2,0C63.3,32.1,64,31.6,64.8,31 M119.9,87.6c-0.5,0.2-1,0.4-1.5,0.7c-1.8,1-3.6,2-5.3,3.2
		c-1.5,1-2.9,2.2-4.3,3.3c-0.1,0.1-0.1,0.3-0.1,0.4c0.2,0,0.4,0.1,0.5,0.1c1.6-1.3,3.2-2.5,4.8-3.8c1.6-1.3,3.3-2.4,5.3-3.2
		c0.3-0.1,0.6-0.3,0.9-0.4c0.1,0,0.1-0.2,0.2-0.3C120.2,87.5,120.1,87.5,119.9,87.6 M123.7,71.8c1.1,0,2.3,0.1,3.4,0.1
		c0.2,0,0.5,0,0.6-0.2c0.1-0.2,0-0.5,0-0.7c-0.2,0-0.4,0-0.6,0c-0.1,0-0.2,0-0.2,0c-0.9,0-1.8,0.1-2.8,0.1c-1.2,0.1-2.4,0.2-3.6,0.2
		c-0.4,0-0.4,0.2-0.4,0.5c0,0.4,0.2,0.4,0.5,0.4C121.7,72.1,122.7,72,123.7,71.8 M90.5,85c-0.4,0-0.8-0.2-1.1-0.1
		c-0.4,0.3-0.4,0.2-0.6-0.2c-0.1-0.2-0.3-0.2-0.4-0.4c0,0.2,0,0.4,0.1,0.6c0.7,0.9,1.4,1.9,2.1,2.8c0,0.1,0.1,0.1,0.2,0.1
		c0-0.1,0.1-0.1,0.1-0.2c0-0.6-0.1-1.3-0.2-1.9C90.7,85.5,90.6,85.3,90.5,85 M66.7,85.8c0,0.4,0,0.7,0.1,1.1c0,0.3-0.1,0.6,0.1,0.8
		c0.1,0.2,0.4,0.4,0.7,0.5c0-0.2,0.1-0.4,0.1-0.6c0-0.5,0-1.1,0-1.6c0-0.3,0-0.7,0-1C67.3,85.2,67.1,85.5,66.7,85.8 M131.4,29.3
		c-0.3-0.4-0.7-0.8-1-1.2c-0.1-0.1-0.3-0.2-0.5-0.2c0,0.2,0,0.3,0.1,0.5c0.2,0.4,0.4,0.8,0.6,1.1c0.3,0.5,0.6,1,0.9,1.5
		c0.1,0.1,0.3,0.1,0.4,0.2c0-0.2,0.1-0.4,0.1-0.5C131.8,30.2,131.6,29.9,131.4,29.3 M119.1,45.8c-0.1,0.1-0.3,0.1-0.4,0.2
		c-0.3,0.3-0.5,0.7-0.9,1c-0.5,0.4-1.1,0.8-1.7,1.2c-0.1,0.1-0.2,0.1-0.2,0.2c0,0,0.1,0.1,0.1,0.1c0.5-0.1,1,0,1.4-0.2
		C118.1,47.7,118.8,46.9,119.1,45.8 M93.5,97.1c0.5,0,0.9,0,1.4,0c0.1,0,0.1,0,0.2,0C95,97,95,96.9,94.9,96.8
		c-0.2-0.1-0.5-0.2-0.6-0.4c-0.3-0.3-0.5-0.6-0.7-0.9c-0.1-0.1-0.2-0.1-0.3-0.1c0,0.1,0.1,0.2,0.1,0.3c0,0.2-0.1,0.4-0.1,0.6
		C93.3,96.6,93.3,96.8,93.5,97.1 M61.9,35.2c0.9,0.3,1.4-0.4,2-0.8c0.1,0,0-0.3-0.1-0.4c0-0.1-0.2-0.1-0.3-0.1
		c-0.6,0.3-1.1,0.7-1.7,1.1C61.8,35,61.8,35.1,61.9,35.2 M80.3,17.2c-0.5,0.5-1,1-1.5,1.5c-0.2,0.2-0.3,0.4-0.4,0.6
		c0.2-0.1,0.5-0.2,0.7-0.3c0.1,0,0.1-0.1,0.1-0.1c0.4-0.5,0.9-1,1.3-1.5C80.5,17.4,80.5,17.2,80.3,17.2 M74.3,21.2
		c0.4-0.2,0.7-0.5,1.1-0.7c0.1-0.1,0-0.3,0.1-0.4c-0.1,0-0.2,0.1-0.3,0.1c-0.4,0.4-0.8,0.7-1.3,1.1c-0.1,0.1-0.2,0.2-0.3,0.4
		c0,0,0.1,0.1,0.1,0.1c0.1-0.1,0.3-0.2,0.4-0.3C74.2,21.4,74.2,21.4,74.3,21.2 M101.2,60.4c0,0.1,0,0.2,0,0.3c0,0.1,0,0.2,0,0.3
		c0.1,0,0.2,0,0.2,0c0.1-0.1,0.1-0.2,0.1-0.3c0-0.2,0-0.4,0-0.6c0-0.1,0.1-0.2,0.2-0.2c0,0.1,0.1,0.2,0.1,0.2c0,0.3,0,0.7,0,1
		c0,0.1,0,0.2,0,0.3c0-0.1,0.1-0.2,0.1-0.3c0-0.5,0-1.1,0-1.6c0,0-0.1-0.1-0.1-0.1C101.6,59.7,101,59.8,101.2,60.4 M108,65.1
		c0,0.5,0.1,1,0.1,1.5c0,0.2,0.1,0.4,0.1,0.6c0.1-0.2,0.2-0.4,0.3-0.6c0-0.1,0-0.2,0-0.3c0-0.4-0.1-0.9-0.1-1.3
		c0-0.1-0.1-0.1-0.1-0.2C108.1,64.9,108,64.9,108,65.1 M96.3,64.6c0,0.6-0.1,1.3-0.1,1.9c0,0.1,0.1,0.1,0.2,0.2
		c0-0.1,0.1-0.1,0.1-0.2c0-0.6,0.1-1.2,0.1-1.8C96.6,64.7,96.4,64.6,96.3,64.6 M108.2,69.1c0.2-0.4,0.1-0.8-0.2-1.1
		c-0.1-0.1-0.2-0.1-0.3-0.1c0,0.4,0.1,0.9,0.1,1.3C107.9,69.2,108.1,69.2,108.2,69.1 M101.5,62.9c0-0.4,0-0.8,0-1.2
		c0,0-0.1-0.1-0.1-0.1c0,0.1-0.1,0.1-0.1,0.2c0,0.5,0,0.9,0,1.4c0,0.2,0.1,0.5,0.2,0.7C101.5,63.5,101.5,63.3,101.5,62.9 M93.1,12.4
		c0-0.3,0.1-0.7,0.1-1c0,0-0.1-0.1-0.1-0.2c0,0.1-0.1,0.1-0.1,0.2c0,0.3,0.1,0.6-0.3,0.7c-0.1,0-0.1,0.4-0.1,0.5
		C92.7,12.6,92.9,12.5,93.1,12.4 M96.6,61.5c0-0.2,0-0.3,0-0.5c0-0.1,0-0.1-0.1-0.2c0,0-0.1,0.1-0.1,0.1c0,0.5,0,1,0,1.5
		c0,0.1,0.1,0.1,0.2,0.1c0-0.1,0.1-0.2,0.1-0.2C96.7,62.1,96.6,61.9,96.6,61.5 M65.8,119c0-0.1,0-0.2,0-0.3c0-0.1-0.1-0.2-0.1-0.4
		c-0.1,0.1-0.2,0.3-0.2,0.4c0,0.1,0.1,0.3,0.1,0.4c0,0.3,0.1,0.6,0.1,0.9C65.7,119.8,65.8,119.4,65.8,119 M83.5,29.2
		c0-0.1,0-0.2,0-0.3c-0.2,0.3-0.5,0.7-0.7,1c0,0.1,0,0.2,0.1,0.3c0.1-0.1,0.2-0.1,0.3-0.2C83.2,29.7,83.4,29.5,83.5,29.2
		 M66.2,106.3c0.1,0,0.1,0,0.2,0c0.1-0.4,0.1-0.8,0.1-1.2c0-0.1-0.1-0.1-0.2-0.2c-0.1,0.1-0.2,0.1-0.2,0.2
		C66.2,105.5,66.2,105.8,66.2,106.3 M107.8,67.6c0-0.4,0-0.9,0-1.3c0,0-0.1,0-0.2,0C107.7,66.7,107.7,67.2,107.8,67.6 M101.2,68.7
		c0.1,0.2,0.1,0.3,0.2,0.5c0-0.2,0.1-0.3,0.1-0.5c0-0.1,0-0.2,0-0.3c0-0.2,0-0.4,0-0.6c-0.1,0-0.1,0-0.2,0c-0.1,0.2-0.1,0.4-0.2,0.6
		C101.2,68.5,101.2,68.5,101.2,68.7 M101.4,70c0.1,0,0.2-0.1,0.4-0.1c0.1,0,0.2,0,0.3,0c0-0.2-0.1-0.4-0.1-0.5c-0.1,0-0.3,0-0.3,0.1
		C101.5,69.6,101.4,69.7,101.4,70 M92.8,13.4c0-0.1,0-0.2-0.1-0.3c0-0.1-0.1-0.2-0.2-0.2c-0.1,0-0.2,0.1-0.3,0.2
		c0,0.1,0.1,0.2,0.1,0.3c0.1,0.1,0.2,0.1,0.2,0.2c0.1,0.2,0.1,0.4,0.1,0.5c0-0.2,0.1-0.4,0.1-0.5C92.9,13.6,92.8,13.5,92.8,13.4
		 M101.2,64.1c0,0.1,0,0.2,0,0.2c0,0.3,0.1,0.5,0.2,0.8c0.1-0.2,0.1-0.4,0.2-0.6c0-0.1,0-0.2,0-0.3
		C101.5,64.1,101.4,64.1,101.2,64.1 M96.4,58.6c0,0.1,0.1,0.3,0.1,0.4c0,0,0.1,0,0.1,0c0.1-0.2,0.1-0.5,0.1-0.7
		c0-0.1-0.1-0.2-0.1-0.4c-0.1,0.1-0.2,0.2-0.2,0.3C96.4,58.3,96.4,58.4,96.4,58.6 M102,63.9c0-0.4,0-0.7,0-1.1
		c0-0.1-0.1-0.1-0.2-0.2c0,0.1-0.1,0.1-0.1,0.2c0,0.4,0,0.8,0,1.1C101.7,64,101.9,64,102,63.9 M91.7,106.9c0,0.1,0,0.1,0,0.2
		c0.1,0,0.3-0.1,0.3-0.1c0-0.2,0-0.4-0.1-0.6c0-0.1,0-0.2-0.1-0.3c-0.1,0-0.2,0.1-0.2,0.1c0,0.1,0,0.2,0,0.4
		C91.6,106.7,91.7,106.8,91.7,106.9 M65.1,67.7c0.1,0,0.2,0,0.3,0c0.1,0,0.1-0.2,0.2-0.2c-0.2-0.1-0.4-0.2-0.6-0.3
		C65,67.3,65,67.4,65.1,67.7 M96.4,69.8c0.1,0,0.2-0.1,0.2-0.1c0-0.5,0-1,0-1.5c0-0.1-0.1-0.2-0.1-0.2c-0.1,0.1-0.1,0.2-0.1,0.2
		C96.3,68.8,96.3,69.3,96.4,69.8 M90.6,11.9c-0.1,0.2-0.1,0.5-0.2,0.7c0.2-0.1,0.3-0.1,0.4-0.3C91,12.2,90.8,12,90.6,11.9 M80.8,17
		c0.1-0.1,0.2-0.1,0.2-0.2c0.1-0.2,0.2-0.3,0.3-0.5c-0.2,0.1-0.4,0.1-0.5,0.3C80.5,16.8,80.5,16.9,80.8,17 M103.2,72.2
		c0.1-0.5-0.3-0.1-0.4-0.2c0,0-0.1,0-0.2,0c0,0.1,0.1,0.3,0.1,0.3C102.9,72.4,103,72.3,103.2,72.2 M107.6,63.2
		c0,0.1-0.1,0.2-0.1,0.2c0,0.1,0.1,0.3,0.1,0.4c0.1-0.1,0.2-0.2,0.3-0.3C107.7,63.4,108.1,63,107.6,63.2 M81.5,16.9
		c-0.2,0.1-0.4,0.2-0.6,0.3c0,0,0,0.2,0,0.2C81,17.5,81.6,17.1,81.5,16.9 M107.9,64.3c0.1,0.1,0.1,0.2,0.2,0.2
		c0.1-0.1,0.2-0.3,0.2-0.4c0-0.1-0.2-0.3-0.3-0.4c0,0.1-0.1,0.2-0.1,0.3C107.9,64.1,107.9,64.2,107.9,64.3 M107.8,65.2
		c0-0.1-0.1-0.2-0.1-0.3c0,0.1-0.1,0.2-0.1,0.2c0,0.1,0,0.3,0,0.4c0,0.1,0,0.3,0.1,0.4c0.1-0.1,0.1-0.3,0.2-0.4
		C107.9,65.5,107.8,65.4,107.8,65.2 M81,48.5c0.1,0,0.2-0.1,0.3-0.1c0.1-0.1,0.1-0.1,0.2-0.2c-0.2,0-0.5,0-0.7,0
		C80.9,48.3,80.9,48.4,81,48.5 M101.8,70.5c-0.1,0.1-0.2,0.1-0.2,0.2c-0.1,0.1-0.2,0.2-0.2,0.3c0.2,0,0.4,0.1,0.4,0
		C101.9,70.8,101.9,70.6,101.8,70.5 M107.4,17.2c0.1,0,0.2-0.1,0.3-0.1c-0.1-0.1-0.2-0.1-0.3-0.1c-0.2,0-0.4,0-0.6,0
		C107,17,107.1,17.1,107.4,17.2 M46.1,88.8c0.2-0.2,0.4-0.3,0.7-0.5c0,0,0-0.1-0.1-0.1c-0.2,0.2-0.4,0.3-0.6,0.5
		C46.1,88.7,46.1,88.7,46.1,88.8 M72.6,22.3c-0.1,0.1-0.2,0.2-0.2,0.4c0.1,0,0.3,0.1,0.3,0c0.1-0.1,0.2-0.2,0.3-0.3
		C72.8,22.3,72.7,22.2,72.6,22.3 M89,14.9c-0.1,0-0.1,0-0.2,0.1c-0.1,0.1-0.2,0.1-0.3,0.2c0,0.1,0.1,0.1,0.1,0.2
		c0.2-0.1,0.4-0.2,0.6-0.4C89.1,14.9,89.1,14.9,89,14.9 M91.9,15c0.1-0.1,0.1-0.2,0.2-0.3c-0.1-0.1-0.2-0.1-0.4-0.1
		c-0.1,0-0.2,0.1-0.2,0.2C91.6,14.8,91.8,14.9,91.9,15 M67.8,94.8c0,0.1,0.1,0.2,0.1,0.4c0-0.1,0-0.3,0-0.4c0,0-0.1-0.1-0.1-0.1
		c0-0.2,0-0.4,0-0.7C67.9,94.2,67.8,94.5,67.8,94.8 M107.4,96.5c0,0.2,0.1,0.4,0.1,0.5c0-0.2,0.1-0.4,0.1-0.5c0-0.1,0-0.2,0-0.3
		c0-0.1-0.1-0.1-0.2-0.1C107.4,96.2,107.4,96.3,107.4,96.5 M66.2,97.9c0.1,0.1,0.1,0.2,0.2,0.3c0.1-0.1,0.1-0.2,0.1-0.3
		c0-0.1-0.1-0.3-0.1-0.4C66.4,97.6,66.3,97.7,66.2,97.9 M101.4,58.4c-0.1,0-0.2,0-0.2,0c0,0.1,0,0.4,0.1,0.4c0.1,0.1,0.3,0,0.5,0
		c-0.1-0.1-0.2-0.2-0.4-0.2C101.5,58.6,101.5,58.5,101.4,58.4 M92.2,70.5c0,0.2-0.1,0.5-0.1,0.7c0,0,0.1,0,0.1,0
		c0-0.2,0.1-0.4,0.1-0.7c0-0.1,0-0.2,0-0.3c0-0.1-0.1-0.1-0.1-0.2C92.3,70.2,92.3,70.3,92.2,70.5 M60.5,34c0.1-0.1,0.1-0.2,0.2-0.3
		c-0.1,0-0.2-0.1-0.2,0c-0.1,0.1-0.3,0.2-0.4,0.4C60.2,34,60.3,34,60.5,34 M128.5,59.8c-0.1-0.1-0.1-0.3-0.2-0.4
		c0,0.1-0.1,0.3-0.1,0.4c0,0.1,0,0.2,0,0.3c0,0.1,0.1,0.1,0.2,0.1C128.5,60.1,128.5,60,128.5,59.8 M106.5,22.3
		c0.2-0.1,0.3-0.1,0.5-0.2c-0.1,0-0.1-0.1-0.2-0.1C106.7,22.2,106.3,21.8,106.5,22.3 M67.8,99.9c0,0.1,0.1,0.1,0.1,0.2
		c0-0.1,0-0.1,0-0.2c0-0.4,0-0.7,0-1.1C67.8,99.1,67.8,99.5,67.8,99.9 M96.5,66.8c-0.1,0.1-0.2,0.1-0.3,0.2c0.1,0.1,0.2,0.3,0.3,0.4
		c0-0.1,0.1-0.2,0.1-0.3C96.6,67,96.6,67,96.5,66.8 M109.1,72c0-0.1,0.1-0.2,0.1-0.4c-0.1,0-0.2-0.1-0.4-0.1
		C108.9,71.7,109,71.8,109.1,72 M71.8,23.1c0.1-0.1,0.2-0.2,0.4-0.3c0,0-0.1-0.1-0.1-0.2C72,22.8,71.9,22.9,71.8,23.1 M79,20.2
		c0.1,0,0.1-0.1,0.2-0.1c-0.1,0-0.3-0.1-0.4-0.1c-0.1,0-0.2,0.1-0.3,0.2C78.6,20.1,78.7,20.1,79,20.2 M67.8,98.6
		c0.4,0.2,0.2-0.2,0.2-0.3c0-0.1-0.1-0.2-0.1-0.2C67.8,98.2,67.8,98.3,67.8,98.6 M96.7,65.3c0,0.2,0,0.4,0,0.6c0,0,0.1,0,0.1,0
		C96.9,65.7,96.9,65.5,96.7,65.3 M109.5,20c-0.2,0-0.3,0.1-0.5,0.1c0.2,0.1,0.3,0.1,0.5,0.1C109.5,20.3,109.5,20.1,109.5,20
		 M108,61.1c0-0.1-0.1-0.2-0.1-0.3c-0.1,0-0.2,0.1-0.2,0.1C107.7,61.1,107.8,61.1,108,61.1 M66.5,28.4c0.1-0.1,0.2-0.1,0.3-0.2
		c0-0.1-0.1-0.1-0.1-0.2C66.6,28.2,66.5,28.3,66.5,28.4 M62.7,80.8c0-0.2,0.1-0.3,0.1-0.5c0,0-0.1,0-0.1,0
		C62.6,80.4,62.6,80.6,62.7,80.8 M68.5,104.5c0,0.1,0.1,0.2,0.1,0.3c0.1-0.1,0.2-0.2,0.1-0.2C68.7,104.5,68.6,104.4,68.5,104.5
		 M77.9,17.5c0.1,0.1,0.1,0.2,0.2,0.2c0.1,0,0.2-0.1,0.2-0.1C78.2,17.6,78.1,17.5,77.9,17.5 M108,72.3c0.1,0.1,0.1,0.1,0.2,0.2
		c0.1-0.1,0.1-0.2,0.2-0.3C108.2,72.2,108.1,72.2,108,72.3 M68.5,113.5c0.1,0,0.2,0.1,0.2,0.1c0-0.1,0-0.2,0-0.2
		C68.6,113.3,68.6,113.3,68.5,113.5 M87,23.5c0.1-0.1,0.1-0.2,0.2-0.3c0,0-0.1-0.1-0.2-0.1c0,0.1-0.1,0.2-0.1,0.3
		C86.8,23.4,86.9,23.5,87,23.5 M92.5,66.7c-0.1,0.1-0.1,0.2-0.2,0.4c0,0,0.1,0.1,0.1,0.1C92.5,67,92.6,66.9,92.5,66.7 M75.1,66.7
		c0.1,0,0.3,0,0.4,0.1c-0.1-0.1-0.1-0.2-0.2-0.2C75.3,66.6,75.2,66.6,75.1,66.7 M102,58.3c-0.1,0-0.2,0-0.4,0c0,0.1,0,0.2,0.1,0.3
		C101.8,58.5,101.8,58.4,102,58.3 M103.5,12.5c-0.1-0.1-0.1-0.2-0.2-0.3c0,0-0.1,0-0.1,0C103.3,12.4,103.4,12.5,103.5,12.5
		 M96.8,67.7c0-0.1,0.1-0.2,0.1-0.2c-0.1,0-0.2,0-0.3,0.1C96.7,67.6,96.7,67.7,96.8,67.7 M67.5,126.4c0,0.1,0,0.2,0,0.2
		c0.1-0.1,0.2-0.2,0.3-0.3C67.7,126.3,67.6,126.3,67.5,126.4 M101.7,73.9c0-0.1,0-0.1,0-0.2c-0.1,0.1-0.1,0.3-0.2,0.4
		c0,0,0,0.1,0.1,0.2C101.6,74.2,101.7,74.1,101.7,73.9 M123.9,24.8c0-0.1,0.1-0.2,0.1-0.2c-0.1,0-0.2,0-0.3,0.1
		C123.8,24.7,123.8,24.8,123.9,24.8 M74.9,22.8c0.1,0.1,0.1,0.1,0.2,0.2c0-0.1,0.1-0.3,0.1-0.4C75.1,22.6,75,22.7,74.9,22.8
		 M92.5,64.6c0,0.2,0,0.3,0,0.5c0.1,0,0.1,0,0.2,0C92.7,64.9,92.6,64.8,92.5,64.6 M92.2,13.7c-0.1,0.1-0.1,0.1-0.2,0.2
		c0,0,0.1,0.1,0.2,0.2C92.2,13.9,92.3,13.8,92.2,13.7 M87.6,17.9c0-0.1-0.1-0.1-0.1-0.2c0,0.1-0.1,0.2-0.1,0.2
		C87.4,18,87.5,18,87.6,17.9 M107.6,64.4c0.1,0.1,0.1,0.3,0.2,0.4c0,0,0.1-0.1,0.1-0.1C107.8,64.5,107.7,64.4,107.6,64.4 M92.7,63
		c-0.1,0-0.2,0-0.2,0c0,0.1,0,0.2,0.1,0.3C92.6,63.3,92.7,63.2,92.7,63 M85.7,25.3c0.1,0,0.2-0.1,0.3-0.1c0-0.1-0.1-0.1-0.1-0.2
		C85.8,25.1,85.7,25.2,85.7,25.3 M92.4,68.9c0-0.1,0-0.2,0-0.3c0,0-0.1,0-0.1,0.1C92.3,68.7,92.4,68.8,92.4,68.9 M65.8,120.9
		c0-0.1-0.1-0.1-0.1-0.2c0,0.1-0.1,0.2-0.1,0.2C65.7,121,65.8,121,65.8,120.9 M91,50.7c0-0.1-0.1-0.1-0.1-0.2c0,0.1-0.1,0.2-0.1,0.2
		C90.9,50.8,91,50.8,91,50.7 M75.8,77.9c0.1,0.1,0.2,0.1,0.3,0.2c0-0.1,0.1-0.1,0.1-0.2C76.1,77.9,76,77.9,75.8,77.9 M132.7,30.3
		c0.2,0,0.3-0.1,0.5-0.1C133,30.2,132.8,30.2,132.7,30.3 M68.5,106.1C68.5,106.1,68.4,106.1,68.5,106.1c-0.1,0-0.1,0-0.1,0
		c0,0.1,0.1,0.3,0.1,0.4C68.5,106.4,68.5,106.3,68.5,106.1 M62.2,31.3c-0.1-0.1-0.2-0.1-0.3-0.2c0,0.1,0,0.1,0,0.2
		C62,31.3,62.1,31.3,62.2,31.3 M89.5,44.3c0.1-0.1,0.2-0.2,0.3-0.3c0,0-0.1-0.1-0.1-0.1C89.7,44,89.6,44.1,89.5,44.3 M107.5,58.9
		c0,0.1,0.1,0.2,0.1,0.2c0-0.1,0-0.3,0-0.4C107.6,58.8,107.6,58.8,107.5,58.9 M87.6,22.5c0-0.1-0.1-0.1-0.1-0.2
		c-0.1,0.1-0.1,0.2-0.2,0.3C87.4,22.6,87.5,22.6,87.6,22.5 M111,73.5c0.1,0,0.1,0.1,0.2,0.1c0.1,0,0.3,0,0.4,0c-0.1,0-0.2,0-0.4-0.1
		C111.1,73.4,111.1,73.4,111,73.5 M47.8,86.8c0.1,0,0.2,0,0.3,0c0,0,0-0.1,0-0.1C48.1,86.8,47.9,86.7,47.8,86.8 M77.8,19.8
		c-0.1,0-0.1,0.1-0.2,0.1c0,0,0.1,0.1,0.1,0.1C77.8,20,77.8,19.9,77.8,19.8 M91.8,109.5c-0.1,0-0.2,0-0.2,0c0.1,0.1,0.1,0.2,0.2,0.3
		C91.7,109.7,91.7,109.7,91.8,109.5 M92.1,73.9c0-0.1,0-0.2,0-0.4c-0.1,0-0.1,0-0.2,0C91.9,73.7,92,73.8,92.1,73.9 M87.1,24.8
		c0.1-0.1,0.2-0.2,0.4-0.2C87.3,24.6,87.2,24.6,87.1,24.8 M69.1,117c0.1-0.1,0.1-0.2,0.2-0.3c-0.1,0-0.1,0-0.2,0
		C69.1,116.7,69.1,116.8,69.1,117 M103.1,10.7c-0.1,0.1-0.1,0.1-0.2,0.2c0.1,0,0.2,0.1,0.2,0C103.2,10.9,103.2,10.8,103.1,10.7
		 M82.5,25.6c-0.1,0.1-0.1,0.2-0.2,0.3c0.1,0,0.1,0,0.2,0C82.5,25.8,82.5,25.7,82.5,25.6 M92,75.3c0,0.2,0,0.4,0.1,0.5
		C92.1,75.6,92.1,75.5,92,75.3C92.1,75.3,92.1,75.3,92,75.3 M65.7,122.3c0.1,0,0.2,0,0.2-0.1c0,0,0-0.1,0-0.2
		C65.9,122.1,65.8,122.2,65.7,122.3 M78.4,17.2c0,0.1-0.1,0.1-0.1,0.2c0.1,0,0.2-0.1,0.3-0.1C78.6,17.2,78.6,17.2,78.4,17.2
		 M92.1,3.8c-0.1-0.1-0.1-0.1-0.2-0.2c0,0.1-0.1,0.2,0,0.2C91.9,3.9,92,3.9,92.1,3.8z"/>
	<path class="st0" d="M130.9,51.6c-0.1-0.9-0.2-1.7-0.2-2.5c-0.1-1.7-0.2-3.3-0.4-5c-0.1-1.5-0.3-3-0.3-4.5
		c-0.1-1.5-0.1-2.9-0.1-4.4c0-0.5-0.2-1.1-0.2-1.6c0-0.3,0-0.5,0.1-0.8c0.1-0.1,0.2-0.3,0.4-0.3c0.1,0,0.2,0.1,0.3,0.3
		c0.4,0.7,0.6,1.4,0.6,2.1c0,1.9,0,3.8,0.1,5.6c0.1,1.3,0.1,2.6,0.4,3.9c0.3,1.3,0.3,2.6,0.3,3.9c0.1,1.3,0.3,2.5,0.5,3.8
		c0.1,0.6,0.1,1.2,0.1,1.9c0.1,1.7,0.2,3.3,0.4,5c0,0.1,0,0.2,0,0.3c0,0.1,0,0.2-0.1,0.2c0-0.1,0-0.2,0-0.2c0-0.1-0.1-0.2-0.2-0.2
		c0,0.1-0.1,0.2-0.1,0.2c0,0.3-0.1,0.6,0.4,0.6c0,0,0.1,0.1,0.1,0.2c0.1,1.3,0.2,2.6,0.2,3.9c0.1,1.6,0.2,3.3,0.2,4.9
		c0,0.5,0,1,0,1.5c0.1,1.3,0.2,2.5,0.2,3.8c0,0.2-0.1,0.5-0.1,0.7c0,0.3,0,0.6,0,0.8c-0.1,0.3-0.3,0.6-0.4,0.9
		c-0.3-0.2-0.7-0.3-0.8-0.5c-0.1-0.3,0-0.8,0-1.2c0-0.3,0-0.7,0-1c0-0.8-0.1-1.7-0.1-2.5c0-0.8-0.1-1.6-0.1-2.4
		c0-1.6-0.1-3.3-0.1-4.9c0-1.2,0-2.5-0.1-3.7c-0.1-1.2-0.3-2.4-0.5-3.6c0-0.2,0-0.4,0-0.6C131.1,54.8,131,53.2,130.9,51.6
		 M132.2,60.7c0-0.3,0-0.6,0-0.9c0-0.1-0.1-0.3-0.1-0.4c-0.1,0.1-0.2,0.3-0.2,0.4c0.1,0.8,0.1,1.6,0.2,2.4c0,0.1,0.1,0.1,0.1,0.1
		c0-0.1,0.1-0.1,0.1-0.2C132.5,61.7,132.4,61.3,132.2,60.7 M133.2,76.1c-0.1,0-0.2,0-0.4,0c0,0,0,0.1,0,0.1
		C132.9,76.3,133,76.3,133.2,76.1z"/>
	<path class="st0" d="M131.2,125.2C131.3,125.2,131.3,125.3,131.2,125.2c0,0.5-0.1,1-0.5,1.3c0,0-0.1,0-0.1,0
		C130.8,126,131,125.6,131.2,125.2z"/>
	<path class="st0" d="M69.4,24.6c-0.3,0.3-0.7,0.6-1,0.8C68.7,25.2,69,24.9,69.4,24.6z"/>
	<path class="st0" d="M69.9,24.2c-0.1,0.1-0.3,0.2-0.4,0.4C69.6,24.5,69.7,24.4,69.9,24.2z"/>
	<path class="st0" d="M65.8,27.5c0.1-0.1,0.3-0.2,0.5-0.3C66.2,27.3,66,27.4,65.8,27.5z"/>
	<path class="st0" d="M95.8,99.4c0.1-0.6,0.2-0.6,0.3-0.4c0.1,0.1,0.2,0.3,0.2,0.5C96.1,99.5,95.9,99.4,95.8,99.4z"/>
	<path class="st0" d="M105.7,101.3c0,0.3,0.1,0.6,0.1,0.9c0,0,0,0.1,0,0.1c0,0-0.1-0.1-0.1-0.1C105.7,101.9,105.7,101.6,105.7,101.3
		z"/>
	<path class="st0" d="M99.2,20.3c1.1-0.1,2.1-0.3,3.1-0.4c0.1,0,0.3,0.1,0.5,0.1c-0.1,0.1-0.2,0.2-0.3,0.2c-0.6,0.2-1.2,0.4-1.8,0.5
		c-2.7,0.4-5.4,0.4-8.1,0.4c-0.7,0-1.4,0.2-2.1,0.2c-0.1,0-0.3-0.1-0.4-0.2c0.2-0.2,0.3-0.5,0.5-0.5c0.7-0.1,1.3-0.2,2-0.3
		c0.5,0,0.9,0,1.4,0C95.7,20.4,97.4,20.3,99.2,20.3z"/>
	<path class="st0" d="M98.6,14c0.5,0,0.9,0,1.3,0c0.2,0,0.3,0.2,0.5,0.3c-0.1,0.1-0.3,0.1-0.4,0.2c-0.2,0.1-0.4,0.1-0.5,0.1
		c-1.5,0.1-3,0.2-4.5,0.4c-0.5,0-0.9,0-1.4,0c-0.1,0-0.3-0.2-0.3-0.3c0.1-0.2,0.2-0.4,0.3-0.4c0.5-0.1,1-0.2,1.6-0.2
		C96.3,14,97.4,14,98.6,14z"/>
	<path class="st0" d="M78.3,63.7c0,0.1,0,0.2-0.1,0.3c-0.1,0.2-0.1,0.3-0.2,0.5c-0.1-0.1-0.2-0.1-0.2-0.1c0-0.2,0-0.4,0.1-0.6
		C77.9,63.7,78.1,63.7,78.3,63.7z"/>
	<path class="st0" d="M118.6,30.8c-0.4,0-0.7-0.1-1-0.1c-0.1,0-0.1-0.1-0.2-0.2c0.1,0,0.2-0.1,0.2-0.1c1-0.1,2.1-0.2,3.1-0.4
		c1.2-0.1,2.3-0.3,3.5-0.4c0.1,0,0.2,0.1,0.3,0.1c-0.1,0.1-0.1,0.1-0.2,0.2c-1,0.4-2.1,0.6-3.2,0.8
		C120.4,30.7,119.6,30.8,118.6,30.8z"/>
	<path class="st0" d="M114.8,21.1c-0.8,0.3-1.5,0.5-2.3,0.7c-0.3,0.1-0.7,0-1-0.1c-0.1,0-0.2-0.3-0.3-0.4c0.2-0.1,0.2-0.3,0.6-0.3
		c0.5,0,1.1-0.1,1.6-0.2c0.5-0.1,0.9-0.3,1.4-0.4c0.1,0,0.3,0,0.4,0c0.1,0,0.3,0.1,0.4,0.2c-0.1,0.1-0.1,0.3-0.2,0.3
		C115.2,20.9,115,21,114.8,21.1z"/>
	<path class="st0" d="M108.7,13.2c-0.7,0.2-1.3,0.4-2,0.6c-0.1,0-0.3,0.1-0.4,0.1c-0.2-0.1-0.4-0.2-0.6-0.4c0.2-0.1,0.3-0.2,0.5-0.2
		c0.8-0.2,1.6-0.4,2.4-0.6c0.2,0,0.4,0.1,0.5,0.2C109,12.9,108.8,13,108.7,13.2z"/>
	<path class="st0" d="M113.1,74.9c-0.4,0.3-1.2,0.1-1.3-0.3c0-0.1,0-0.2,0.1-0.2C112.3,74,113,74.3,113.1,74.9z"/>
	<path class="st0" d="M70,30c-0.4-0.3-0.3-0.5,0.1-0.5c1.3,0.1,2.6,0.1,3.8,0.3c0.8,0.1,1.5,0.3,2.3,0.3c0.7,0.1,1.5,0,2.2,0
		c0.1,0,0.1,0,0.2,0.1c-0.1,0-0.1,0.1-0.2,0.1c-0.8,0.3-1.6,0.5-2.5,0.4c-0.9-0.2-1.8,0-2.6-0.1C72.3,30.5,71.2,30.2,70,30z"/>
	<path class="st0" d="M117.7,83.2c0.2,0.2,0.4,0.3,0.5,0.5c0,0.1,0.1,0.2,0,0.2c-0.1,0.2-1.4,0.6-1.6,0.6c-0.6,0.1-1.1,0.2-1.7,0.3
		c-0.5,0.1-1,0.1-1.5,0c-0.2,0-0.5-0.4-0.4-0.6c0.1-0.2,0.4-0.5,0.6-0.5c0.9-0.2,1.8-0.4,2.7-0.5C116.7,83.1,117.2,83.2,117.7,83.2z
		"/>
	<path class="st0" d="M97.5,88.8c0.3,0.6,0,1.1-0.4,1.5c-0.1,0.1-0.4,0-0.5-0.1c-0.2-0.7-0.4-1.4-0.5-2.1c-0.1-0.3,0-0.6,0.4-0.7
		c0.3-0.1,0.9,0.3,0.9,0.7C97.5,88.3,97.5,88.5,97.5,88.8z"/>
	<path class="st0" d="M93.9,8.4c0.1,0.2,0.2,0.5,0.4,0.8c-0.1,0.2-0.3-0.6-0.4,0.1c0,0,0,0-0.1,0.1c0-0.1-0.1-0.1,0-0.2
		C93.8,8.9,93.9,8.7,93.9,8.4z"/>
</g>
</svg>
